{"glyphs":{"0":{"ha":772,"x_min":58,"x_max":714,"o":"m 183 485 q 184 565 183 521 q 191 652 185 608 q 209 738 197 696 q 244 810 221 779 q 301 861 267 842 q 386 881 336 881 q 471 861 436 881 q 528 810 506 842 q 563 738 551 779 q 581 652 575 696 q 588 565 588 608 q 589 485 589 521 q 585 360 589 429 q 563 231 582 292 q 503 129 544 171 q 386 88 461 88 q 269 129 311 88 q 209 231 228 171 q 187 360 190 292 q 183 485 183 429 m 58 483 q 61 371 58 429 q 75 257 64 313 q 107 152 86 201 q 164 65 128 103 q 255 6 200 28 q 386 -15 310 -15 q 518 6 464 -15 q 608 65 572 28 q 665 152 644 103 q 697 257 686 201 q 711 371 708 313 q 714 483 714 429 q 711 596 714 538 q 697 710 708 654 q 665 815 686 765 q 608 903 644 865 q 517 963 572 940 q 386 985 463 985 q 255 963 310 985 q 164 903 200 940 q 107 815 128 865 q 75 710 86 765 q 61 596 64 654 q 58 483 58 538 z "},"1":{"ha":772,"x_min":121,"x_max":494,"o":"m 494 0 l 494 985 l 404 985 q 368 893 394 929 q 303 836 342 857 q 218 808 265 815 q 121 800 171 800 l 121 706 l 376 706 l 376 0 l 494 0 z "},"2":{"ha":772,"x_min":33,"x_max":686,"o":"m 61 636 l 179 636 q 188 724 178 681 q 222 803 199 768 q 283 859 246 838 q 371 881 319 881 q 444 868 410 881 q 505 832 479 856 q 546 776 531 808 q 561 703 561 743 q 545 613 561 651 q 498 540 529 574 q 419 474 467 507 q 310 403 372 442 q 211 338 258 372 q 126 257 164 303 q 65 149 89 211 q 33 0 40 88 l 676 0 l 676 104 l 171 104 q 206 185 179 150 q 272 251 233 221 q 356 309 310 282 q 447 364 401 336 q 536 425 493 393 q 613 497 579 457 q 666 586 646 536 q 686 701 686 636 q 662 824 686 771 q 596 912 638 876 q 498 966 554 947 q 378 985 442 985 q 239 958 300 985 q 137 885 178 932 q 76 775 96 839 q 61 636 57 711 z "},"3":{"ha":772,"x_min":42,"x_max":708,"o":"m 303 563 l 303 463 q 374 467 336 467 q 456 455 418 467 q 522 419 494 443 q 567 359 550 394 q 583 278 583 324 q 566 198 583 233 q 519 138 549 163 q 451 101 490 114 q 369 88 413 88 q 215 148 268 88 q 160 304 163 208 l 42 304 q 63 168 40 228 q 129 67 86 108 q 233 6 172 26 q 369 -15 294 -15 q 501 3 439 -15 q 608 60 563 22 q 681 153 654 97 q 708 283 708 210 q 665 438 708 372 q 531 522 621 503 l 531 525 q 628 603 589 551 q 667 721 667 654 q 644 839 667 789 q 581 921 621 889 q 485 969 540 953 q 367 985 431 985 q 237 961 293 985 q 143 896 181 938 q 85 796 106 854 q 63 667 65 738 l 181 667 q 192 749 181 710 q 226 817 203 788 q 284 863 249 846 q 367 881 319 881 q 492 841 442 881 q 542 722 542 801 q 526 653 542 683 q 485 602 511 622 q 426 572 460 582 q 354 561 392 561 l 329 561 q 315 561 322 561 q 303 563 310 561 z "},"4":{"ha":772,"x_min":39,"x_max":715,"o":"m 471 335 l 140 335 l 468 817 l 471 817 l 471 335 m 582 335 l 582 985 l 488 985 l 39 344 l 39 231 l 471 231 l 471 0 l 582 0 l 582 231 l 715 231 l 715 335 l 582 335 z "},"5":{"ha":772,"x_min":49,"x_max":707,"o":"m 653 864 l 653 968 l 167 968 l 75 457 l 176 451 q 256 519 211 493 q 360 544 301 544 q 451 528 410 544 q 521 481 492 511 q 566 410 550 451 q 582 321 582 369 q 565 219 582 263 q 520 146 549 175 q 453 102 492 117 q 374 88 415 88 q 292 101 329 88 q 228 138 256 114 q 185 195 201 163 q 167 265 169 228 l 49 265 q 75 146 50 199 q 143 58 100 93 q 242 3 186 22 q 363 -15 299 -15 q 513 12 449 -15 q 621 85 578 39 q 685 190 664 131 q 707 311 707 249 q 682 459 707 396 q 614 565 657 522 q 513 628 571 607 q 389 649 454 649 q 288 631 339 649 q 206 578 238 614 l 203 581 l 256 864 l 653 864 z "},"6":{"ha":772,"x_min":53,"x_max":721,"o":"m 575 733 l 693 733 q 610 920 682 856 q 415 985 538 985 q 240 940 310 985 q 129 822 171 896 q 70 653 88 749 q 53 457 53 558 q 65 296 53 379 q 113 143 76 213 q 215 29 149 74 q 392 -15 282 -15 q 548 16 485 -15 q 649 95 611 47 q 704 201 688 143 q 721 314 721 260 q 700 440 721 382 q 641 542 679 499 q 547 609 603 585 q 419 633 490 633 q 277 603 339 633 q 174 504 215 572 l 171 507 q 182 629 172 564 q 217 751 192 694 q 289 844 243 807 q 410 881 335 881 q 524 840 481 881 q 575 733 567 800 m 397 529 q 485 511 447 529 q 547 463 522 493 q 584 392 572 433 q 596 306 596 351 q 583 223 596 263 q 544 153 569 183 q 483 105 519 122 q 397 88 446 88 q 310 105 349 88 q 247 151 272 122 q 207 221 221 181 q 193 307 193 261 q 206 394 193 353 q 246 465 219 435 q 310 512 272 494 q 397 529 347 529 z "},"7":{"ha":772,"x_min":69,"x_max":707,"o":"m 707 867 l 707 968 l 69 968 l 69 857 l 586 857 q 441 678 508 775 q 322 472 374 581 q 238 244 271 363 q 197 0 206 125 l 329 0 q 368 238 336 115 q 451 475 400 360 q 567 692 501 590 q 707 867 632 793 z "},"8":{"ha":772,"x_min":56,"x_max":717,"o":"m 215 729 q 229 794 215 767 q 266 842 243 822 q 321 871 289 861 q 388 881 353 881 q 506 842 460 881 q 553 729 553 804 q 507 613 553 654 q 390 571 461 571 q 322 581 354 571 q 267 610 290 590 q 229 659 243 629 q 215 729 215 689 m 90 733 q 128 610 90 667 q 228 529 165 554 q 100 435 144 500 q 56 283 56 371 q 81 152 56 208 q 152 58 107 96 q 258 3 197 21 q 390 -15 319 -15 q 518 4 458 -15 q 622 62 578 24 q 691 156 665 100 q 717 283 717 211 q 674 438 717 375 q 542 529 631 501 q 641 612 604 557 q 678 733 678 667 q 661 826 678 781 q 609 906 644 871 q 517 963 574 942 q 379 985 460 985 q 270 968 322 985 q 178 919 218 951 q 114 841 138 888 q 90 733 90 794 m 181 278 q 197 356 181 321 q 241 415 213 390 q 308 453 269 440 q 389 467 346 467 q 467 452 431 467 q 532 413 504 438 q 576 353 560 388 q 592 279 592 319 q 577 203 592 238 q 535 142 563 168 q 472 102 508 117 q 390 88 435 88 q 240 138 299 88 q 181 278 181 189 z "},"9":{"ha":772,"x_min":47,"x_max":708,"o":"m 186 238 l 68 238 q 161 47 79 110 q 367 -15 243 -15 q 627 122 546 -15 q 708 514 708 258 q 681 745 708 654 q 608 889 654 836 q 501 963 563 942 q 371 985 440 985 q 240 961 300 985 q 138 895 181 938 q 71 794 94 853 q 47 664 47 735 q 67 531 47 592 q 127 426 88 469 q 225 359 167 383 q 358 335 283 335 q 492 372 431 335 q 586 471 553 408 l 589 468 q 529 181 583 275 q 367 88 475 88 q 244 126 296 88 q 186 238 193 165 m 568 656 q 554 573 568 613 q 514 503 540 533 q 450 456 488 474 q 367 439 413 439 q 288 456 324 439 q 227 503 253 474 q 187 569 201 532 q 172 647 172 607 q 183 735 172 693 q 216 809 193 776 q 276 861 239 842 q 365 881 313 881 q 453 863 415 881 q 516 813 490 844 q 555 742 542 782 q 568 656 568 701 z "},"\u0000":{"ha":0,"x_min":0,"x_max":0,"o":""},"\b":{"ha":0,"x_min":0,"x_max":0,"o":""},"\t":{"ha":386,"x_min":0,"x_max":0,"o":""},"\n":{"ha":386,"x_min":0,"x_max":0,"o":""},"\r":{"ha":386,"x_min":0,"x_max":0,"o":""},"\u001d":{"ha":0,"x_min":0,"x_max":0,"o":""}," ":{"ha":386,"x_min":0,"x_max":0,"o":""},"!":{"ha":360,"x_min":103,"x_max":257,"o":"m 103 154 l 103 0 l 257 0 l 257 154 l 103 154 m 246 686 l 246 992 l 114 992 l 114 686 l 149 254 l 211 254 l 246 686 z "},"\"":{"ha":592,"x_min":151,"x_max":440,"o":"m 346 992 l 346 633 l 440 633 l 440 992 l 346 992 m 151 992 l 151 633 l 246 633 l 246 992 l 151 992 z "},"#":{"ha":772,"x_min":47,"x_max":725,"o":"m 321 589 l 493 589 l 464 381 l 292 381 l 321 589 m 182 286 l 142 0 l 238 0 l 278 286 l 450 286 l 410 0 l 506 0 l 546 286 l 686 286 l 686 381 l 560 381 l 589 589 l 725 589 l 725 683 l 601 683 l 642 968 l 546 968 l 506 683 l 333 683 l 374 968 l 278 968 l 238 683 l 83 683 l 83 589 l 225 589 l 196 381 l 47 381 l 47 286 l 182 286 z "},"$":{"ha":772,"x_min":35,"x_max":729,"o":"m 153 303 l 35 303 q 128 74 46 157 q 349 -22 210 -8 l 349 -136 l 425 -136 l 425 -22 q 547 6 492 -17 q 643 66 603 28 q 706 157 683 104 q 729 278 729 210 q 705 388 729 342 q 646 464 681 433 q 574 512 611 494 q 508 536 536 529 l 425 558 l 425 900 q 581 739 553 876 l 699 739 q 604 931 671 861 q 425 1014 538 1000 l 425 1107 l 349 1107 l 349 1015 q 237 989 289 1011 q 147 928 185 967 q 86 838 108 890 q 64 724 64 786 q 81 619 64 663 q 133 547 97 576 q 222 495 168 517 q 349 456 275 474 l 349 88 q 210 156 265 101 q 153 303 156 210 m 425 88 l 425 436 q 496 412 463 425 q 553 379 529 399 q 590 333 576 360 q 604 265 604 306 q 591 188 604 221 q 553 134 578 156 q 497 101 529 113 q 425 88 464 90 m 349 904 l 349 579 q 285 601 314 589 q 234 631 256 614 q 201 674 213 649 q 189 736 189 700 q 235 856 189 815 q 349 904 282 897 z "},"%":{"ha":1389,"x_min":128,"x_max":1261,"o":"m 232 706 q 236 773 232 738 q 253 838 240 808 q 290 888 267 868 q 353 908 314 908 q 416 888 393 908 q 451 838 439 868 q 467 773 464 808 q 471 707 471 738 q 467 639 471 675 q 449 573 463 603 q 413 524 436 543 q 349 504 389 504 q 287 524 310 504 q 251 574 264 544 q 235 640 239 604 q 232 706 232 675 m 128 703 q 140 596 128 646 q 178 508 151 546 q 247 449 204 471 q 353 428 290 428 q 456 451 414 428 q 524 513 497 475 q 563 602 551 551 q 575 707 575 653 q 565 815 575 764 q 528 903 554 865 q 460 963 503 940 q 353 985 418 985 q 246 962 289 985 q 176 900 203 939 q 139 810 150 861 q 128 703 128 760 m 918 261 q 922 328 918 293 q 940 394 926 364 q 976 444 953 424 q 1039 464 1000 464 q 1102 444 1079 464 q 1138 394 1125 424 q 1153 328 1150 364 q 1157 263 1157 293 q 1153 194 1157 231 q 1135 128 1149 158 q 1099 79 1122 99 q 1035 60 1075 60 q 973 80 996 60 q 938 130 950 100 q 922 195 925 160 q 918 261 918 231 m 814 258 q 826 151 814 201 q 864 65 838 101 q 933 6 890 28 q 1039 -15 976 -15 q 1142 8 1100 -15 q 1210 69 1183 31 q 1249 158 1238 107 q 1261 263 1261 208 q 1251 370 1261 319 q 1215 458 1240 421 q 1147 518 1189 496 q 1039 540 1104 540 q 932 517 975 540 q 863 456 889 494 q 825 366 836 417 q 814 258 814 315 m 1008 1003 l 261 -29 l 381 -29 l 1126 1003 l 1008 1003 z "},"&":{"ha":875,"x_min":46,"x_max":896,"o":"m 382 610 q 349 651 365 631 q 318 694 332 672 q 295 738 304 715 q 286 782 286 760 q 322 862 286 836 q 400 888 358 888 q 483 856 453 888 q 514 782 514 825 q 501 724 514 750 q 469 678 489 699 q 426 640 450 657 q 382 610 403 624 m 636 124 l 742 0 l 896 0 l 703 224 q 729 283 718 257 q 748 335 740 308 q 760 392 756 361 q 769 468 765 424 l 657 468 q 625 314 653 392 l 446 532 q 515 578 482 553 q 575 636 549 604 q 617 706 601 668 q 632 789 632 744 q 612 877 632 839 q 558 941 592 915 q 481 979 525 967 q 392 992 438 992 q 296 975 338 992 q 226 930 254 958 q 183 865 197 901 q 168 788 168 828 q 177 720 168 750 q 202 663 186 690 q 238 610 218 636 q 278 554 257 583 q 188 501 231 529 q 115 437 146 472 q 65 357 83 401 q 46 254 46 313 q 56 178 46 224 q 100 89 67 132 q 194 15 133 46 q 356 -15 256 -15 q 515 19 438 -15 q 636 124 592 54 m 343 479 l 571 206 q 481 119 535 151 q 360 88 428 88 q 290 100 324 88 q 229 134 256 113 q 187 187 203 156 q 171 256 171 218 q 185 333 171 300 q 222 392 199 365 q 277 439 246 418 q 343 479 308 460 z "},"'":{"ha":386,"x_min":146,"x_max":240,"o":"m 146 992 l 146 633 l 240 633 l 240 992 l 146 992 z "},"(":{"ha":360,"x_min":65,"x_max":374,"o":"m 283 -274 l 374 -274 q 233 43 275 -114 q 190 375 190 200 q 232 701 190 546 q 374 1015 274 857 l 283 1015 q 120 706 175 872 q 65 375 65 539 q 81 200 65 283 q 124 38 96 117 q 193 -119 153 -42 q 283 -274 233 -196 z "},")":{"ha":360,"x_min":-12,"x_max":294,"o":"m -12 -274 l 76 -274 q 240 35 185 -131 q 294 365 294 201 q 279 540 294 457 q 235 703 264 624 q 167 860 207 783 q 76 1015 126 938 l -12 1015 q 127 698 85 856 q 169 365 169 540 q 128 40 169 196 q -12 -274 86 -117 z "},"*":{"ha":489,"x_min":33,"x_max":456,"o":"m 279 835 l 279 992 l 206 992 l 206 835 l 58 890 l 33 824 l 181 771 l 90 644 l 153 601 l 243 735 l 339 601 l 396 644 l 304 771 l 456 824 l 428 890 l 279 835 z "},"+":{"ha":833,"x_min":67,"x_max":767,"o":"m 464 399 l 464 703 l 369 703 l 369 399 l 67 399 l 67 304 l 369 304 l 369 0 l 464 0 l 464 304 l 767 304 l 767 399 l 464 399 z "},",":{"ha":386,"x_min":115,"x_max":269,"o":"m 115 154 l 115 0 l 197 0 q 195 -36 199 -17 q 182 -74 192 -56 q 156 -109 172 -93 q 117 -133 140 -125 l 117 -203 q 233 -122 197 -179 q 269 14 269 -65 l 269 154 l 115 154 z "},"-":{"ha":540,"x_min":69,"x_max":471,"o":"m 69 442 l 69 331 l 471 331 l 471 442 l 69 442 z "},".":{"ha":386,"x_min":115,"x_max":269,"o":"m 115 154 l 115 0 l 269 0 l 269 154 l 115 154 z "},"/":{"ha":463,"x_min":-24,"x_max":488,"o":"m 386 1015 l -24 -22 l 76 -22 l 488 1015 l 386 1015 z "},":":{"ha":386,"x_min":115,"x_max":269,"o":"m 269 564 l 269 718 l 115 718 l 115 564 l 269 564 m 115 154 l 115 0 l 269 0 l 269 154 l 115 154 z "},";":{"ha":386,"x_min":115,"x_max":269,"o":"m 269 564 l 269 718 l 115 718 l 115 564 l 269 564 m 115 154 l 115 0 l 197 0 q 195 -36 199 -17 q 182 -74 192 -56 q 156 -109 172 -93 q 117 -133 140 -125 l 117 -203 q 234 -122 197 -179 q 269 14 271 -65 l 269 154 l 115 154 z "},"<":{"ha":833,"x_min":64,"x_max":769,"o":"m 769 619 l 769 714 l 64 394 l 64 308 l 769 -10 l 769 83 l 179 351 l 769 619 z "},"=":{"ha":833,"x_min":67,"x_max":767,"o":"m 67 258 l 67 164 l 767 164 l 767 258 l 67 258 m 767 444 l 767 539 l 67 539 l 67 444 l 767 444 z "},">":{"ha":833,"x_min":64,"x_max":769,"o":"m 64 83 l 64 -10 l 769 308 l 769 394 l 64 714 l 64 619 l 654 351 l 64 83 z "},"?":{"ha":772,"x_min":76,"x_max":681,"o":"m 303 154 l 303 0 l 457 0 l 457 154 l 303 154 m 76 682 l 194 682 q 206 772 194 731 q 241 844 217 814 q 301 893 265 875 q 388 911 338 911 q 506 868 463 911 q 556 749 550 825 q 543 661 558 697 q 502 595 528 625 q 447 538 476 565 q 390 479 417 511 q 344 406 363 447 q 322 307 325 365 l 322 242 l 440 242 l 440 296 q 451 360 440 332 q 478 413 461 389 q 517 459 496 438 q 561 501 539 481 q 605 547 583 524 q 643 599 626 571 q 670 660 660 626 q 681 738 681 694 q 659 856 681 804 q 599 942 638 907 q 506 997 560 978 q 388 1015 453 1015 q 257 990 315 1015 q 158 920 199 965 q 97 814 118 875 q 76 682 75 753 z "},"@":{"ha":1111,"x_min":58,"x_max":1046,"o":"m 742 375 l 858 769 l 771 769 l 739 682 q 674 770 715 744 q 583 796 632 796 q 449 761 510 796 q 347 671 389 726 q 281 544 304 615 q 257 401 257 474 q 272 315 257 356 q 312 246 286 275 q 374 199 338 217 q 456 182 411 182 q 551 210 507 182 q 628 275 596 239 l 632 275 q 660 207 635 229 q 721 185 685 185 q 826 214 769 185 q 932 296 883 243 q 1013 423 981 349 q 1046 588 1046 497 q 1008 760 1046 682 q 906 895 971 839 q 756 983 842 951 q 574 1015 669 1015 q 374 975 468 1015 q 210 865 281 935 q 99 701 140 794 q 58 500 58 607 q 99 294 58 389 q 209 128 139 199 q 374 18 279 58 q 579 -22 469 -22 q 710 -6 646 -22 q 830 41 774 10 q 933 117 886 72 q 1014 221 981 163 l 926 221 q 774 99 867 144 q 582 53 682 53 q 417 87 494 53 q 280 180 339 121 q 187 319 221 239 q 153 493 153 400 q 185 665 153 585 q 275 807 218 746 q 409 903 332 868 q 575 939 486 939 q 716 914 649 939 q 836 842 783 889 q 920 729 889 796 q 951 581 951 663 q 933 468 951 525 q 888 365 915 411 q 826 290 860 319 q 760 261 792 261 q 726 304 726 261 q 731 338 726 319 q 742 375 736 357 m 583 701 q 626 690 606 701 q 662 662 646 679 q 687 621 678 644 q 696 572 696 597 q 679 478 696 529 q 633 381 663 426 q 565 306 604 336 q 481 276 526 276 q 394 315 428 276 q 361 411 361 353 q 378 508 361 457 q 424 601 394 558 q 494 673 453 644 q 583 701 535 701 z "},"A":{"ha":900,"x_min":-8,"x_max":911,"o":"m 279 410 l 447 872 l 450 872 l 615 410 l 279 410 m 378 992 l -8 0 l 126 0 l 238 299 l 657 299 l 765 0 l 911 0 l 524 992 l 378 992 z "},"B":{"ha":951,"x_min":108,"x_max":889,"o":"m 240 565 l 240 881 l 504 881 q 585 876 547 881 q 653 854 624 871 q 699 807 682 838 q 715 724 715 776 q 666 605 715 644 q 504 565 617 565 l 240 565 m 108 992 l 108 0 l 588 0 q 717 24 661 0 q 812 88 774 49 q 869 179 850 128 q 889 285 889 231 q 840 440 889 376 q 700 524 792 504 l 700 526 q 809 612 771 554 q 847 749 847 669 q 813 875 847 824 q 731 956 779 926 q 677 976 708 969 q 610 987 646 983 q 537 991 574 990 q 468 992 500 992 l 108 992 m 240 111 l 240 454 l 542 454 q 622 447 583 454 q 691 420 661 439 q 739 369 721 401 q 757 289 757 338 q 708 158 757 206 q 571 111 658 111 l 240 111 z "},"C":{"ha":1003,"x_min":60,"x_max":947,"o":"m 806 693 l 938 693 q 890 833 926 772 q 800 933 854 893 q 676 994 746 974 q 529 1015 607 1015 q 327 974 415 1015 q 180 863 239 933 q 90 697 121 792 q 60 493 60 601 q 88 290 60 385 q 174 126 117 196 q 317 17 231 57 q 518 -22 403 -22 q 818 82 708 -22 q 947 374 928 186 l 815 374 q 790 260 811 313 q 733 169 769 207 q 645 109 696 131 q 529 88 594 88 q 376 121 440 88 q 272 210 313 154 q 211 342 231 267 q 192 503 192 418 q 211 653 192 581 q 272 781 231 725 q 376 871 313 838 q 528 904 439 904 q 708 851 632 904 q 806 693 783 799 z "},"D":{"ha":978,"x_min":108,"x_max":925,"o":"m 240 111 l 240 881 l 463 881 q 617 855 554 881 q 719 780 679 829 q 776 660 758 731 q 793 501 793 590 q 774 345 793 410 q 726 238 756 281 q 660 169 697 194 q 586 131 624 144 q 515 115 549 118 q 460 111 482 111 l 240 111 m 108 992 l 108 0 l 449 0 q 663 35 572 0 q 811 135 753 69 q 897 298 869 201 q 925 519 925 394 q 801 875 925 758 q 449 992 678 992 l 108 992 z "},"E":{"ha":849,"x_min":108,"x_max":797,"o":"m 108 992 l 108 0 l 797 0 l 797 111 l 240 111 l 240 454 l 756 454 l 756 565 l 240 565 l 240 881 l 793 881 l 793 992 l 108 992 z "},"F":{"ha":797,"x_min":108,"x_max":760,"o":"m 108 992 l 108 0 l 240 0 l 240 454 l 696 454 l 696 565 l 240 565 l 240 881 l 760 881 l 760 992 l 108 992 z "},"G":{"ha":1054,"x_min":60,"x_max":968,"o":"m 850 124 l 885 0 l 968 0 l 968 522 l 533 522 l 533 411 l 850 411 q 832 284 853 343 q 770 181 811 225 q 669 113 729 138 q 532 88 610 88 q 385 120 449 88 q 279 208 322 153 q 214 334 236 263 q 192 483 192 406 q 211 638 192 563 q 272 773 231 714 q 377 868 313 832 q 532 904 442 904 q 637 891 588 904 q 725 851 686 878 q 790 784 764 825 q 826 686 817 743 l 958 686 q 906 835 944 774 q 812 938 868 897 q 684 997 756 978 q 532 1015 613 1015 q 326 972 414 1015 q 178 854 238 928 q 90 683 119 781 q 60 476 60 585 q 92 289 60 379 q 185 129 124 199 q 333 19 246 60 q 532 -22 421 -22 q 706 12 619 -22 q 850 124 792 46 z "},"H":{"ha":1003,"x_min":108,"x_max":894,"o":"m 108 992 l 108 0 l 240 0 l 240 454 l 763 454 l 763 0 l 894 0 l 894 992 l 763 992 l 763 565 l 240 565 l 240 992 l 108 992 z "},"I":{"ha":360,"x_min":114,"x_max":246,"o":"m 114 992 l 114 0 l 246 0 l 246 992 l 114 992 z "},"J":{"ha":721,"x_min":31,"x_max":613,"o":"m 613 247 l 613 992 l 481 992 l 481 267 q 447 136 481 185 q 322 88 413 88 q 242 102 274 88 q 194 143 211 117 q 169 206 176 169 q 163 285 163 242 l 163 326 l 31 326 l 31 265 q 106 51 31 124 q 319 -22 181 -22 q 459 1 403 -22 q 549 62 515 24 q 598 149 583 100 q 613 247 613 197 z "},"K":{"ha":926,"x_min":108,"x_max":931,"o":"m 108 992 l 108 0 l 240 0 l 240 347 l 406 501 l 764 0 l 931 0 l 496 592 l 914 992 l 743 992 l 240 497 l 240 992 l 108 992 z "},"L":{"ha":772,"x_min":108,"x_max":765,"o":"m 108 992 l 108 0 l 765 0 l 765 111 l 240 111 l 240 992 l 108 992 z "},"M":{"ha":1210,"x_min":111,"x_max":1099,"o":"m 111 992 l 111 0 l 236 0 l 236 825 l 239 825 l 549 0 l 661 0 l 971 825 l 974 825 l 974 0 l 1099 0 l 1099 992 l 918 992 l 604 158 l 292 992 l 111 992 z "},"N":{"ha":1003,"x_min":107,"x_max":897,"o":"m 107 992 l 107 0 l 232 0 l 232 796 l 235 796 l 753 0 l 897 0 l 897 992 l 772 992 l 772 188 l 769 188 l 247 992 l 107 992 z "},"O":{"ha":1056,"x_min":53,"x_max":1003,"o":"m 185 496 q 204 644 185 571 q 265 775 224 717 q 372 869 307 833 q 528 904 438 904 q 683 869 618 904 q 790 775 749 833 q 851 644 832 717 q 871 496 871 571 q 851 348 871 421 q 790 217 832 275 q 683 123 749 158 q 528 88 618 88 q 372 123 438 88 q 265 217 307 158 q 204 348 224 275 q 185 496 185 421 m 53 496 q 83 301 53 394 q 172 135 113 207 q 321 20 232 63 q 528 -22 410 -22 q 735 20 646 -22 q 883 135 824 63 q 973 301 943 207 q 1003 496 1003 394 q 973 691 1003 597 q 883 857 943 785 q 735 972 824 929 q 528 1015 646 1015 q 321 972 410 1015 q 172 857 232 929 q 83 691 113 785 q 53 496 53 597 z "},"P":{"ha":900,"x_min":108,"x_max":847,"o":"m 240 517 l 240 881 l 499 881 q 663 834 611 881 q 715 699 715 788 q 663 563 715 610 q 499 517 611 515 l 240 517 m 108 992 l 108 0 l 240 0 l 240 406 l 543 406 q 770 482 693 404 q 847 699 847 560 q 770 915 847 838 q 543 992 693 992 l 108 992 z "},"Q":{"ha":1056,"x_min":53,"x_max":1003,"o":"m 625 283 l 556 203 l 665 115 q 528 88 599 88 q 372 123 438 88 q 265 217 307 158 q 204 348 224 275 q 185 496 185 421 q 204 644 185 571 q 265 775 224 717 q 372 869 307 833 q 528 904 438 904 q 683 869 618 904 q 790 775 749 833 q 851 644 832 717 q 871 496 871 571 q 843 320 871 404 q 757 178 815 236 l 625 283 m 917 -85 l 983 -1 l 853 101 q 965 279 928 176 q 1003 496 1003 382 q 973 691 1003 597 q 883 857 943 785 q 735 972 824 929 q 528 1015 646 1015 q 321 972 410 1015 q 172 857 232 929 q 83 691 113 785 q 53 496 53 597 q 83 301 53 394 q 172 135 113 207 q 321 20 232 63 q 528 -22 410 -22 q 765 36 665 -22 l 917 -85 z "},"R":{"ha":951,"x_min":108,"x_max":911,"o":"m 108 992 l 108 0 l 240 0 l 240 424 l 563 424 q 640 409 611 424 q 688 370 669 394 q 714 313 706 346 q 728 244 722 281 q 736 171 735 208 q 739 101 738 133 q 745 42 740 68 q 764 0 750 15 l 911 0 q 880 58 890 25 q 864 126 869 90 q 857 200 858 163 q 853 274 856 238 q 841 343 849 310 q 817 403 833 376 q 774 450 801 431 q 704 478 747 469 l 704 481 q 835 574 794 506 q 876 732 876 642 q 797 922 876 853 q 575 992 717 992 l 108 992 m 515 535 l 240 535 l 240 881 l 568 881 q 703 833 661 881 q 744 711 744 786 q 726 623 744 657 q 676 569 707 589 q 603 542 644 549 q 515 535 561 535 z "},"S":{"ha":900,"x_min":51,"x_max":849,"o":"m 682 701 l 807 701 q 776 842 804 783 q 698 940 747 901 q 583 997 649 979 q 442 1015 518 1015 q 309 998 374 1015 q 194 945 244 981 q 113 855 143 910 q 82 725 82 800 q 109 612 82 657 q 181 538 136 567 q 283 492 226 510 q 399 462 340 475 q 515 436 458 449 q 617 403 572 424 q 690 351 663 383 q 717 268 717 319 q 694 179 717 214 q 636 124 672 144 q 555 96 600 104 q 465 88 510 88 q 357 101 410 88 q 265 144 304 115 q 201 219 225 174 q 176 326 176 264 l 51 326 q 84 170 51 236 q 173 62 117 104 q 303 -1 229 19 q 461 -22 378 -22 q 598 -6 529 -22 q 722 45 667 10 q 813 137 778 81 q 849 272 849 193 q 822 394 849 346 q 749 475 794 443 q 647 526 704 507 q 531 558 590 544 q 415 584 472 572 q 313 614 358 596 q 241 660 268 632 q 214 735 214 689 q 233 816 214 783 q 283 868 251 849 q 354 896 314 888 q 436 904 394 904 q 605 856 539 904 q 682 701 671 808 z "},"T":{"ha":797,"x_min":3,"x_max":796,"o":"m 333 881 l 333 0 l 465 0 l 465 881 l 796 881 l 796 992 l 3 992 l 3 881 l 333 881 z "},"U":{"ha":1003,"x_min":103,"x_max":900,"o":"m 900 358 l 900 992 l 768 992 l 768 358 q 702 156 768 225 q 510 88 636 88 q 306 156 376 88 q 235 358 235 225 l 235 992 l 103 992 l 103 358 q 210 69 103 160 q 510 -22 318 -22 q 799 73 697 -22 q 900 358 900 168 z "},"V":{"ha":849,"x_min":0,"x_max":851,"o":"m 499 0 l 851 992 l 714 992 l 428 132 l 425 132 l 142 992 l 0 992 l 349 0 l 499 0 z "},"W":{"ha":1286,"x_min":17,"x_max":1269,"o":"m 1004 0 l 1269 992 l 1138 992 l 936 167 l 933 167 l 714 992 l 571 992 l 349 167 l 346 167 l 151 992 l 17 992 l 271 0 l 408 0 l 638 833 l 640 833 l 867 0 l 1004 0 z "},"X":{"ha":849,"x_min":0,"x_max":850,"o":"m 344 510 l 0 0 l 147 0 l 422 410 l 689 0 l 850 0 l 501 510 l 829 992 l 682 992 l 424 604 l 176 992 l 18 992 l 344 510 z "},"Y":{"ha":900,"x_min":3,"x_max":897,"o":"m 518 406 l 897 992 l 747 992 l 457 519 l 160 992 l 3 992 l 386 406 l 386 0 l 518 0 l 518 406 z "},"Z":{"ha":849,"x_min":31,"x_max":819,"o":"m 31 111 l 31 0 l 819 0 l 819 111 l 188 111 l 803 881 l 803 992 l 78 992 l 78 881 l 647 881 l 31 111 z "},"[":{"ha":360,"x_min":100,"x_max":360,"o":"m 360 921 l 360 1015 l 100 1015 l 100 -274 l 360 -274 l 360 -179 l 211 -179 l 211 921 l 360 921 z "},"\\":{"ha":463,"x_min":-24,"x_max":488,"o":"m 488 -22 l 76 1015 l -24 1015 l 386 -22 l 488 -22 z "},"]":{"ha":360,"x_min":0,"x_max":260,"o":"m 0 -179 l 0 -274 l 260 -274 l 260 1015 l 0 1015 l 0 921 l 149 921 l 149 -179 l 0 -179 z "},"^":{"ha":833,"x_min":69,"x_max":764,"o":"m 372 968 l 69 367 l 168 367 l 415 867 l 667 367 l 764 367 l 461 968 l 372 968 z "},"_":{"ha":694,"x_min":0,"x_max":694,"o":"m 0 -103 l 0 -172 l 694 -172 l 694 -103 l 0 -103 z "},"`":{"ha":308,"x_min":-44,"x_max":239,"o":"m 106 1069 l 239 844 l 150 844 l -44 1069 l 106 1069 z "},"a":{"ha":746,"x_min":50,"x_max":725,"o":"m 725 3 q 640 -15 694 -15 q 567 10 594 -15 q 540 94 540 36 q 427 10 492 36 q 288 -15 363 -15 q 195 -4 239 -15 q 119 31 151 7 q 69 92 88 54 q 50 185 50 131 q 71 285 50 246 q 126 348 92 324 q 203 385 160 372 q 293 406 247 397 q 385 420 342 415 q 463 434 429 425 q 515 460 496 443 q 535 511 535 478 q 520 574 535 550 q 483 610 506 597 q 431 626 460 622 q 375 631 403 631 q 250 602 300 631 q 196 494 200 574 l 78 494 q 106 607 81 561 q 172 681 131 653 q 267 722 214 710 q 382 735 321 735 q 478 728 431 735 q 565 699 526 721 q 628 639 604 678 q 651 538 651 600 l 651 168 q 656 107 651 126 q 689 88 661 88 q 725 94 704 88 l 725 3 m 533 371 q 475 347 511 354 q 399 334 439 339 q 319 323 360 329 q 247 303 279 317 q 195 263 215 289 q 175 193 175 238 q 187 144 175 164 q 217 111 199 124 q 261 93 236 99 q 314 88 286 88 q 414 103 372 88 q 482 144 456 119 q 521 197 508 168 q 533 250 533 225 l 533 371 z "},"b":{"ha":824,"x_min":93,"x_max":774,"o":"m 93 992 l 93 0 l 211 0 l 211 96 l 214 96 q 262 42 233 64 q 322 8 290 21 q 387 -10 354 -4 q 446 -15 419 -15 q 590 14 528 -15 q 692 94 651 43 q 753 213 733 144 q 774 357 774 281 q 753 501 774 433 q 691 622 732 569 q 588 704 650 674 q 443 735 526 735 q 306 708 368 735 q 214 621 243 681 l 211 621 l 211 992 l 93 992 m 649 365 q 638 263 649 313 q 601 174 626 213 q 535 111 576 135 q 433 88 494 88 q 329 110 372 88 q 259 171 286 133 q 219 258 232 208 q 207 360 207 307 q 219 458 207 410 q 257 545 231 507 q 325 607 283 583 q 426 631 367 631 q 526 608 483 631 q 595 549 568 586 q 635 463 622 511 q 649 365 649 415 z "},"c":{"ha":746,"x_min":50,"x_max":703,"o":"m 576 488 l 699 488 q 665 598 692 551 q 598 675 639 644 q 503 720 557 706 q 389 735 450 735 q 240 705 304 735 q 134 623 176 675 q 71 501 92 571 q 50 350 50 431 q 72 202 50 269 q 135 86 93 135 q 241 11 178 38 q 386 -15 304 -15 q 603 57 524 -15 q 703 263 683 129 l 582 263 q 522 133 571 179 q 385 88 472 88 q 289 110 329 88 q 224 169 249 132 q 187 253 199 206 q 175 350 175 300 q 186 455 175 404 q 223 544 197 506 q 292 607 249 583 q 399 631 335 631 q 518 593 474 631 q 576 488 563 556 z "},"d":{"ha":824,"x_min":50,"x_max":731,"o":"m 175 353 q 186 456 175 406 q 222 544 197 506 q 289 607 247 583 q 390 631 331 631 q 494 608 451 631 q 565 547 538 585 q 604 460 592 510 q 617 358 617 411 q 605 260 617 308 q 567 173 593 211 q 499 111 540 135 q 397 88 457 88 q 298 110 340 88 q 228 169 256 132 q 188 255 201 207 q 175 353 175 303 m 731 0 l 731 992 l 613 992 l 613 622 l 610 622 q 562 676 590 654 q 501 710 533 697 q 438 729 469 724 q 378 735 406 735 q 234 705 296 735 q 131 624 172 675 q 70 506 90 574 q 50 361 50 438 q 71 217 50 285 q 133 97 92 149 q 235 15 174 46 q 381 -15 297 -15 q 518 11 456 -15 q 610 97 581 38 l 613 97 l 613 0 l 731 0 z "},"e":{"ha":746,"x_min":50,"x_max":713,"o":"m 588 428 l 175 428 q 193 506 178 469 q 235 571 208 543 q 298 615 261 599 q 381 631 335 631 q 462 615 425 631 q 526 572 499 599 q 569 507 553 544 q 588 428 585 469 m 701 228 l 585 228 q 522 122 569 157 q 399 88 474 88 q 297 107 340 88 q 226 159 254 126 q 186 234 199 192 q 175 324 174 276 l 713 324 q 701 461 715 389 q 648 594 686 533 q 547 695 610 656 q 388 735 483 735 q 252 707 314 735 q 145 629 190 679 q 75 511 100 579 q 50 361 50 443 q 74 210 53 279 q 139 90 96 140 q 245 13 182 40 q 394 -15 308 -15 q 597 46 517 -15 q 701 228 678 107 z "},"f":{"ha":411,"x_min":17,"x_max":413,"o":"m 138 614 l 138 0 l 256 0 l 256 614 l 394 614 l 394 718 l 256 718 l 256 818 q 279 882 256 865 q 346 899 303 899 q 379 897 361 899 q 413 889 397 894 l 413 992 q 374 1000 396 997 q 336 1003 353 1003 q 188 958 239 1003 q 138 825 138 913 l 138 718 l 17 718 l 17 614 l 138 614 z "},"g":{"ha":797,"x_min":50,"x_max":708,"o":"m 708 61 l 708 718 l 597 718 l 597 615 l 596 615 q 507 705 564 675 q 382 735 450 735 q 225 699 289 735 q 122 609 161 664 q 67 487 83 554 q 50 356 50 419 q 70 216 50 282 q 131 101 90 150 q 231 22 171 51 q 371 -7 290 -7 q 502 24 440 -7 q 594 122 564 56 l 597 122 l 597 75 q 585 -35 597 15 q 547 -120 574 -85 q 481 -176 521 -156 q 382 -196 440 -196 q 321 -190 353 -196 q 262 -169 289 -183 q 216 -133 235 -156 q 196 -79 197 -111 l 78 -79 q 108 -178 81 -137 q 178 -243 136 -218 q 273 -279 221 -268 q 375 -290 325 -290 q 628 -203 547 -290 q 708 61 708 -115 m 378 96 q 281 120 319 96 q 218 184 242 144 q 185 272 194 224 q 175 369 175 321 q 187 468 175 421 q 224 551 199 515 q 290 609 250 588 q 388 631 331 631 q 482 608 443 631 q 545 549 521 586 q 581 467 569 513 q 592 374 592 421 q 580 274 592 324 q 543 184 568 224 q 477 120 518 144 q 378 96 436 96 z "},"h":{"ha":772,"x_min":89,"x_max":683,"o":"m 89 992 l 89 0 l 207 0 l 207 406 q 220 495 207 454 q 260 567 233 536 q 326 614 286 597 q 419 631 365 631 q 526 592 488 631 q 565 486 565 553 l 565 0 l 683 0 l 683 472 q 672 578 683 531 q 631 661 660 626 q 554 715 601 696 q 436 735 507 735 q 370 728 404 735 q 305 706 336 721 q 249 669 274 692 q 210 613 224 646 l 207 613 l 207 992 l 89 992 z "},"i":{"ha":308,"x_min":96,"x_max":214,"o":"m 214 847 l 214 992 l 96 992 l 96 847 l 214 847 m 96 718 l 96 0 l 214 0 l 214 718 l 96 718 z "},"j":{"ha":308,"x_min":-18,"x_max":214,"o":"m 214 847 l 214 992 l 96 992 l 96 847 l 214 847 m 214 -90 l 214 718 l 96 718 l 96 -71 q 82 -148 96 -126 q 29 -169 68 -169 l 4 -169 q -6 -169 -1 -169 q -18 -167 -11 -168 l -18 -268 q 42 -274 10 -274 q 167 -230 121 -274 q 214 -90 214 -186 z "},"k":{"ha":721,"x_min":96,"x_max":721,"o":"m 96 992 l 96 0 l 214 0 l 214 272 l 325 375 l 571 0 l 721 0 l 415 457 l 700 718 l 542 718 l 214 404 l 214 992 l 96 992 z "},"l":{"ha":308,"x_min":96,"x_max":214,"o":"m 96 992 l 96 0 l 214 0 l 214 992 l 96 992 z "},"m":{"ha":1185,"x_min":89,"x_max":1096,"o":"m 89 718 l 89 0 l 207 0 l 207 447 q 217 499 207 468 q 251 560 228 531 q 310 610 274 589 q 399 631 347 631 q 465 619 439 631 q 506 585 490 607 q 527 535 521 564 q 533 471 533 506 l 533 0 l 651 0 l 651 447 q 701 581 651 531 q 839 631 751 631 q 909 618 882 631 q 951 584 936 606 q 972 533 967 563 q 978 471 978 504 l 978 0 l 1096 0 l 1096 526 q 1078 622 1096 582 q 1030 686 1061 661 q 955 723 999 711 q 857 735 911 735 q 727 703 786 735 q 632 613 668 671 q 556 707 610 679 q 435 735 501 735 q 203 613 283 735 l 200 613 l 200 718 l 89 718 z "},"n":{"ha":772,"x_min":89,"x_max":683,"o":"m 89 718 l 89 0 l 207 0 l 207 406 q 220 495 207 454 q 260 567 233 536 q 326 614 286 597 q 419 631 365 631 q 526 592 488 631 q 565 486 565 553 l 565 0 l 683 0 l 683 472 q 672 578 683 531 q 631 661 660 626 q 554 715 601 696 q 436 735 507 735 q 203 604 276 735 l 200 604 l 200 718 l 89 718 z "},"o":{"ha":797,"x_min":50,"x_max":747,"o":"m 175 358 q 192 474 175 424 q 240 560 210 525 q 312 613 271 594 q 399 631 353 631 q 485 613 444 631 q 557 560 526 594 q 605 474 588 525 q 622 358 622 424 q 605 242 622 293 q 557 158 588 192 q 485 106 526 124 q 399 88 444 88 q 312 106 353 88 q 240 158 271 124 q 192 242 210 192 q 175 358 175 293 m 50 358 q 72 211 50 279 q 139 92 94 143 q 249 13 183 42 q 399 -15 314 -15 q 549 13 485 -15 q 658 92 614 42 q 725 211 703 143 q 747 358 747 279 q 725 506 747 438 q 658 626 703 575 q 549 706 614 676 q 399 735 485 735 q 249 706 314 735 q 139 626 183 676 q 72 506 94 575 q 50 358 50 438 z "},"p":{"ha":824,"x_min":93,"x_max":774,"o":"m 93 718 l 93 -274 l 211 -274 l 211 96 l 214 96 q 262 42 233 64 q 322 8 290 21 q 387 -10 354 -4 q 446 -15 419 -15 q 590 14 528 -15 q 692 94 651 43 q 753 213 733 144 q 774 357 774 281 q 753 501 774 433 q 691 622 732 569 q 588 704 650 674 q 443 735 526 735 q 306 708 368 735 q 214 621 243 681 l 211 621 l 211 718 l 93 718 m 649 365 q 638 263 649 313 q 601 174 626 213 q 535 111 576 135 q 433 88 494 88 q 329 110 372 88 q 259 171 286 133 q 219 258 232 208 q 207 360 207 307 q 219 458 207 410 q 257 545 231 507 q 325 607 283 583 q 426 631 367 631 q 526 608 483 631 q 595 549 568 586 q 635 463 622 511 q 649 365 649 415 z "},"q":{"ha":824,"x_min":50,"x_max":731,"o":"m 175 353 q 186 456 175 406 q 222 544 197 506 q 289 607 247 583 q 390 631 331 631 q 494 608 451 631 q 565 547 538 585 q 604 460 592 510 q 617 358 617 411 q 605 260 617 308 q 567 173 593 211 q 499 111 540 135 q 397 88 457 88 q 298 110 340 88 q 228 169 256 132 q 188 255 201 207 q 175 353 175 303 m 731 -274 l 731 718 l 613 718 l 613 622 l 610 622 q 562 676 590 654 q 501 710 533 697 q 438 729 469 724 q 378 735 406 735 q 234 705 296 735 q 131 624 172 675 q 70 506 90 574 q 50 361 50 438 q 71 217 50 285 q 133 97 92 149 q 235 15 174 46 q 381 -15 297 -15 q 518 11 456 -15 q 610 97 581 38 l 613 97 l 613 -274 l 731 -274 z "},"r":{"ha":463,"x_min":85,"x_max":463,"o":"m 85 718 l 85 0 l 203 0 l 203 319 q 217 442 203 389 q 261 533 231 496 q 342 590 292 571 q 463 610 392 610 l 463 735 q 304 696 367 738 q 199 567 242 654 l 196 567 l 196 718 l 85 718 z "},"s":{"ha":694,"x_min":43,"x_max":653,"o":"m 161 226 l 43 226 q 71 113 46 160 q 138 38 96 67 q 233 -3 179 10 q 347 -15 288 -15 q 456 -5 401 -15 q 555 32 511 6 q 626 101 599 58 q 653 210 653 144 q 633 296 653 261 q 580 353 613 331 q 505 390 547 376 q 418 414 463 404 q 335 433 376 424 q 260 455 293 442 q 205 488 226 468 q 183 539 183 508 q 197 584 183 567 q 233 612 211 601 q 283 626 256 622 q 336 631 310 631 q 394 624 365 631 q 446 604 422 618 q 485 567 469 590 q 503 510 500 544 l 621 510 q 593 619 617 575 q 530 688 569 663 q 439 724 490 714 q 326 735 388 735 q 231 723 279 735 q 145 687 183 711 q 83 624 107 663 q 58 531 58 585 q 93 422 58 461 q 180 362 128 383 q 293 328 232 340 q 406 302 354 317 q 493 264 458 288 q 528 194 528 240 q 511 140 528 161 q 469 107 494 118 q 413 92 443 96 q 354 88 382 88 q 284 94 318 88 q 223 117 250 101 q 179 160 196 133 q 161 226 163 188 z "},"t":{"ha":438,"x_min":13,"x_max":396,"o":"m 253 718 l 253 933 l 135 933 l 135 718 l 13 718 l 13 614 l 135 614 l 135 157 q 144 76 135 107 q 174 29 154 46 q 227 6 194 13 q 306 0 260 0 l 396 0 l 396 104 l 342 104 q 297 106 314 104 q 269 115 279 108 q 256 135 260 122 q 253 168 253 147 l 253 614 l 396 614 l 396 718 l 253 718 z "},"u":{"ha":772,"x_min":89,"x_max":683,"o":"m 683 0 l 683 718 l 565 718 l 565 313 q 552 223 565 264 q 513 151 539 182 q 447 104 486 121 q 353 88 407 88 q 246 126 285 88 q 207 232 207 165 l 207 718 l 89 718 l 89 246 q 101 140 89 188 q 142 57 113 92 q 218 3 171 22 q 336 -15 265 -15 q 474 16 415 -15 q 569 114 532 47 l 572 114 l 572 0 l 683 0 z "},"v":{"ha":694,"x_min":19,"x_max":675,"o":"m 413 0 l 675 718 l 551 718 l 356 119 l 353 119 l 151 718 l 19 718 l 286 0 l 413 0 z "},"w":{"ha":1053,"x_min":24,"x_max":1029,"o":"m 800 0 l 1029 718 l 907 718 l 746 131 l 743 131 l 593 718 l 464 718 l 319 131 l 317 131 l 154 718 l 24 718 l 254 0 l 382 0 l 526 571 l 529 571 l 675 0 l 800 0 z "},"x":{"ha":719,"x_min":13,"x_max":707,"o":"m 282 378 l 13 0 l 156 0 l 356 297 l 556 0 l 707 0 l 429 388 l 676 718 l 535 718 l 356 467 l 183 718 l 32 718 l 282 378 z "},"y":{"ha":694,"x_min":11,"x_max":683,"o":"m 371 -96 q 330 -185 350 -149 q 285 -244 310 -221 q 231 -277 261 -267 q 163 -287 201 -287 q 121 -285 142 -287 q 81 -275 100 -282 l 81 -167 q 116 -178 96 -174 q 150 -183 136 -183 q 210 -166 186 -183 q 247 -117 235 -149 l 296 4 l 11 718 l 144 718 l 354 131 l 357 131 l 558 718 l 683 718 l 371 -96 z "},"z":{"ha":667,"x_min":31,"x_max":636,"o":"m 31 90 l 31 0 l 636 0 l 636 104 l 178 104 l 617 638 l 617 718 l 58 718 l 58 614 l 464 614 l 31 90 z "},"{":{"ha":463,"x_min":67,"x_max":429,"o":"m 429 932 l 429 1015 l 332 1015 q 279 1003 306 1015 q 231 969 253 992 q 196 912 210 946 q 182 833 182 878 l 182 581 q 172 514 182 544 q 147 462 163 483 q 110 428 131 440 q 67 417 89 417 l 67 322 q 110 311 89 322 q 147 279 131 300 q 172 228 163 258 q 182 160 182 197 l 182 -92 q 196 -170 182 -136 q 231 -227 210 -204 q 279 -262 253 -250 q 332 -274 306 -274 l 429 -274 l 429 -190 l 360 -190 q 326 -180 339 -190 q 306 -152 314 -169 q 296 -113 299 -135 q 293 -71 293 -92 l 293 182 q 278 269 293 235 q 244 326 264 304 q 205 357 225 347 q 172 368 185 367 l 172 372 q 205 386 185 375 q 244 419 225 397 q 278 476 264 442 q 293 558 293 510 l 293 813 q 296 856 293 835 q 306 894 299 878 q 326 922 314 911 q 360 932 339 932 l 429 932 z "},"|":{"ha":308,"x_min":107,"x_max":201,"o":"m 107 1092 l 107 -296 l 201 -296 l 201 1092 l 107 1092 z "},"}":{"ha":463,"x_min":33,"x_max":396,"o":"m 33 -190 l 33 -274 l 131 -274 q 183 -262 157 -274 q 231 -227 210 -250 q 267 -170 253 -204 q 281 -92 281 -136 l 281 160 q 290 226 281 196 q 316 277 300 256 q 353 310 332 299 q 396 322 374 322 l 396 417 q 353 428 374 417 q 316 460 332 439 q 290 513 300 482 q 281 581 281 543 l 281 833 q 267 912 281 878 q 231 969 253 946 q 183 1003 210 992 q 131 1015 157 1015 l 33 1015 l 33 932 l 103 932 q 136 922 124 932 q 156 894 149 911 q 167 855 164 876 q 169 810 169 833 l 169 558 q 184 471 169 506 q 218 415 199 436 q 258 383 238 393 q 290 372 278 374 l 290 368 q 258 354 278 365 q 218 321 238 343 q 184 265 199 299 q 169 182 169 231 l 169 -71 q 167 -115 169 -93 q 156 -153 164 -136 q 136 -180 149 -169 q 103 -190 124 -190 l 33 -190 z "},"~":{"ha":833,"x_min":67,"x_max":763,"o":"m 763 514 q 726 458 746 485 q 683 409 707 431 q 631 374 660 388 q 564 361 601 361 q 481 378 521 361 q 405 414 442 394 q 333 450 368 433 q 263 467 297 467 q 188 433 218 467 q 142 361 158 399 l 67 428 q 97 483 79 456 q 140 533 115 511 q 197 567 165 554 q 269 581 229 581 q 347 564 307 581 q 424 528 386 547 q 499 492 463 508 q 565 475 535 475 q 603 485 586 475 q 635 510 621 494 q 663 544 650 525 q 688 581 675 563 l 763 514 l 763 514 z "}," ":{"ha":386,"x_min":0,"x_max":0,"o":""},"¡":{"ha":360,"x_min":103,"x_max":257,"o":"m 257 564 l 257 718 l 103 718 l 103 564 l 257 564 m 114 31 l 114 -274 l 246 -274 l 246 31 l 211 463 l 149 463 l 114 31 z "},"¢":{"ha":772,"x_min":64,"x_max":718,"o":"m 378 -15 l 378 -160 l 432 -160 l 432 -15 q 548 8 497 -15 q 635 72 599 32 q 692 161 671 111 q 718 263 713 211 l 600 263 q 548 143 589 192 q 432 88 507 94 l 432 631 q 539 590 499 628 q 593 488 579 551 l 714 488 q 682 597 706 550 q 622 673 658 643 q 537 718 585 703 q 432 735 489 733 l 432 867 l 378 867 l 378 735 q 241 697 300 729 q 142 612 182 664 q 83 492 103 560 q 64 350 64 425 q 85 208 64 274 q 145 93 106 142 q 243 16 185 44 q 378 -15 301 -12 m 378 631 l 378 88 q 292 115 328 92 q 233 175 256 139 q 199 257 210 211 q 189 350 189 303 q 199 449 189 401 q 230 535 208 497 q 288 599 251 574 q 378 631 324 624 z "},"£":{"ha":772,"x_min":65,"x_max":756,"o":"m 146 517 q 99 615 118 564 q 81 733 81 667 q 106 852 81 800 q 176 940 132 904 q 276 996 219 976 q 397 1015 333 1015 q 640 926 551 1015 q 725 657 728 836 l 607 657 q 554 845 604 779 q 404 911 504 911 q 326 897 363 911 q 263 859 290 883 q 221 801 236 835 q 206 729 206 768 q 213 667 206 696 q 230 614 219 639 q 253 565 240 589 q 278 517 265 542 l 499 517 l 499 454 l 308 454 q 328 406 319 432 q 336 350 336 379 q 322 266 336 303 q 286 198 308 229 q 235 140 264 167 q 175 89 206 114 l 178 86 q 248 114 214 101 q 324 126 282 126 q 396 119 364 126 q 456 106 428 113 q 512 89 483 97 q 572 81 540 81 q 638 97 606 81 q 696 132 671 113 l 756 40 q 660 -9 714 4 q 553 -22 607 -22 q 485 -14 518 -22 q 415 4 451 -6 q 345 24 381 15 q 269 33 310 33 q 196 20 229 33 q 131 -14 163 7 l 65 76 q 122 122 94 96 q 172 181 150 149 q 206 249 193 213 q 218 325 218 285 q 207 392 218 357 q 183 454 196 426 l 65 454 l 65 517 l 146 517 z "},"¤":{"ha":772,"x_min":35,"x_max":738,"o":"m 390 728 q 480 708 439 728 q 551 656 521 689 q 598 580 581 624 q 615 488 615 536 q 598 393 615 438 q 551 316 581 349 q 479 264 521 283 q 389 244 438 244 q 298 263 340 244 q 224 314 256 282 q 175 390 193 346 q 157 485 157 435 q 175 581 157 536 q 224 658 193 625 q 298 709 256 690 q 390 728 340 728 m 103 839 l 35 771 l 114 690 q 57 597 75 651 q 39 485 39 543 q 58 375 39 426 q 111 282 76 324 l 35 201 l 101 135 l 178 215 q 273 159 219 178 q 389 140 326 140 q 501 160 447 140 q 594 217 554 179 l 672 136 l 738 201 l 661 279 q 715 376 697 322 q 733 488 733 429 q 715 600 733 546 q 661 693 697 654 l 738 769 l 668 840 l 589 763 q 499 813 551 794 q 390 832 446 832 q 276 813 332 832 q 181 761 221 794 l 103 839 z "},"¥":{"ha":772,"x_min":0,"x_max":772,"o":"m 322 242 l 322 0 l 454 0 l 454 242 l 654 242 l 654 325 l 454 325 l 454 383 l 479 429 l 654 429 l 654 513 l 525 513 l 772 992 l 628 992 l 393 501 l 151 992 l 0 992 l 254 513 l 126 513 l 126 429 l 297 429 l 322 383 l 322 325 l 126 325 l 126 242 l 322 242 z "},"¦":{"ha":308,"x_min":107,"x_max":201,"o":"m 201 571 l 201 918 l 107 918 l 107 571 l 201 571 m 107 224 l 107 -122 l 201 -122 l 201 224 l 107 224 z "},"§":{"ha":772,"x_min":49,"x_max":717,"o":"m 528 758 l 646 758 q 574 952 643 889 q 390 1015 504 1015 q 297 1001 343 1015 q 214 957 250 986 q 156 886 178 928 q 133 790 133 844 q 150 710 133 746 q 197 643 167 675 q 140 616 167 635 q 92 572 113 597 q 60 515 72 546 q 49 451 49 483 q 69 351 49 394 q 124 274 90 308 q 202 212 158 239 q 290 161 246 185 q 379 113 336 136 q 456 64 422 89 q 511 10 490 39 q 532 -54 532 -19 q 519 -105 532 -83 q 488 -141 507 -126 q 442 -162 468 -156 q 392 -169 417 -169 q 278 -126 321 -169 q 233 -11 235 -82 l 115 -11 q 197 -203 124 -133 q 394 -274 269 -274 q 499 -258 451 -274 q 581 -212 546 -242 q 635 -142 615 -183 q 654 -51 654 -101 q 572 114 654 53 q 676 194 635 139 q 717 318 717 249 q 697 409 717 369 q 644 481 676 449 q 571 538 613 513 q 486 588 529 564 q 401 633 443 611 q 327 680 360 656 q 275 731 294 704 q 256 792 256 758 q 294 883 256 854 q 388 911 332 911 q 490 867 454 911 q 528 758 526 822 m 264 583 q 359 523 311 551 q 456 465 407 494 q 503 435 478 451 q 551 399 529 419 q 588 355 574 379 q 603 301 603 331 q 573 222 603 254 q 503 172 543 189 q 407 233 456 204 q 308 288 358 261 q 257 319 283 303 q 210 354 231 335 q 176 399 189 374 q 163 457 163 424 q 193 535 163 501 q 264 583 224 569 z "},"¨":{"ha":308,"x_min":-37,"x_max":347,"o":"m -37 967 l -37 822 l 86 822 l 86 967 l -37 967 m 222 967 l 222 822 l 347 822 l 347 967 l 222 967 z "},"©":{"ha":1111,"x_min":33,"x_max":1078,"o":"m 832 396 l 743 396 q 689 294 733 333 q 574 254 644 254 q 484 274 524 254 q 417 328 444 294 q 374 406 389 361 q 360 499 360 450 q 374 592 360 549 q 414 667 388 635 q 480 718 440 700 q 571 736 519 736 q 687 698 642 736 q 743 601 732 660 l 831 601 q 742 759 814 706 q 569 813 669 813 q 442 789 499 813 q 346 724 385 765 q 286 624 307 682 q 265 496 265 565 q 287 369 265 428 q 349 269 308 311 q 446 202 389 226 q 574 178 503 178 q 740 236 669 178 q 832 396 810 294 m 128 499 q 160 672 128 592 q 251 812 193 753 q 387 905 308 871 q 557 939 465 939 q 725 905 647 939 q 860 812 803 871 q 951 672 918 753 q 983 499 983 592 q 951 322 983 403 q 860 181 918 240 q 725 87 803 121 q 557 53 647 53 q 387 87 465 53 q 251 181 308 121 q 160 322 193 240 q 128 499 128 403 m 33 499 q 75 291 33 386 q 188 126 117 196 q 355 17 260 56 q 557 -22 450 -22 q 758 17 664 -22 q 924 126 853 56 q 1036 291 994 196 q 1078 499 1078 386 q 1036 703 1078 608 q 924 867 994 797 q 758 976 853 936 q 557 1015 664 1015 q 355 976 450 1015 q 188 867 260 936 q 75 703 117 797 q 33 499 33 608 z "},"ª":{"ha":525,"x_min":35,"x_max":490,"o":"m 215 597 q 155 608 181 597 q 129 654 129 618 q 155 705 129 690 q 218 726 181 719 q 296 739 257 733 q 357 758 335 744 l 357 693 q 349 660 357 678 q 325 629 342 643 q 281 606 308 615 q 215 597 254 597 m 440 642 l 440 864 q 424 925 440 901 q 381 962 407 949 q 324 980 356 975 q 260 985 292 985 q 184 977 221 985 q 119 951 147 969 q 74 906 92 933 q 56 838 57 878 l 139 838 q 173 899 142 882 q 254 915 204 915 q 293 913 274 915 q 328 904 313 911 q 352 884 343 897 q 361 847 361 871 q 354 824 361 833 q 330 809 347 815 q 281 799 313 803 q 201 789 250 794 q 141 778 171 786 q 88 753 111 769 q 49 713 64 738 q 35 651 35 688 q 48 596 35 619 q 83 557 61 572 q 135 535 106 542 q 197 528 164 528 q 360 592 300 528 q 431 528 364 528 q 463 531 449 528 q 490 539 476 533 l 490 600 q 475 597 482 597 l 460 597 q 444 607 449 597 q 440 642 440 617 z "},"«":{"ha":643,"x_min":69,"x_max":553,"o":"m 69 325 l 281 158 l 281 278 l 142 386 l 281 494 l 281 614 l 69 447 l 69 325 m 342 325 l 553 158 l 553 278 l 414 386 l 553 494 l 553 614 l 342 447 l 342 325 z "},"¬":{"ha":833,"x_min":67,"x_max":767,"o":"m 767 151 l 767 539 l 67 539 l 67 444 l 672 444 l 672 151 l 767 151 z "},"­":{"ha":540,"x_min":69,"x_max":471,"o":"m 69 442 l 471 442 l 471 331 l 69 331 l 69 442 z "},"®":{"ha":1111,"x_min":33,"x_max":1078,"o":"m 449 531 l 449 724 l 574 724 q 622 720 597 724 q 665 707 646 717 q 695 679 683 697 q 707 631 707 661 q 694 574 707 594 q 658 544 681 554 q 608 533 636 535 q 547 531 579 531 l 449 531 m 354 800 l 354 193 l 449 193 l 449 454 l 549 454 l 714 193 l 815 193 l 642 461 q 756 506 710 468 q 801 626 801 544 q 749 757 801 714 q 589 800 697 800 l 354 800 m 128 499 q 160 672 128 592 q 251 812 193 753 q 387 905 308 871 q 557 939 465 939 q 725 905 647 939 q 860 812 803 871 q 951 672 918 753 q 983 499 983 592 q 951 322 983 403 q 860 181 918 240 q 725 87 803 121 q 557 53 647 53 q 387 87 465 53 q 251 181 308 121 q 160 322 193 240 q 128 499 128 403 m 33 499 q 75 291 33 386 q 188 126 117 196 q 355 17 260 56 q 557 -22 450 -22 q 758 17 664 -22 q 924 126 853 56 q 1036 291 994 196 q 1078 499 1078 386 q 1036 703 1078 608 q 924 867 994 797 q 758 976 853 936 q 557 1015 664 1015 q 355 976 450 1015 q 188 867 260 936 q 75 703 117 797 q 33 499 33 608 z "},"¯":{"ha":308,"x_min":-81,"x_max":392,"o":"m -81 938 l -81 861 l 392 861 l 392 938 l -81 938 z "},"°":{"ha":556,"x_min":78,"x_max":478,"o":"m 147 785 q 156 833 147 810 q 182 874 165 856 q 223 904 199 893 q 278 915 247 915 q 333 904 308 915 q 374 874 357 893 q 399 833 390 856 q 408 785 408 810 q 399 737 408 760 q 374 695 390 714 q 333 665 357 676 q 278 654 308 654 q 223 665 247 654 q 182 695 199 676 q 156 737 165 714 q 147 785 147 760 m 78 785 q 93 706 78 743 q 135 642 108 669 q 199 600 163 615 q 278 585 236 585 q 356 600 319 585 q 419 642 392 615 q 462 706 446 669 q 478 785 478 743 q 462 863 478 826 q 419 926 446 899 q 356 969 392 953 q 278 985 319 985 q 199 969 236 985 q 135 926 163 953 q 93 863 108 899 q 78 785 78 826 z "},"±":{"ha":833,"x_min":67,"x_max":767,"o":"m 67 94 l 67 0 l 767 0 l 767 94 l 67 94 m 67 471 l 67 376 l 369 376 l 369 144 l 464 144 l 464 376 l 767 376 l 767 471 l 464 471 l 464 701 l 369 701 l 369 471 l 67 471 z "},"²":{"ha":463,"x_min":19,"x_max":449,"o":"m 31 771 l 125 771 q 151 867 125 825 q 239 908 176 908 q 321 882 288 908 q 354 811 354 856 q 344 757 354 781 q 315 713 335 733 q 264 674 294 693 q 193 631 233 654 q 129 590 160 611 q 75 542 99 569 q 37 478 51 515 q 19 389 22 442 l 440 389 l 440 465 l 114 465 q 137 506 119 488 q 178 540 154 524 q 233 574 203 557 q 292 608 263 590 q 349 644 321 625 q 399 688 378 664 q 435 741 421 711 q 449 810 449 771 q 433 884 449 851 q 388 939 417 917 q 322 973 360 961 q 243 985 285 985 q 88 926 146 985 q 31 771 31 867 z "},"³":{"ha":463,"x_min":6,"x_max":453,"o":"m 183 732 l 183 663 l 229 663 q 277 657 254 663 q 318 638 300 651 q 347 605 336 625 q 358 556 358 585 q 319 482 358 508 q 228 456 281 456 q 100 575 103 456 l 6 575 q 23 490 6 526 q 70 428 40 453 q 141 392 100 404 q 228 379 182 379 q 313 390 272 379 q 384 424 353 401 q 434 480 415 446 q 453 560 453 514 q 424 651 453 613 q 332 701 394 690 l 332 704 q 399 751 371 719 q 426 822 426 782 q 411 893 426 863 q 369 944 396 924 q 305 974 342 964 q 225 985 268 985 q 78 933 132 985 q 19 789 25 881 l 114 789 q 140 874 114 840 q 225 908 167 908 q 301 886 271 908 q 332 822 332 864 q 297 753 332 774 q 217 732 263 732 l 183 732 z "},"´":{"ha":308,"x_min":69,"x_max":354,"o":"m 354 1069 l 158 844 l 69 844 l 203 1069 l 354 1069 z "},"µ":{"ha":772,"x_min":89,"x_max":683,"o":"m 683 0 l 683 718 l 565 718 l 565 313 q 552 223 565 264 q 513 151 539 182 q 447 104 486 121 q 353 88 407 88 q 246 126 285 88 q 207 232 207 165 l 207 718 l 89 718 l 89 -274 l 207 -274 l 207 36 l 210 36 q 260 -3 228 8 q 336 -15 292 -15 q 474 16 415 -15 q 569 114 532 47 l 572 114 l 572 0 l 683 0 z "},"¶":{"ha":833,"x_min":67,"x_max":715,"o":"m 715 -214 l 715 992 l 383 992 q 151 917 236 992 q 67 706 67 843 q 88 604 67 651 q 148 522 110 557 q 240 467 186 488 q 357 447 293 447 l 357 -214 l 451 -214 l 451 915 l 621 915 l 621 -214 l 715 -214 z "},"·":{"ha":386,"x_min":104,"x_max":282,"o":"m 104 432 q 131 369 104 396 q 194 343 158 343 q 256 371 229 343 q 282 432 282 399 q 256 494 282 468 q 193 521 229 521 q 131 494 157 521 q 104 432 104 468 z "},"¸":{"ha":308,"x_min":7,"x_max":307,"o":"m 32 -203 l 7 -264 q 70 -283 39 -275 q 135 -290 101 -290 q 194 -284 164 -290 q 250 -263 225 -278 q 291 -225 275 -249 q 307 -167 307 -201 q 271 -90 307 -115 q 190 -65 235 -65 q 144 -75 158 -65 l 142 -72 l 200 0 l 142 0 l 57 -107 l 81 -146 q 108 -137 96 -140 q 138 -135 121 -135 q 184 -147 165 -135 q 203 -178 203 -158 q 194 -198 203 -190 q 174 -211 186 -206 q 146 -219 161 -217 q 117 -221 131 -221 q 72 -215 94 -221 q 32 -203 49 -210 z "},"¹":{"ha":463,"x_min":92,"x_max":346,"o":"m 346 389 l 346 985 l 276 985 q 211 907 263 928 q 92 886 160 886 l 92 817 l 251 817 l 251 389 l 346 389 z "},"º":{"ha":533,"x_min":35,"x_max":499,"o":"m 267 915 q 313 909 289 915 q 358 885 338 903 q 391 835 378 867 q 404 753 404 803 q 397 694 404 722 q 373 644 389 665 q 331 610 357 622 q 268 597 306 597 q 204 610 231 597 q 161 644 178 622 q 137 695 144 667 q 129 754 129 724 q 169 876 129 838 q 267 915 208 915 m 267 985 q 167 967 211 985 q 94 917 124 949 q 50 844 65 886 q 35 754 35 803 q 51 663 35 704 q 97 592 67 622 q 169 544 126 561 q 268 528 213 528 q 440 591 382 528 q 499 754 499 654 q 483 845 499 803 q 439 919 468 888 q 367 967 410 950 q 267 985 324 985 z "},"»":{"ha":643,"x_min":90,"x_max":574,"o":"m 574 447 l 363 614 l 363 494 l 501 386 l 363 278 l 363 158 l 574 325 l 574 447 m 301 447 l 90 614 l 90 494 l 229 386 l 90 278 l 90 158 l 301 325 l 301 447 z "},"¼":{"ha":1158,"x_min":50,"x_max":1088,"o":"m 304 389 l 304 985 l 235 985 q 169 906 221 926 q 50 886 118 886 l 50 817 l 210 817 l 210 389 l 304 389 m 813 1007 l 208 -37 l 297 -37 l 901 1007 l 813 1007 m 710 210 l 915 478 l 918 478 l 918 210 l 710 210 m 1004 210 l 1004 596 l 933 596 l 642 214 l 642 133 l 918 133 l 918 0 l 1004 0 l 1004 133 l 1088 133 l 1088 210 l 1004 210 z "},"½":{"ha":1158,"x_min":50,"x_max":1115,"o":"m 697 382 l 792 382 q 817 478 792 436 q 906 519 843 519 q 988 493 954 519 q 1021 422 1021 467 q 1011 368 1021 392 q 981 324 1001 344 q 931 285 961 304 q 860 242 900 265 q 796 201 826 222 q 742 153 765 181 q 703 90 718 126 q 686 0 689 53 l 1107 0 l 1107 76 l 781 76 q 803 117 786 99 q 845 151 821 135 q 899 185 869 168 q 958 219 929 201 q 1016 256 988 236 q 1066 299 1044 275 q 1101 352 1088 322 q 1115 421 1115 382 q 1099 495 1115 463 q 1055 550 1083 528 q 989 584 1026 572 q 910 596 951 596 q 755 537 813 596 q 697 382 697 478 m 304 389 l 304 985 l 235 985 q 169 906 221 926 q 50 886 118 886 l 50 817 l 210 817 l 210 389 l 304 389 m 792 1007 l 188 -37 l 276 -37 l 881 1007 l 792 1007 z "},"¾":{"ha":1158,"x_min":68,"x_max":1111,"o":"m 246 732 l 246 663 l 292 663 q 340 657 317 663 q 381 638 363 651 q 410 605 399 625 q 421 556 421 585 q 382 482 421 508 q 290 456 343 456 q 163 575 165 456 l 68 575 q 85 490 68 526 q 133 428 103 453 q 203 392 163 404 q 290 379 244 379 q 375 390 335 379 q 447 424 415 401 q 497 480 478 446 q 515 560 515 514 q 486 651 515 613 q 394 701 457 690 l 394 704 q 461 751 433 719 q 489 822 489 782 q 474 893 489 863 q 431 944 458 924 q 367 974 404 964 q 288 985 331 985 q 141 933 194 985 q 82 789 88 881 l 176 789 q 203 874 176 840 q 288 908 229 908 q 364 886 333 908 q 394 822 394 864 q 360 753 394 774 q 279 732 325 732 l 246 732 m 903 1007 l 299 -37 l 388 -37 l 992 1007 l 903 1007 m 735 204 l 940 472 l 943 472 l 943 204 l 735 204 m 1028 210 l 1028 596 l 957 596 l 665 214 l 665 133 l 942 133 l 942 0 l 1028 0 l 1028 133 l 1111 133 l 1111 210 l 1028 210 z "},"¿":{"ha":772,"x_min":94,"x_max":699,"o":"m 468 564 l 468 718 l 314 718 l 314 564 l 468 564 m 699 42 l 581 42 q 569 -47 581 -6 q 534 -119 558 -89 q 474 -168 510 -150 q 388 -186 438 -186 q 269 -143 313 -186 q 219 -24 225 -100 q 232 63 217 26 q 273 128 247 99 q 328 185 299 158 q 385 244 358 213 q 431 318 413 276 q 453 417 450 360 l 453 471 l 335 471 l 335 428 q 324 364 335 393 q 297 310 314 335 q 258 265 279 286 q 214 222 236 243 q 169 176 190 200 q 131 125 147 153 q 104 63 114 97 q 94 -12 94 29 q 116 -131 94 -79 q 176 -217 138 -182 q 269 -272 215 -253 q 388 -290 324 -290 q 518 -265 460 -290 q 617 -194 576 -239 q 679 -90 658 -150 q 699 42 700 -29 z "},"À":{"ha":900,"x_min":-8,"x_max":911,"o":"m 279 410 l 447 872 l 450 872 l 615 410 l 279 410 m 378 992 l -8 0 l 126 0 l 238 299 l 657 299 l 765 0 l 911 0 l 524 992 l 378 992 m 401 1288 l 535 1063 l 446 1063 l 251 1288 l 401 1288 z "},"Á":{"ha":900,"x_min":-8,"x_max":911,"o":"m 279 410 l 447 872 l 450 872 l 615 410 l 279 410 m 378 992 l -8 0 l 126 0 l 238 299 l 657 299 l 765 0 l 911 0 l 524 992 l 378 992 m 650 1288 l 454 1063 l 365 1063 l 499 1288 l 650 1288 z "},"Â":{"ha":900,"x_min":-8,"x_max":911,"o":"m 279 410 l 447 872 l 450 872 l 615 410 l 279 410 m 378 992 l -8 0 l 126 0 l 238 299 l 657 299 l 765 0 l 911 0 l 524 992 l 378 992 m 514 1261 l 658 1063 l 542 1063 l 446 1196 l 349 1063 l 243 1063 l 385 1261 l 514 1261 z "},"Ã":{"ha":900,"x_min":-8,"x_max":911,"o":"m 279 410 l 447 872 l 450 872 l 615 410 l 279 410 m 378 992 l -8 0 l 126 0 l 238 299 l 657 299 l 765 0 l 911 0 l 524 992 l 378 992 m 558 1165 q 606 1185 589 1165 q 628 1242 624 1206 l 696 1242 q 644 1109 682 1144 q 551 1074 606 1074 q 499 1085 524 1074 q 449 1110 474 1096 q 399 1135 424 1124 q 350 1146 375 1146 q 274 1075 286 1146 l 208 1075 q 258 1199 222 1160 q 351 1238 293 1238 q 406 1226 379 1238 q 457 1201 432 1215 q 508 1176 482 1188 q 558 1165 533 1165 z "},"Ä":{"ha":900,"x_min":-8,"x_max":911,"o":"m 257 1213 l 257 1068 l 382 1068 l 382 1213 l 257 1213 m 518 1213 l 518 1068 l 643 1068 l 643 1213 l 518 1213 m 279 410 l 447 872 l 450 872 l 615 410 l 279 410 m 378 992 l -8 0 l 126 0 l 238 299 l 657 299 l 765 0 l 911 0 l 524 992 l 378 992 z "},"Å":{"ha":900,"x_min":-8,"x_max":911,"o":"m 293 1151 q 306 1212 293 1183 q 340 1262 318 1240 q 390 1296 361 1283 q 450 1308 418 1308 q 510 1296 482 1308 q 560 1262 539 1283 q 594 1212 582 1240 q 607 1151 607 1183 q 594 1091 607 1119 q 560 1041 582 1063 q 510 1007 539 1019 q 450 994 482 994 q 390 1007 418 994 q 340 1041 361 1019 q 306 1091 318 1063 q 293 1151 293 1119 m 356 1151 q 383 1084 356 1111 q 450 1057 410 1057 q 517 1084 490 1057 q 544 1151 544 1111 q 517 1219 544 1192 q 450 1246 490 1246 q 383 1219 410 1246 q 356 1151 356 1192 m 615 410 l 450 872 l 447 872 l 279 410 l 615 410 m 524 992 l 911 0 l 765 0 l 657 299 l 238 299 l 126 0 l -8 0 l 378 992 l 524 992 z "},"Æ":{"ha":1286,"x_min":-8,"x_max":1243,"o":"m 565 881 l 622 881 l 622 400 l 332 400 l 565 881 m 492 992 l -8 0 l 139 0 l 281 289 l 622 289 l 622 0 l 1243 0 l 1243 111 l 747 111 l 747 454 l 1206 454 l 1206 565 l 747 565 l 747 881 l 1235 881 l 1235 992 l 492 992 z "},"Ç":{"ha":1003,"x_min":60,"x_max":947,"o":"m 806 693 l 938 693 q 890 833 926 772 q 800 933 854 893 q 676 994 746 974 q 529 1015 607 1015 q 327 974 415 1015 q 180 863 239 933 q 90 697 121 792 q 60 493 60 601 q 85 299 60 389 q 162 142 111 210 q 290 31 213 74 q 472 -19 368 -11 l 404 -107 l 428 -146 q 456 -137 443 -140 q 485 -135 468 -135 q 531 -147 513 -135 q 550 -178 550 -158 q 542 -198 550 -190 q 521 -211 533 -206 q 493 -219 508 -217 q 464 -221 478 -221 q 419 -215 442 -221 q 379 -203 396 -210 l 354 -264 q 417 -283 386 -275 q 482 -290 449 -290 q 542 -284 511 -290 q 597 -263 572 -278 q 638 -225 622 -249 q 654 -167 654 -201 q 618 -90 654 -115 q 538 -65 582 -65 q 492 -75 506 -65 l 489 -72 l 529 -21 q 820 86 713 -18 q 947 374 928 190 l 815 374 q 790 260 811 313 q 733 169 769 207 q 645 109 696 131 q 529 88 594 88 q 376 121 440 88 q 272 210 313 154 q 211 342 231 267 q 192 503 192 418 q 211 653 192 581 q 272 781 231 725 q 376 871 313 838 q 528 904 439 904 q 708 851 632 904 q 806 693 783 799 z "},"È":{"ha":849,"x_min":108,"x_max":797,"o":"m 108 992 l 108 0 l 797 0 l 797 111 l 240 111 l 240 454 l 756 454 l 756 565 l 240 565 l 240 881 l 793 881 l 793 992 l 108 992 m 401 1288 l 535 1063 l 446 1063 l 251 1288 l 401 1288 z "},"É":{"ha":849,"x_min":108,"x_max":797,"o":"m 108 992 l 108 0 l 797 0 l 797 111 l 240 111 l 240 454 l 756 454 l 756 565 l 240 565 l 240 881 l 793 881 l 793 992 l 108 992 m 625 1288 l 429 1063 l 340 1063 l 474 1288 l 625 1288 z "},"Ê":{"ha":849,"x_min":108,"x_max":797,"o":"m 108 992 l 108 0 l 797 0 l 797 111 l 240 111 l 240 454 l 756 454 l 756 565 l 240 565 l 240 881 l 793 881 l 793 992 l 108 992 m 517 1261 l 661 1063 l 544 1063 l 449 1196 l 351 1063 l 246 1063 l 388 1261 l 517 1261 z "},"Ë":{"ha":849,"x_min":108,"x_max":797,"o":"m 232 1213 l 232 1068 l 357 1068 l 357 1213 l 232 1213 m 493 1213 l 493 1068 l 618 1068 l 618 1213 l 493 1213 m 108 992 l 108 0 l 797 0 l 797 111 l 240 111 l 240 454 l 756 454 l 756 565 l 240 565 l 240 881 l 793 881 l 793 992 l 108 992 z "},"Ì":{"ha":360,"x_min":-32,"x_max":251,"o":"m 114 992 l 114 0 l 246 0 l 246 992 l 114 992 m 118 1288 l 251 1063 l 163 1063 l -32 1288 l 118 1288 z "},"Í":{"ha":360,"x_min":97,"x_max":382,"o":"m 114 992 l 114 0 l 246 0 l 246 992 l 114 992 m 382 1315 l 186 1090 l 97 1090 l 231 1315 l 382 1315 z "},"Î":{"ha":360,"x_min":-26,"x_max":389,"o":"m 115 1261 l -26 1063 l 79 1063 l 176 1196 l 272 1063 l 389 1063 l 244 1261 l 115 1261 m 114 992 l 114 0 l 246 0 l 246 992 l 114 992 z "},"Ï":{"ha":360,"x_min":-11,"x_max":374,"o":"m -11 1213 l -11 1068 l 113 1068 l 113 1213 l -11 1213 m 249 1213 l 249 1068 l 374 1068 l 374 1213 l 249 1213 m 114 992 l 114 0 l 246 0 l 246 992 l 114 992 z "},"Ð":{"ha":978,"x_min":11,"x_max":925,"o":"m 240 565 l 240 881 l 463 881 q 617 855 554 881 q 719 780 679 829 q 776 660 758 731 q 793 501 793 590 q 774 345 793 410 q 726 238 756 281 q 660 169 697 194 q 586 131 624 144 q 515 115 549 118 q 460 111 482 111 l 240 111 l 240 471 l 538 471 l 538 565 l 240 565 m 108 471 l 108 0 l 449 0 q 663 35 572 0 q 811 135 753 69 q 897 298 869 201 q 925 519 925 394 q 801 875 925 758 q 449 992 678 992 l 108 992 l 108 565 l 11 565 l 11 471 l 108 471 z "},"Ñ":{"ha":1003,"x_min":107,"x_max":897,"o":"m 743 1233 l 671 1233 q 649 1192 664 1213 q 607 1172 635 1172 q 562 1181 585 1172 q 515 1201 539 1190 q 466 1219 492 1211 q 413 1228 440 1228 q 356 1215 379 1228 q 315 1182 332 1203 q 287 1133 299 1161 q 267 1075 275 1106 l 339 1075 q 360 1117 336 1101 q 406 1133 383 1133 q 449 1125 425 1133 q 499 1107 474 1117 q 548 1088 524 1096 q 590 1079 572 1079 q 656 1091 631 1079 q 700 1122 682 1103 q 743 1233 735 1171 m 107 992 l 107 0 l 232 0 l 232 796 l 235 796 l 753 0 l 897 0 l 897 992 l 772 992 l 772 188 l 769 188 l 247 992 l 107 992 z "},"Ò":{"ha":1056,"x_min":53,"x_max":1003,"o":"m 185 496 q 204 644 185 571 q 265 775 224 717 q 372 869 307 833 q 528 904 438 904 q 683 869 618 904 q 790 775 749 833 q 851 644 832 717 q 871 496 871 571 q 851 348 871 421 q 790 217 832 275 q 683 123 749 158 q 528 88 618 88 q 372 123 438 88 q 265 217 307 158 q 204 348 224 275 q 185 496 185 421 m 53 496 q 83 301 53 394 q 172 135 113 207 q 321 20 232 63 q 528 -22 410 -22 q 735 20 646 -22 q 883 135 824 63 q 973 301 943 207 q 1003 496 1003 394 q 973 691 1003 597 q 883 857 943 785 q 735 972 824 929 q 528 1015 646 1015 q 321 972 410 1015 q 172 857 232 929 q 83 691 113 785 q 53 496 53 597 m 479 1288 l 613 1063 l 524 1063 l 329 1288 l 479 1288 z "},"Ó":{"ha":1056,"x_min":53,"x_max":1003,"o":"m 185 496 q 204 644 185 571 q 265 775 224 717 q 372 869 307 833 q 528 904 438 904 q 683 869 618 904 q 790 775 749 833 q 851 644 832 717 q 871 496 871 571 q 851 348 871 421 q 790 217 832 275 q 683 123 749 158 q 528 88 618 88 q 372 123 438 88 q 265 217 307 158 q 204 348 224 275 q 185 496 185 421 m 53 496 q 83 301 53 394 q 172 135 113 207 q 321 20 232 63 q 528 -22 410 -22 q 735 20 646 -22 q 883 135 824 63 q 973 301 943 207 q 1003 496 1003 394 q 973 691 1003 597 q 883 857 943 785 q 735 972 824 929 q 528 1015 646 1015 q 321 972 410 1015 q 172 857 232 929 q 83 691 113 785 q 53 496 53 597 m 726 1301 l 531 1076 l 442 1076 l 575 1301 l 726 1301 z "},"Ô":{"ha":1056,"x_min":53,"x_max":1003,"o":"m 185 496 q 204 644 185 571 q 265 775 224 717 q 372 869 307 833 q 528 904 438 904 q 683 869 618 904 q 790 775 749 833 q 851 644 832 717 q 871 496 871 571 q 851 348 871 421 q 790 217 832 275 q 683 123 749 158 q 528 88 618 88 q 372 123 438 88 q 265 217 307 158 q 204 348 224 275 q 185 496 185 421 m 53 496 q 83 301 53 394 q 172 135 113 207 q 321 20 232 63 q 528 -22 410 -22 q 735 20 646 -22 q 883 135 824 63 q 973 301 943 207 q 1003 496 1003 394 q 973 691 1003 597 q 883 857 943 785 q 735 972 824 929 q 528 1015 646 1015 q 321 972 410 1015 q 172 857 232 929 q 83 691 113 785 q 53 496 53 597 m 592 1261 l 736 1063 l 619 1063 l 524 1196 l 426 1063 l 321 1063 l 463 1261 l 592 1261 z "},"Õ":{"ha":1056,"x_min":53,"x_max":1003,"o":"m 185 496 q 204 644 185 571 q 265 775 224 717 q 372 869 307 833 q 528 904 438 904 q 683 869 618 904 q 790 775 749 833 q 851 644 832 717 q 871 496 871 571 q 851 348 871 421 q 790 217 832 275 q 683 123 749 158 q 528 88 618 88 q 372 123 438 88 q 265 217 307 158 q 204 348 224 275 q 185 496 185 421 m 53 496 q 83 301 53 394 q 172 135 113 207 q 321 20 232 63 q 528 -22 410 -22 q 735 20 646 -22 q 883 135 824 63 q 973 301 943 207 q 1003 496 1003 394 q 973 691 1003 597 q 883 857 943 785 q 735 972 824 929 q 528 1015 646 1015 q 321 972 410 1015 q 172 857 232 929 q 83 691 113 785 q 53 496 53 597 m 635 1165 q 683 1185 665 1165 q 704 1242 700 1206 l 772 1242 q 720 1109 758 1144 q 628 1074 682 1074 q 575 1085 600 1074 q 525 1110 550 1096 q 476 1135 500 1124 q 426 1146 451 1146 q 350 1075 363 1146 l 285 1075 q 334 1199 299 1160 q 428 1238 369 1238 q 482 1226 456 1238 q 533 1201 508 1215 q 584 1176 558 1188 q 635 1165 610 1165 z "},"Ö":{"ha":1056,"x_min":53,"x_max":1003,"o":"m 335 1213 l 335 1068 l 460 1068 l 460 1213 l 335 1213 m 596 1213 l 596 1068 l 721 1068 l 721 1213 l 596 1213 m 185 496 q 204 644 185 571 q 265 775 224 717 q 372 869 307 833 q 528 904 438 904 q 683 869 618 904 q 790 775 749 833 q 851 644 832 717 q 871 496 871 571 q 851 348 871 421 q 790 217 832 275 q 683 123 749 158 q 528 88 618 88 q 372 123 438 88 q 265 217 307 158 q 204 348 224 275 q 185 496 185 421 m 53 496 q 83 301 53 394 q 172 135 113 207 q 321 20 232 63 q 528 -22 410 -22 q 735 20 646 -22 q 883 135 824 63 q 973 301 943 207 q 1003 496 1003 394 q 973 691 1003 597 q 883 857 943 785 q 735 972 824 929 q 528 1015 646 1015 q 321 972 410 1015 q 172 857 232 929 q 83 691 113 785 q 53 496 53 597 z "},"×":{"ha":833,"x_min":99,"x_max":736,"o":"m 99 100 l 165 33 l 418 286 l 669 33 l 736 100 l 485 353 l 735 603 l 668 669 l 418 419 l 167 669 l 100 603 l 351 353 l 99 100 z "},"Ø":{"ha":1056,"x_min":51,"x_max":1004,"o":"m 1004 972 l 960 1014 l 850 893 q 712 983 792 951 q 528 1015 632 1015 q 321 972 410 1015 q 172 857 232 929 q 83 691 113 785 q 53 496 53 597 q 81 304 53 396 q 168 142 110 213 l 51 14 l 97 -26 l 210 96 q 347 9 268 40 q 528 -22 426 -22 q 735 20 646 -22 q 883 135 824 63 q 973 301 943 207 q 1003 496 1003 394 q 976 685 1003 596 q 890 847 949 775 l 1004 972 m 292 186 l 804 751 q 855 631 839 697 q 871 496 871 564 q 851 348 871 421 q 790 217 832 275 q 683 123 749 158 q 528 88 618 88 q 390 114 449 88 q 292 186 332 140 m 767 801 l 254 236 q 201 358 218 292 q 185 496 185 425 q 204 644 185 571 q 265 775 224 717 q 372 869 307 833 q 528 904 438 904 q 667 876 607 904 q 767 801 726 849 z "},"Ù":{"ha":1003,"x_min":103,"x_max":900,"o":"m 900 358 l 900 992 l 768 992 l 768 358 q 702 156 768 225 q 510 88 636 88 q 306 156 376 88 q 235 358 235 225 l 235 992 l 103 992 l 103 358 q 210 69 103 160 q 510 -22 318 -22 q 799 73 697 -22 q 900 358 900 168 m 457 1288 l 590 1063 l 501 1063 l 307 1288 l 457 1288 z "},"Ú":{"ha":1003,"x_min":103,"x_max":900,"o":"m 900 358 l 900 992 l 768 992 l 768 358 q 702 156 768 225 q 510 88 636 88 q 306 156 376 88 q 235 358 235 225 l 235 992 l 103 992 l 103 358 q 210 69 103 160 q 510 -22 318 -22 q 799 73 697 -22 q 900 358 900 168 m 700 1288 l 504 1063 l 415 1063 l 549 1288 l 700 1288 z "},"Û":{"ha":1003,"x_min":103,"x_max":900,"o":"m 436 1261 l 293 1063 l 400 1063 l 497 1196 l 593 1063 l 710 1063 l 565 1261 l 436 1261 m 900 358 l 900 992 l 768 992 l 768 358 q 702 156 768 225 q 510 88 636 88 q 306 156 376 88 q 235 358 235 225 l 235 992 l 103 992 l 103 358 q 210 69 103 160 q 510 -22 318 -22 q 799 73 697 -22 q 900 358 900 168 z "},"Ü":{"ha":1003,"x_min":103,"x_max":900,"o":"m 308 1213 l 308 1068 l 433 1068 l 433 1213 l 308 1213 m 569 1213 l 569 1068 l 694 1068 l 694 1213 l 569 1213 m 900 358 l 900 992 l 768 992 l 768 358 q 702 156 768 225 q 510 88 636 88 q 306 156 376 88 q 235 358 235 225 l 235 992 l 103 992 l 103 358 q 210 69 103 160 q 510 -22 318 -22 q 799 73 697 -22 q 900 358 900 168 z "},"Ý":{"ha":900,"x_min":3,"x_max":897,"o":"m 518 406 l 897 992 l 747 992 l 457 519 l 160 992 l 3 992 l 386 406 l 386 0 l 518 0 l 518 406 m 650 1288 l 454 1063 l 365 1063 l 499 1288 l 650 1288 z "},"Þ":{"ha":900,"x_min":108,"x_max":847,"o":"m 240 358 l 240 722 l 499 722 q 663 676 611 722 q 715 539 715 631 q 663 403 715 450 q 499 358 611 357 l 240 358 m 108 0 l 240 0 l 240 247 l 543 247 q 770 323 693 246 q 847 539 847 400 q 770 756 847 678 q 543 833 693 833 l 240 833 l 240 992 l 108 992 l 108 0 z "},"ß":{"ha":772,"x_min":89,"x_max":696,"o":"m 89 738 l 89 0 l 207 0 l 207 717 q 219 813 207 775 q 253 872 232 850 q 306 902 275 893 q 372 911 336 911 q 433 899 406 911 q 482 865 461 886 q 515 816 503 844 q 526 754 526 788 q 509 674 526 707 q 463 623 492 642 q 395 597 433 604 q 315 593 357 590 l 315 499 q 421 492 374 499 q 501 463 468 485 q 553 399 535 440 q 571 290 571 358 q 515 143 571 199 q 363 88 458 88 q 339 88 351 88 q 315 92 326 89 l 315 -10 q 375 -15 343 -15 q 505 8 446 -15 q 606 73 564 31 q 672 174 649 115 q 696 306 696 233 q 684 394 696 351 q 649 469 672 436 q 590 526 625 503 q 507 554 554 549 l 507 557 q 619 638 586 582 q 651 772 651 693 q 626 878 651 833 q 559 954 600 924 q 467 1000 518 985 q 364 1015 415 1015 q 251 995 301 1015 q 164 938 200 975 q 108 851 128 901 q 89 738 89 800 z "},"à":{"ha":746,"x_min":50,"x_max":725,"o":"m 725 3 q 640 -15 694 -15 q 567 10 594 -15 q 540 94 540 36 q 427 10 492 36 q 288 -15 363 -15 q 195 -4 239 -15 q 119 31 151 7 q 69 92 88 54 q 50 185 50 131 q 71 285 50 246 q 126 348 92 324 q 203 385 160 372 q 293 406 247 397 q 385 420 342 415 q 463 434 429 425 q 515 460 496 443 q 535 511 535 478 q 520 574 535 550 q 483 610 506 597 q 431 626 460 622 q 375 631 403 631 q 250 602 300 631 q 196 494 200 574 l 78 494 q 106 607 81 561 q 172 681 131 653 q 267 722 214 710 q 382 735 321 735 q 478 728 431 735 q 565 699 526 721 q 628 639 604 678 q 651 538 651 600 l 651 168 q 656 107 651 126 q 689 88 661 88 q 725 94 704 88 l 725 3 m 533 371 q 475 347 511 354 q 399 334 439 339 q 319 323 360 329 q 247 303 279 317 q 195 263 215 289 q 175 193 175 238 q 187 144 175 164 q 217 111 199 124 q 261 93 236 99 q 314 88 286 88 q 414 103 372 88 q 482 144 456 119 q 521 197 508 168 q 533 250 533 225 l 533 371 m 325 1069 l 458 844 l 369 844 l 175 1069 l 325 1069 z "},"á":{"ha":746,"x_min":50,"x_max":725,"o":"m 725 3 q 640 -15 694 -15 q 567 10 594 -15 q 540 94 540 36 q 427 10 492 36 q 288 -15 363 -15 q 195 -4 239 -15 q 119 31 151 7 q 69 92 88 54 q 50 185 50 131 q 71 285 50 246 q 126 348 92 324 q 203 385 160 372 q 293 406 247 397 q 385 420 342 415 q 463 434 429 425 q 515 460 496 443 q 535 511 535 478 q 520 574 535 550 q 483 610 506 597 q 431 626 460 622 q 375 631 403 631 q 250 602 300 631 q 196 494 200 574 l 78 494 q 106 607 81 561 q 172 681 131 653 q 267 722 214 710 q 382 735 321 735 q 478 728 431 735 q 565 699 526 721 q 628 639 604 678 q 651 538 651 600 l 651 168 q 656 107 651 126 q 689 88 661 88 q 725 94 704 88 l 725 3 m 533 371 q 475 347 511 354 q 399 334 439 339 q 319 323 360 329 q 247 303 279 317 q 195 263 215 289 q 175 193 175 238 q 187 144 175 164 q 217 111 199 124 q 261 93 236 99 q 314 88 286 88 q 414 103 372 88 q 482 144 456 119 q 521 197 508 168 q 533 250 533 225 l 533 371 m 574 1069 l 378 844 l 289 844 l 422 1069 l 574 1069 z "},"â":{"ha":746,"x_min":50,"x_max":725,"o":"m 725 3 q 640 -15 694 -15 q 567 10 594 -15 q 540 94 540 36 q 427 10 492 36 q 288 -15 363 -15 q 195 -4 239 -15 q 119 31 151 7 q 69 92 88 54 q 50 185 50 131 q 71 285 50 246 q 126 348 92 324 q 203 385 160 372 q 293 406 247 397 q 385 420 342 415 q 463 434 429 425 q 515 460 496 443 q 535 511 535 478 q 520 574 535 550 q 483 610 506 597 q 431 626 460 622 q 375 631 403 631 q 250 602 300 631 q 196 494 200 574 l 78 494 q 106 607 81 561 q 172 681 131 653 q 267 722 214 710 q 382 735 321 735 q 478 728 431 735 q 565 699 526 721 q 628 639 604 678 q 651 538 651 600 l 651 168 q 656 107 651 126 q 689 88 661 88 q 725 94 704 88 l 725 3 m 533 371 q 475 347 511 354 q 399 334 439 339 q 319 323 360 329 q 247 303 279 317 q 195 263 215 289 q 175 193 175 238 q 187 144 175 164 q 217 111 199 124 q 261 93 236 99 q 314 88 286 88 q 414 103 372 88 q 482 144 456 119 q 521 197 508 168 q 533 250 533 225 l 533 371 m 438 1043 l 582 844 l 465 844 l 369 978 l 272 844 l 167 844 l 308 1043 l 438 1043 z "},"ã":{"ha":746,"x_min":50,"x_max":725,"o":"m 725 3 q 640 -15 694 -15 q 567 10 594 -15 q 540 94 540 36 q 427 10 492 36 q 288 -15 363 -15 q 195 -4 239 -15 q 119 31 151 7 q 69 92 88 54 q 50 185 50 131 q 71 285 50 246 q 126 348 92 324 q 203 385 160 372 q 293 406 247 397 q 385 420 342 415 q 463 434 429 425 q 515 460 496 443 q 535 511 535 478 q 520 574 535 550 q 483 610 506 597 q 431 626 460 622 q 375 631 403 631 q 250 602 300 631 q 196 494 200 574 l 78 494 q 106 607 81 561 q 172 681 131 653 q 267 722 214 710 q 382 735 321 735 q 478 728 431 735 q 565 699 526 721 q 628 639 604 678 q 651 538 651 600 l 651 168 q 656 107 651 126 q 689 88 661 88 q 725 94 704 88 l 725 3 m 533 371 q 475 347 511 354 q 399 334 439 339 q 319 323 360 329 q 247 303 279 317 q 195 263 215 289 q 175 193 175 238 q 187 144 175 164 q 217 111 199 124 q 261 93 236 99 q 314 88 286 88 q 414 103 372 88 q 482 144 456 119 q 521 197 508 168 q 533 250 533 225 l 533 371 m 485 949 q 533 969 515 949 q 554 1025 550 989 l 622 1025 q 570 892 608 928 q 478 857 532 857 q 425 868 450 857 q 375 893 400 879 q 326 918 350 907 q 276 929 301 929 q 200 858 213 929 l 135 858 q 184 982 149 943 q 278 1021 219 1021 q 332 1010 306 1021 q 383 985 358 999 q 434 960 408 971 q 485 949 460 949 z "},"ä":{"ha":746,"x_min":50,"x_max":725,"o":"m 181 967 l 181 822 l 306 822 l 306 967 l 181 967 m 442 967 l 442 822 l 567 822 l 567 967 l 442 967 m 725 3 l 725 94 q 689 88 704 88 q 656 107 661 88 q 651 168 651 126 l 651 538 q 628 639 651 600 q 565 699 604 678 q 478 728 526 721 q 382 735 431 735 q 268 722 322 735 q 172 681 214 710 q 106 607 131 653 q 78 494 81 561 l 196 494 q 250 602 200 574 q 375 631 300 631 q 431 626 403 631 q 483 610 460 622 q 520 574 506 597 q 535 511 535 550 q 515 460 535 478 q 463 434 496 443 q 385 420 429 425 q 293 406 342 415 q 203 385 247 397 q 126 348 160 372 q 71 285 92 324 q 50 185 50 246 q 69 92 50 131 q 120 30 88 54 q 196 -5 153 6 q 288 -15 239 -15 q 427 10 363 -15 q 540 94 492 36 q 567 10 540 36 q 640 -15 594 -15 q 725 3 694 -15 m 533 371 l 533 250 q 521 197 533 225 q 482 144 508 168 q 414 103 456 119 q 314 88 372 88 q 262 93 288 88 q 217 111 236 99 q 187 144 199 124 q 175 193 175 164 q 195 263 175 238 q 247 303 215 289 q 319 323 279 317 q 399 334 360 329 q 475 347 439 339 q 533 371 511 354 z "},"å":{"ha":746,"x_min":50,"x_max":725,"o":"m 217 919 q 229 859 217 888 q 263 809 242 831 q 313 775 285 788 q 374 763 342 763 q 434 775 406 763 q 484 809 463 788 q 518 859 506 831 q 531 919 531 888 q 518 980 531 951 q 484 1030 506 1008 q 434 1064 463 1051 q 374 1076 406 1076 q 313 1064 342 1076 q 263 1030 285 1051 q 229 980 242 1008 q 217 919 217 951 m 279 919 q 306 987 279 960 q 374 1014 333 1014 q 441 987 414 1014 q 468 919 468 960 q 441 852 468 879 q 374 825 414 825 q 306 852 333 825 q 279 919 279 879 m 725 3 l 725 94 q 689 88 704 88 q 656 107 661 88 q 651 168 651 126 l 651 538 q 628 639 651 600 q 565 699 604 678 q 478 728 526 721 q 382 735 431 735 q 268 722 322 735 q 172 681 214 710 q 106 607 131 653 q 78 494 81 561 l 196 494 q 250 602 200 574 q 375 631 300 631 q 431 626 403 631 q 483 610 460 622 q 520 574 506 597 q 535 511 535 550 q 515 460 535 478 q 463 434 496 443 q 385 420 429 425 q 293 406 342 415 q 203 385 247 397 q 126 348 160 372 q 71 285 92 324 q 50 185 50 246 q 69 92 50 131 q 120 30 88 54 q 196 -5 153 6 q 288 -15 239 -15 q 427 10 363 -15 q 540 94 492 36 q 567 10 540 36 q 640 -15 594 -15 q 725 3 694 -15 m 533 371 l 533 250 q 521 197 533 225 q 482 144 508 168 q 414 103 456 119 q 314 88 372 88 q 262 93 288 88 q 217 111 236 99 q 187 144 199 124 q 175 193 175 164 q 195 263 175 238 q 247 303 215 289 q 319 323 279 317 q 399 334 360 329 q 475 347 439 339 q 533 371 511 354 z "},"æ":{"ha":1208,"x_min":50,"x_max":1175,"o":"m 649 324 l 1175 324 q 1160 482 1175 407 q 1107 613 1144 557 q 1008 702 1069 669 q 851 735 946 735 q 722 710 786 735 q 622 631 658 686 q 578 685 606 664 q 517 717 550 706 q 449 731 483 728 q 382 735 414 735 q 268 722 322 735 q 172 681 214 710 q 106 607 131 653 q 78 494 81 561 l 196 494 q 250 602 200 574 q 375 631 300 631 q 433 627 404 631 q 485 612 463 624 q 523 578 508 600 q 538 519 538 556 q 524 470 538 488 q 481 442 510 453 q 405 425 451 432 q 293 406 358 418 q 203 385 247 397 q 126 348 160 372 q 71 285 92 324 q 50 185 50 246 q 69 92 50 131 q 120 30 88 54 q 197 -5 153 6 q 293 -15 242 -15 q 474 17 393 -15 q 596 124 556 50 q 641 57 614 83 q 702 15 668 31 q 775 -8 736 -1 q 856 -15 814 -15 q 1059 47 978 -15 q 1167 226 1140 108 l 1046 226 q 980 122 1029 156 q 864 88 931 88 q 769 106 810 88 q 701 158 728 125 q 662 233 675 190 q 649 324 649 276 m 175 193 q 187 249 175 226 q 218 285 199 271 q 264 308 238 300 q 319 322 290 317 q 378 332 347 328 q 439 341 410 336 q 494 353 468 346 q 538 371 519 360 l 538 250 q 524 197 538 225 q 484 144 511 168 q 415 103 457 119 q 314 88 372 88 q 262 93 288 88 q 217 111 236 99 q 187 144 199 124 q 175 193 175 164 m 1050 428 l 649 428 q 663 509 649 472 q 703 573 676 546 q 767 615 729 600 q 851 631 804 631 q 935 615 899 631 q 997 572 972 599 q 1035 507 1022 544 q 1050 428 1049 469 z "},"ç":{"ha":746,"x_min":50,"x_max":703,"o":"m 576 488 l 699 488 q 665 598 692 551 q 598 675 639 644 q 503 720 557 706 q 389 735 450 735 q 240 705 304 735 q 134 623 176 675 q 71 501 92 571 q 50 350 50 431 q 69 210 50 274 q 126 99 89 146 q 220 22 164 51 q 350 -12 276 -7 l 276 -107 l 300 -146 q 328 -137 315 -140 q 357 -135 340 -135 q 403 -147 385 -135 q 422 -178 422 -158 q 414 -198 422 -190 q 393 -211 406 -206 q 365 -219 381 -217 q 336 -221 350 -221 q 291 -215 314 -221 q 251 -203 268 -210 l 226 -264 q 290 -283 258 -275 q 354 -290 321 -290 q 414 -284 383 -290 q 469 -263 444 -278 q 510 -225 494 -249 q 526 -167 526 -201 q 490 -90 526 -115 q 410 -65 454 -65 q 364 -75 378 -65 l 361 -72 l 407 -14 q 608 64 533 -8 q 703 263 683 136 l 582 263 q 522 133 571 179 q 385 88 472 88 q 289 110 329 88 q 224 169 249 132 q 187 253 199 206 q 175 350 175 300 q 186 455 175 404 q 223 544 197 506 q 292 607 249 583 q 399 631 335 631 q 518 593 474 631 q 576 488 563 556 z "},"è":{"ha":746,"x_min":50,"x_max":713,"o":"m 588 428 l 175 428 q 193 506 178 469 q 235 571 208 543 q 298 615 261 599 q 381 631 335 631 q 462 615 425 631 q 526 572 499 599 q 569 507 553 544 q 588 428 585 469 m 701 228 l 585 228 q 522 122 569 157 q 399 88 474 88 q 297 107 340 88 q 226 159 254 126 q 186 234 199 192 q 175 324 174 276 l 713 324 q 701 461 715 389 q 648 594 686 533 q 547 695 610 656 q 388 735 483 735 q 252 707 314 735 q 145 629 190 679 q 75 511 100 579 q 50 361 50 443 q 74 210 53 279 q 139 90 96 140 q 245 13 182 40 q 394 -15 308 -15 q 597 46 517 -15 q 701 228 678 107 m 325 1069 l 458 844 l 369 844 l 175 1069 l 325 1069 z "},"é":{"ha":746,"x_min":50,"x_max":713,"o":"m 588 428 l 175 428 q 193 506 178 469 q 235 571 208 543 q 298 615 261 599 q 381 631 335 631 q 462 615 425 631 q 526 572 499 599 q 569 507 553 544 q 588 428 585 469 m 701 228 l 585 228 q 522 122 569 157 q 399 88 474 88 q 297 107 340 88 q 226 159 254 126 q 186 234 199 192 q 175 324 174 276 l 713 324 q 701 461 715 389 q 648 594 686 533 q 547 695 610 656 q 388 735 483 735 q 252 707 314 735 q 145 629 190 679 q 75 511 100 579 q 50 361 50 443 q 74 210 53 279 q 139 90 96 140 q 245 13 182 40 q 394 -15 308 -15 q 597 46 517 -15 q 701 228 678 107 m 574 1069 l 378 844 l 289 844 l 422 1069 l 574 1069 z "},"ê":{"ha":746,"x_min":50,"x_max":713,"o":"m 588 428 l 175 428 q 193 506 178 469 q 235 571 208 543 q 298 615 261 599 q 381 631 335 631 q 462 615 425 631 q 526 572 499 599 q 569 507 553 544 q 588 428 585 469 m 701 228 l 585 228 q 522 122 569 157 q 399 88 474 88 q 297 107 340 88 q 226 159 254 126 q 186 234 199 192 q 175 324 174 276 l 713 324 q 701 461 715 389 q 648 594 686 533 q 547 695 610 656 q 388 735 483 735 q 252 707 314 735 q 145 629 190 679 q 75 511 100 579 q 50 361 50 443 q 74 210 53 279 q 139 90 96 140 q 245 13 182 40 q 394 -15 308 -15 q 597 46 517 -15 q 701 228 678 107 m 438 1043 l 582 844 l 465 844 l 369 978 l 272 844 l 167 844 l 308 1043 l 438 1043 z "},"ë":{"ha":746,"x_min":50,"x_max":713,"o":"m 181 967 l 181 822 l 306 822 l 306 967 l 181 967 m 442 967 l 442 822 l 567 822 l 567 967 l 442 967 m 588 428 l 175 428 q 193 506 178 469 q 235 571 208 543 q 298 615 261 599 q 381 631 335 631 q 462 615 425 631 q 526 572 499 599 q 569 507 553 544 q 588 428 585 469 m 701 228 l 585 228 q 522 122 569 157 q 399 88 474 88 q 297 107 340 88 q 226 159 254 126 q 186 234 199 192 q 175 324 174 276 l 713 324 q 701 461 715 389 q 648 594 686 533 q 547 695 610 656 q 388 735 483 735 q 252 707 314 735 q 145 629 190 679 q 75 511 100 579 q 50 361 50 443 q 74 210 53 279 q 139 90 96 140 q 245 13 182 40 q 394 -15 308 -15 q 597 46 517 -15 q 701 228 678 107 z "},"ì":{"ha":308,"x_min":-44,"x_max":239,"o":"m 96 0 l 214 0 l 214 718 l 96 718 l 96 0 m 106 1069 l 239 844 l 150 844 l -44 1069 l 106 1069 z "},"í":{"ha":308,"x_min":69,"x_max":354,"o":"m 96 0 l 214 0 l 214 718 l 96 718 l 96 0 m 354 1069 l 158 844 l 69 844 l 203 1069 l 354 1069 z "},"î":{"ha":308,"x_min":-53,"x_max":363,"o":"m 89 1015 l -53 817 l 53 817 l 150 950 l 246 817 l 363 817 l 218 1015 l 89 1015 m 96 0 l 214 0 l 214 718 l 96 718 l 96 0 z "},"ï":{"ha":308,"x_min":-37,"x_max":347,"o":"m -37 967 l -37 822 l 86 822 l 86 967 l -37 967 m 222 967 l 222 822 l 347 822 l 347 967 l 222 967 m 96 0 l 214 0 l 214 718 l 96 718 l 96 0 z "},"ð":{"ha":797,"x_min":50,"x_max":747,"o":"m 392 599 q 497 579 453 599 q 568 526 540 560 q 609 450 596 493 q 622 358 622 407 q 605 242 622 293 q 557 158 588 192 q 485 106 526 124 q 399 88 444 88 q 312 106 353 88 q 240 158 271 124 q 192 242 210 192 q 175 358 175 293 q 230 532 175 465 q 392 599 285 599 m 378 703 q 238 674 299 703 q 135 598 176 646 q 72 488 93 550 q 50 358 50 426 q 72 211 50 279 q 139 92 94 143 q 249 13 183 42 q 399 -15 314 -15 q 549 13 485 -15 q 658 92 614 42 q 725 211 703 143 q 747 358 747 279 q 690 652 747 518 q 506 890 632 786 l 665 964 l 617 1015 l 450 938 q 392 981 422 960 q 343 1015 363 1001 l 246 953 q 293 924 265 942 q 343 886 321 906 l 192 815 l 244 760 l 404 835 q 443 803 421 824 q 489 754 465 782 q 535 694 513 726 q 574 625 557 661 l 571 625 q 483 685 533 668 q 378 703 433 703 z "},"ñ":{"ha":772,"x_min":89,"x_max":683,"o":"m 628 988 l 556 988 q 534 947 549 967 q 492 926 519 926 q 447 935 469 926 q 400 955 424 944 q 351 974 376 965 q 297 982 325 982 q 240 969 264 982 q 200 936 217 957 q 172 888 183 915 q 151 829 160 860 l 224 829 q 244 872 221 856 q 290 888 268 888 q 334 879 310 888 q 383 861 358 871 q 433 842 408 850 q 475 833 457 833 q 541 845 515 833 q 585 876 567 857 q 628 988 619 925 m 89 718 l 89 0 l 207 0 l 207 406 q 220 495 207 454 q 260 567 233 536 q 326 614 286 597 q 419 631 365 631 q 526 592 488 631 q 565 486 565 553 l 565 0 l 683 0 l 683 472 q 672 578 683 531 q 631 661 660 626 q 554 715 601 696 q 436 735 507 735 q 203 604 276 735 l 200 604 l 200 718 l 89 718 z "},"ò":{"ha":797,"x_min":50,"x_max":747,"o":"m 175 358 q 192 474 175 424 q 240 560 210 525 q 312 613 271 594 q 399 631 353 631 q 485 613 444 631 q 557 560 526 594 q 605 474 588 525 q 622 358 622 424 q 605 242 622 293 q 557 158 588 192 q 485 106 526 124 q 399 88 444 88 q 312 106 353 88 q 240 158 271 124 q 192 242 210 192 q 175 358 175 293 m 50 358 q 72 211 50 279 q 139 92 94 143 q 249 13 183 42 q 399 -15 314 -15 q 549 13 485 -15 q 658 92 614 42 q 725 211 703 143 q 747 358 747 279 q 725 506 747 438 q 658 626 703 575 q 549 706 614 676 q 399 735 485 735 q 249 706 314 735 q 139 626 183 676 q 72 506 94 575 q 50 358 50 438 m 339 1069 l 472 844 l 383 844 l 189 1069 l 339 1069 z "},"ó":{"ha":797,"x_min":50,"x_max":747,"o":"m 175 358 q 192 474 175 424 q 240 560 210 525 q 312 613 271 594 q 399 631 353 631 q 485 613 444 631 q 557 560 526 594 q 605 474 588 525 q 622 358 622 424 q 605 242 622 293 q 557 158 588 192 q 485 106 526 124 q 399 88 444 88 q 312 106 353 88 q 240 158 271 124 q 192 242 210 192 q 175 358 175 293 m 50 358 q 72 211 50 279 q 139 92 94 143 q 249 13 183 42 q 399 -15 314 -15 q 549 13 485 -15 q 658 92 614 42 q 725 211 703 143 q 747 358 747 279 q 725 506 747 438 q 658 626 703 575 q 549 706 614 676 q 399 735 485 735 q 249 706 314 735 q 139 626 183 676 q 72 506 94 575 q 50 358 50 438 m 590 1069 l 394 844 l 306 844 l 439 1069 l 590 1069 z "},"ô":{"ha":797,"x_min":50,"x_max":747,"o":"m 175 358 q 192 474 175 424 q 240 560 210 525 q 312 613 271 594 q 399 631 353 631 q 485 613 444 631 q 557 560 526 594 q 605 474 588 525 q 622 358 622 424 q 605 242 622 293 q 557 158 588 192 q 485 106 526 124 q 399 88 444 88 q 312 106 353 88 q 240 158 271 124 q 192 242 210 192 q 175 358 175 293 m 50 358 q 72 211 50 279 q 139 92 94 143 q 249 13 183 42 q 399 -15 314 -15 q 549 13 485 -15 q 658 92 614 42 q 725 211 703 143 q 747 358 747 279 q 725 506 747 438 q 658 626 703 575 q 549 706 614 676 q 399 735 485 735 q 249 706 314 735 q 139 626 183 676 q 72 506 94 575 q 50 358 50 438 m 463 1043 l 607 844 l 490 844 l 394 978 l 297 844 l 192 844 l 333 1043 l 463 1043 z "},"õ":{"ha":797,"x_min":50,"x_max":747,"o":"m 175 358 q 192 474 175 424 q 240 560 210 525 q 312 613 271 594 q 399 631 353 631 q 485 613 444 631 q 557 560 526 594 q 605 474 588 525 q 622 358 622 424 q 605 242 622 293 q 557 158 588 192 q 485 106 526 124 q 399 88 444 88 q 312 106 353 88 q 240 158 271 124 q 192 242 210 192 q 175 358 175 293 m 50 358 q 72 211 50 279 q 139 92 94 143 q 249 13 183 42 q 399 -15 314 -15 q 549 13 485 -15 q 658 92 614 42 q 725 211 703 143 q 747 358 747 279 q 725 506 747 438 q 658 626 703 575 q 549 706 614 676 q 399 735 485 735 q 249 706 314 735 q 139 626 183 676 q 72 506 94 575 q 50 358 50 438 m 506 949 q 553 969 536 949 q 575 1025 571 989 l 643 1025 q 591 892 629 928 q 499 857 553 857 q 446 868 471 857 q 396 893 421 879 q 347 918 371 907 q 297 929 322 929 q 221 858 233 929 l 156 858 q 205 982 169 943 q 299 1021 240 1021 q 353 1010 326 1021 q 404 985 379 999 q 455 960 429 971 q 506 949 481 949 z "},"ö":{"ha":797,"x_min":50,"x_max":747,"o":"m 206 967 l 206 822 l 331 822 l 331 967 l 206 967 m 467 967 l 467 822 l 592 822 l 592 967 l 467 967 m 175 358 q 192 474 175 424 q 240 560 210 525 q 312 613 271 594 q 399 631 353 631 q 485 613 444 631 q 557 560 526 594 q 605 474 588 525 q 622 358 622 424 q 605 242 622 293 q 557 158 588 192 q 485 106 526 124 q 399 88 444 88 q 312 106 353 88 q 240 158 271 124 q 192 242 210 192 q 175 358 175 293 m 50 358 q 72 211 50 279 q 139 92 94 143 q 249 13 183 42 q 399 -15 314 -15 q 549 13 485 -15 q 658 92 614 42 q 725 211 703 143 q 747 358 747 279 q 725 506 747 438 q 658 626 703 575 q 549 706 614 676 q 399 735 485 735 q 249 706 314 735 q 139 626 183 676 q 72 506 94 575 q 50 358 50 438 z "},"÷":{"ha":833,"x_min":67,"x_max":767,"o":"m 328 65 q 355 3 328 29 q 418 -22 382 -22 q 479 5 453 -22 q 506 65 506 32 q 479 128 506 101 q 417 154 453 154 q 354 128 381 154 q 328 65 328 101 m 328 638 q 355 575 328 601 q 418 549 382 549 q 479 576 453 549 q 506 638 506 604 q 479 700 506 674 q 417 726 453 726 q 354 700 381 726 q 328 638 328 674 m 67 399 l 67 304 l 767 304 l 767 399 l 67 399 z "},"ø":{"ha":797,"x_min":47,"x_max":750,"o":"m 667 615 l 750 707 l 713 743 l 632 653 q 531 714 588 693 q 399 735 474 735 q 249 706 314 735 q 139 626 183 676 q 72 506 94 575 q 50 358 50 438 q 71 216 50 282 q 133 99 92 150 l 47 3 l 86 -29 l 169 63 q 269 5 213 25 q 399 -15 326 -15 q 549 13 485 -15 q 658 92 614 42 q 725 211 703 143 q 747 358 747 279 q 727 501 747 435 q 667 615 707 567 m 247 150 l 583 524 q 612 451 601 492 q 622 358 622 410 q 605 242 622 293 q 557 158 588 192 q 485 106 526 124 q 399 88 444 88 q 247 150 310 88 m 553 565 l 217 190 q 186 267 197 225 q 175 358 175 308 q 192 474 175 424 q 240 560 210 525 q 312 613 271 594 q 399 631 353 631 q 553 565 492 631 z "},"ù":{"ha":772,"x_min":89,"x_max":683,"o":"m 683 0 l 683 718 l 565 718 l 565 313 q 552 223 565 264 q 513 151 539 182 q 447 104 486 121 q 353 88 407 88 q 246 126 285 88 q 207 232 207 165 l 207 718 l 89 718 l 89 246 q 101 140 89 188 q 142 57 113 92 q 218 3 171 22 q 336 -15 265 -15 q 474 16 415 -15 q 569 114 532 47 l 572 114 l 572 0 l 683 0 m 338 1069 l 471 844 l 382 844 l 188 1069 l 338 1069 z "},"ú":{"ha":772,"x_min":89,"x_max":683,"o":"m 683 0 l 683 718 l 565 718 l 565 313 q 552 223 565 264 q 513 151 539 182 q 447 104 486 121 q 353 88 407 88 q 246 126 285 88 q 207 232 207 165 l 207 718 l 89 718 l 89 246 q 101 140 89 188 q 142 57 113 92 q 218 3 171 22 q 336 -15 265 -15 q 474 16 415 -15 q 569 114 532 47 l 572 114 l 572 0 l 683 0 m 594 1069 l 399 844 l 310 844 l 443 1069 l 594 1069 z "},"û":{"ha":772,"x_min":89,"x_max":683,"o":"m 321 1015 l 178 817 l 285 817 l 382 950 l 478 817 l 594 817 l 450 1015 l 321 1015 m 683 0 l 683 718 l 565 718 l 565 313 q 552 223 565 264 q 513 151 539 182 q 447 104 486 121 q 353 88 407 88 q 246 126 285 88 q 207 232 207 165 l 207 718 l 89 718 l 89 246 q 101 140 89 188 q 142 57 113 92 q 218 3 171 22 q 336 -15 265 -15 q 474 16 415 -15 q 569 114 532 47 l 572 114 l 572 0 l 683 0 z "},"ü":{"ha":772,"x_min":89,"x_max":683,"o":"m 193 967 l 193 822 l 318 822 l 318 967 l 193 967 m 454 967 l 454 822 l 579 822 l 579 967 l 454 967 m 683 0 l 683 718 l 565 718 l 565 313 q 552 223 565 264 q 513 151 539 182 q 447 104 486 121 q 353 88 407 88 q 246 126 285 88 q 207 232 207 165 l 207 718 l 89 718 l 89 246 q 101 140 89 188 q 142 57 113 92 q 218 3 171 22 q 336 -15 265 -15 q 474 16 415 -15 q 569 114 532 47 l 572 114 l 572 0 l 683 0 z "},"ý":{"ha":694,"x_min":11,"x_max":683,"o":"m 371 -96 q 330 -185 350 -149 q 285 -244 310 -221 q 231 -277 261 -267 q 163 -287 201 -287 q 121 -285 142 -287 q 81 -275 100 -282 l 81 -167 q 116 -178 96 -174 q 150 -183 136 -183 q 210 -166 186 -183 q 247 -117 235 -149 l 296 4 l 11 718 l 144 718 l 354 131 l 357 131 l 558 718 l 683 718 l 371 -96 m 574 1069 l 378 844 l 289 844 l 422 1069 l 574 1069 z "},"þ":{"ha":824,"x_min":93,"x_max":774,"o":"m 211 621 l 211 992 l 93 992 l 93 -274 l 211 -274 l 211 96 l 214 96 q 262 42 233 64 q 322 8 290 21 q 387 -10 354 -4 q 446 -15 419 -15 q 590 14 528 -15 q 692 94 651 43 q 753 213 733 144 q 774 357 774 281 q 753 501 774 433 q 691 622 732 569 q 588 704 650 674 q 443 735 526 735 q 306 708 368 735 q 214 621 243 681 l 211 621 m 649 365 q 638 263 649 313 q 601 174 626 213 q 535 111 576 135 q 433 88 494 88 q 329 110 372 88 q 259 171 286 133 q 219 258 232 208 q 207 360 207 307 q 219 458 207 410 q 257 545 231 507 q 325 607 283 583 q 426 631 367 631 q 526 608 483 631 q 595 549 568 586 q 635 463 622 511 q 649 365 649 415 z "},"ÿ":{"ha":694,"x_min":11,"x_max":683,"o":"m 154 967 l 154 822 l 279 822 l 279 967 l 154 967 m 415 967 l 415 822 l 540 822 l 540 967 l 415 967 m 371 -94 l 683 718 l 558 718 l 357 131 l 354 131 l 144 718 l 11 718 l 296 4 l 247 -117 q 208 -165 231 -149 q 150 -182 186 -182 q 115 -176 132 -182 q 81 -165 97 -171 l 81 -274 q 121 -283 100 -281 q 163 -286 142 -286 q 232 -276 203 -286 q 285 -242 261 -265 q 330 -183 310 -219 q 371 -94 350 -147 z "},"Ā":{"ha":900,"x_min":-10,"x_max":911,"o":"m 378 992 l 524 992 l 911 0 l 765 0 l 657 299 l 238 299 l 126 0 l -10 0 l 378 992 m 615 410 l 450 872 l 447 872 l 279 410 l 615 410 m 215 1211 l 689 1211 l 689 1135 l 215 1135 l 215 1211 z "},"ā":{"ha":746,"x_min":50,"x_max":725,"o":"m 725 3 q 640 -17 693 -17 q 567 10 594 -17 q 540 94 540 36 q 427 10 492 36 q 288 -17 363 -17 q 195 -6 239 -17 q 119 30 151 6 q 69 92 88 54 q 50 185 50 131 q 71 285 50 246 q 126 348 92 324 q 203 385 160 372 q 293 406 247 397 q 385 420 342 415 q 463 434 429 425 q 515 460 496 443 q 535 511 535 478 q 520 574 535 550 q 483 610 506 597 q 431 626 460 622 q 375 631 403 631 q 250 602 300 631 q 196 494 200 574 l 78 494 q 106 607 81 561 q 172 681 131 653 q 267 722 214 710 q 382 735 321 735 q 478 728 431 735 q 565 699 526 721 q 628 639 604 678 q 651 538 651 600 l 651 168 q 656 107 651 126 q 689 88 661 88 q 725 94 704 88 l 725 3 m 533 371 q 475 347 511 354 q 399 334 439 339 q 319 323 360 329 q 247 303 279 317 q 195 263 215 289 q 175 193 175 238 q 187 144 175 164 q 217 111 199 124 q 261 93 236 99 q 314 88 286 88 q 414 103 372 88 q 482 144 456 119 q 521 197 508 168 q 533 250 533 225 l 533 371 m 142 947 l 615 947 l 615 871 l 142 871 l 142 947 z "},"Ă":{"ha":900,"x_min":-8,"x_max":911,"o":"m 279 410 l 447 872 l 450 872 l 615 410 l 279 410 m 378 992 l -8 0 l 126 0 l 238 299 l 657 299 l 765 0 l 911 0 l 524 992 l 378 992 m 304 1290 q 356 1199 319 1229 q 460 1169 392 1169 q 551 1203 522 1169 q 597 1290 581 1236 l 668 1290 q 597 1139 653 1193 q 449 1085 540 1085 q 301 1136 353 1085 q 235 1290 249 1188 l 304 1290 z "},"ă":{"ha":746,"x_min":50,"x_max":725,"o":"m 725 3 q 640 -15 694 -15 q 567 10 594 -15 q 540 94 540 36 q 427 10 492 36 q 288 -15 363 -15 q 195 -4 239 -15 q 119 31 151 7 q 69 92 88 54 q 50 185 50 131 q 71 285 50 246 q 126 348 92 324 q 203 385 160 372 q 293 406 247 397 q 385 420 342 415 q 463 434 429 425 q 515 460 496 443 q 535 511 535 478 q 520 574 535 550 q 483 610 506 597 q 431 626 460 622 q 375 631 403 631 q 250 602 300 631 q 196 494 200 574 l 78 494 q 106 607 81 561 q 172 681 131 653 q 267 722 214 710 q 382 735 321 735 q 478 728 431 735 q 565 699 526 721 q 628 639 604 678 q 651 538 651 600 l 651 168 q 656 107 651 126 q 689 88 661 88 q 725 94 704 88 l 725 3 m 533 371 q 475 347 511 354 q 399 334 439 339 q 319 323 360 329 q 247 303 279 317 q 195 263 215 289 q 175 193 175 238 q 187 144 175 164 q 217 111 199 124 q 261 93 236 99 q 314 88 286 88 q 414 103 372 88 q 482 144 456 119 q 521 197 508 168 q 533 250 533 225 l 533 371 m 240 1050 q 292 959 256 989 q 396 929 328 929 q 488 963 458 929 q 533 1050 517 996 l 604 1050 q 533 899 589 953 q 385 844 476 844 q 237 896 289 844 q 171 1050 185 947 l 240 1050 z "},"Ą":{"ha":900,"x_min":-8,"x_max":911,"o":"m 657 299 l 238 299 l 126 0 l -8 0 l 378 992 l 524 992 l 911 0 l 822 0 q 765 -52 788 -29 q 731 -95 743 -75 q 713 -132 718 -115 q 708 -162 708 -149 q 722 -203 708 -185 q 767 -222 735 -222 q 813 -217 788 -222 q 854 -203 839 -211 l 857 -256 q 806 -282 838 -274 q 742 -290 774 -290 q 648 -262 682 -290 q 614 -186 614 -235 q 652 -90 614 -135 q 765 0 690 -46 l 657 299 m 615 410 l 450 872 l 447 872 l 279 410 l 615 410 z "},"ą":{"ha":746,"x_min":50,"x_max":725,"o":"m 725 3 q 708 -5 717 -1 q 689 -11 700 -8 q 633 -35 660 -19 q 586 -72 607 -51 q 553 -116 565 -93 q 542 -162 542 -139 q 555 -203 542 -185 q 600 -222 568 -222 q 647 -217 621 -222 q 688 -203 672 -211 l 690 -256 q 639 -282 671 -274 q 575 -290 607 -290 q 481 -262 515 -290 q 447 -186 447 -235 q 490 -87 447 -135 q 596 -7 532 -40 q 540 94 540 13 q 427 10 492 36 q 288 -15 363 -15 q 195 -4 239 -15 q 119 31 151 7 q 69 92 88 54 q 50 185 50 131 q 71 285 50 246 q 126 348 92 324 q 203 385 160 372 q 293 406 247 397 q 385 420 342 415 q 463 434 429 425 q 515 460 496 443 q 535 511 535 478 q 520 574 535 550 q 483 610 506 597 q 431 626 460 622 q 375 631 403 631 q 250 602 300 631 q 196 494 200 574 l 78 494 q 106 607 81 561 q 172 681 131 653 q 267 722 214 710 q 382 735 321 735 q 478 728 431 735 q 565 699 526 721 q 628 639 604 678 q 651 538 651 600 l 651 168 q 656 107 651 126 q 689 88 661 88 q 725 94 704 88 l 725 3 m 533 371 q 475 347 511 354 q 399 334 439 339 q 319 323 360 329 q 247 303 279 317 q 195 263 215 289 q 175 193 175 238 q 187 144 175 164 q 217 111 199 124 q 261 93 236 99 q 314 88 286 88 q 414 103 372 88 q 482 144 456 119 q 521 197 508 168 q 533 250 533 225 l 533 371 z "},"Ć":{"ha":1003,"x_min":60,"x_max":947,"o":"m 806 693 l 938 693 q 890 833 926 772 q 800 933 854 893 q 676 994 746 974 q 529 1015 607 1015 q 327 974 415 1015 q 180 863 239 933 q 90 697 121 792 q 60 493 60 601 q 88 290 60 385 q 174 126 117 196 q 317 17 231 57 q 518 -22 403 -22 q 818 82 708 -22 q 947 374 928 186 l 815 374 q 790 260 811 313 q 733 169 769 207 q 645 109 696 131 q 529 88 594 88 q 376 121 440 88 q 272 210 313 154 q 211 342 231 267 q 192 503 192 418 q 211 653 192 581 q 272 781 231 725 q 376 871 313 838 q 528 904 439 904 q 708 851 632 904 q 806 693 783 799 m 706 1288 l 510 1063 l 421 1063 l 554 1288 l 706 1288 z "},"ć":{"ha":746,"x_min":50,"x_max":703,"o":"m 576 488 l 699 488 q 665 598 692 551 q 598 675 639 644 q 503 720 557 706 q 389 735 450 735 q 240 705 304 735 q 134 623 176 675 q 71 501 92 571 q 50 350 50 431 q 72 202 50 269 q 135 86 93 135 q 241 11 178 38 q 386 -15 304 -15 q 603 57 524 -15 q 703 263 683 129 l 582 263 q 522 133 571 179 q 385 88 472 88 q 289 110 329 88 q 224 169 249 132 q 187 253 199 206 q 175 350 175 300 q 186 455 175 404 q 223 544 197 506 q 292 607 249 583 q 399 631 335 631 q 518 593 474 631 q 576 488 563 556 m 589 1069 l 393 844 l 304 844 l 438 1069 l 589 1069 z "},"Ĉ":{"ha":1003,"x_min":60,"x_max":947,"o":"m 60 493 q 90 697 60 601 q 180 863 121 792 q 326 974 239 933 q 529 1015 414 1015 q 676 994 607 1015 q 800 933 746 974 q 890 833 854 893 q 938 693 926 772 l 806 693 q 708 851 783 799 q 528 904 632 904 q 376 871 439 904 q 272 781 313 838 q 211 653 231 725 q 192 503 192 581 q 211 342 192 418 q 272 210 231 267 q 376 121 313 154 q 529 88 440 88 q 644 109 593 88 q 733 169 696 131 q 790 260 769 207 q 815 374 811 313 l 947 374 q 818 81 928 186 q 518 -24 708 -24 q 317 17 403 -24 q 174 126 231 57 q 88 290 117 196 q 60 493 60 385 m 464 1281 l 593 1281 l 738 1082 l 621 1082 l 525 1215 l 428 1082 l 321 1082 l 464 1281 z "},"ĉ":{"ha":746,"x_min":50,"x_max":703,"o":"m 576 488 q 518 593 563 556 q 399 631 474 631 q 292 607 335 631 q 223 544 249 583 q 186 455 197 506 q 175 350 175 404 q 187 253 175 300 q 224 169 199 206 q 288 110 249 132 q 385 88 328 88 q 522 133 472 88 q 582 263 571 179 l 703 263 q 603 56 683 129 q 386 -17 524 -17 q 241 10 304 -17 q 135 86 178 38 q 72 202 93 135 q 50 350 50 269 q 71 501 50 431 q 134 623 92 571 q 240 705 176 675 q 389 735 303 735 q 503 720 450 735 q 598 675 557 706 q 665 598 639 644 q 699 488 692 551 l 576 488 m 331 1017 l 460 1017 l 604 818 l 488 818 l 392 951 l 294 818 l 188 818 l 331 1017 z "},"Ċ":{"ha":1003,"x_min":60,"x_max":947,"o":"m 60 493 q 90 697 60 601 q 180 863 121 792 q 326 974 239 933 q 529 1015 414 1015 q 676 994 607 1015 q 800 933 746 974 q 890 833 854 893 q 938 693 926 772 l 806 693 q 708 851 783 799 q 528 904 632 904 q 376 871 439 904 q 272 781 313 838 q 211 653 231 725 q 192 503 192 581 q 211 342 192 418 q 272 210 231 267 q 376 121 313 154 q 529 88 440 88 q 644 109 593 88 q 733 169 696 131 q 790 260 769 207 q 815 374 811 313 l 947 374 q 818 81 928 186 q 518 -24 708 -24 q 317 17 403 -24 q 174 126 231 57 q 88 290 117 196 q 60 493 60 385 m 590 1101 l 465 1101 l 465 1246 l 590 1246 l 590 1101 z "},"ċ":{"ha":746,"x_min":50,"x_max":703,"o":"m 576 488 q 518 593 563 556 q 399 631 474 631 q 292 607 335 631 q 223 544 249 583 q 186 455 197 506 q 175 350 175 404 q 187 253 175 300 q 224 169 199 206 q 288 110 249 132 q 385 88 328 88 q 522 133 472 88 q 582 263 571 179 l 703 263 q 603 56 683 129 q 386 -17 524 -17 q 241 10 304 -17 q 135 86 178 38 q 72 202 93 135 q 50 350 50 269 q 71 501 50 431 q 134 623 92 571 q 240 705 176 675 q 389 735 303 735 q 503 720 450 735 q 598 675 557 706 q 665 598 639 644 q 699 488 692 551 l 576 488 m 457 839 l 332 839 l 332 983 l 457 983 l 457 839 z "},"Č":{"ha":1003,"x_min":60,"x_max":947,"o":"m 60 493 q 90 697 60 601 q 180 863 121 792 q 326 974 239 933 q 529 1015 414 1015 q 676 994 607 1015 q 800 933 746 974 q 890 833 854 893 q 938 693 926 772 l 806 693 q 708 851 783 799 q 528 904 632 904 q 376 871 439 904 q 272 781 313 838 q 211 653 231 725 q 192 503 192 581 q 211 342 192 418 q 272 210 231 267 q 376 121 313 154 q 529 88 440 88 q 644 109 593 88 q 733 169 696 131 q 790 260 769 207 q 815 374 811 313 l 947 374 q 818 81 928 186 q 518 -24 708 -24 q 317 17 403 -24 q 174 126 231 57 q 88 290 117 196 q 60 493 60 385 m 593 1082 l 464 1082 l 319 1281 l 436 1281 l 532 1147 l 629 1281 l 736 1281 l 593 1082 z "},"č":{"ha":746,"x_min":50,"x_max":703,"o":"m 576 488 q 518 593 563 556 q 399 631 474 631 q 292 607 335 631 q 223 544 249 583 q 186 455 197 506 q 175 350 175 404 q 187 253 175 300 q 224 169 199 206 q 288 110 249 132 q 385 88 328 88 q 522 133 472 88 q 582 263 571 179 l 703 263 q 603 56 683 129 q 386 -17 524 -17 q 241 10 304 -17 q 135 86 178 38 q 72 202 93 135 q 50 350 50 269 q 71 501 50 431 q 134 623 92 571 q 240 705 176 675 q 389 735 303 735 q 503 720 450 735 q 598 675 557 706 q 665 598 639 644 q 699 488 692 551 l 576 488 m 454 818 l 325 818 l 181 1017 l 297 1017 l 393 883 l 490 1017 l 597 1017 l 454 818 z "},"Ď":{"ha":978,"x_min":108,"x_max":925,"o":"m 108 992 l 449 992 q 801 875 678 992 q 925 519 925 758 q 897 298 925 394 q 811 135 869 201 q 663 35 753 69 q 449 0 572 0 l 108 0 l 108 992 m 460 111 q 515 115 482 111 q 586 131 549 118 q 660 169 624 144 q 726 238 697 194 q 774 345 756 281 q 793 501 793 410 q 776 660 793 590 q 719 779 758 731 q 617 854 679 828 q 463 881 554 881 l 240 881 l 240 111 l 460 111 m 503 1082 l 374 1082 l 229 1281 l 346 1281 l 442 1147 l 539 1281 l 646 1281 l 503 1082 z "},"ď":{"ha":824,"x_min":50,"x_max":988,"o":"m 731 0 l 613 0 l 613 97 l 610 97 q 518 10 581 38 q 381 -17 456 -17 q 235 14 297 -17 q 133 97 174 44 q 71 217 92 149 q 50 361 50 285 q 70 505 50 438 q 131 624 90 572 q 234 705 172 675 q 378 735 296 735 q 437 729 404 735 q 501 710 469 724 q 562 676 533 697 q 610 622 590 654 l 613 622 l 613 992 l 731 992 l 731 0 m 175 353 q 188 255 175 303 q 228 169 201 207 q 298 110 256 132 q 397 88 340 88 q 499 111 457 88 q 567 173 540 135 q 605 260 593 211 q 617 358 617 308 q 604 460 617 411 q 565 547 592 510 q 494 608 538 585 q 390 631 451 631 q 288 607 329 631 q 222 544 247 583 q 186 456 197 506 q 175 353 175 406 m 836 992 l 988 992 l 883 793 l 800 793 l 836 992 z "},"Đ":{"ha":978,"x_min":11,"x_max":925,"o":"m 108 474 l 11 474 l 11 563 l 108 563 l 108 992 l 449 992 q 801 875 678 992 q 925 519 925 758 q 897 298 925 394 q 811 135 869 201 q 663 35 753 69 q 449 0 572 0 l 108 0 l 108 474 m 240 563 l 538 563 l 538 474 l 240 474 l 240 111 l 460 111 q 515 115 482 111 q 586 131 549 118 q 660 169 624 144 q 726 238 697 194 q 774 345 756 281 q 793 501 793 410 q 776 660 793 590 q 719 779 758 731 q 617 854 679 828 q 463 881 554 881 l 240 881 l 240 563 z "},"đ":{"ha":831,"x_min":50,"x_max":850,"o":"m 376 883 l 613 883 l 613 992 l 731 992 l 731 883 l 850 883 l 850 810 l 731 810 l 731 0 l 613 0 l 613 97 l 610 97 q 518 10 581 38 q 381 -17 456 -17 q 235 14 297 -17 q 133 97 174 44 q 71 217 92 149 q 50 361 50 285 q 70 505 50 438 q 131 624 90 572 q 234 705 172 675 q 378 735 296 735 q 437 729 404 735 q 501 710 469 724 q 562 676 533 697 q 610 622 590 654 l 613 622 l 613 810 l 376 810 l 376 883 m 175 353 q 188 255 175 303 q 228 169 201 207 q 298 110 256 132 q 397 88 340 88 q 499 111 457 88 q 567 173 540 135 q 605 260 593 211 q 617 358 617 308 q 604 460 617 411 q 565 547 592 510 q 494 608 538 585 q 390 631 451 631 q 288 607 329 631 q 222 544 247 583 q 186 456 197 506 q 175 353 175 406 z "},"Ē":{"ha":849,"x_min":108,"x_max":797,"o":"m 108 992 l 793 992 l 793 881 l 240 881 l 240 565 l 756 565 l 756 454 l 240 454 l 240 111 l 797 111 l 797 0 l 108 0 l 108 992 m 207 1211 l 681 1211 l 681 1135 l 207 1135 l 207 1211 z "},"ē":{"ha":746,"x_min":50,"x_max":713,"o":"m 701 228 q 597 45 678 107 q 394 -17 517 -17 q 245 12 308 -17 q 139 90 182 40 q 74 210 96 140 q 50 361 53 279 q 75 510 50 442 q 145 629 100 579 q 252 707 190 679 q 388 735 314 735 q 547 695 483 735 q 648 594 610 656 q 701 461 686 533 q 713 324 715 389 l 175 324 q 186 234 174 276 q 226 159 199 192 q 297 107 254 126 q 399 88 340 88 q 522 122 474 88 q 585 228 569 157 l 701 228 m 588 428 q 569 507 585 469 q 526 572 553 544 q 462 615 499 599 q 381 631 425 631 q 298 615 335 631 q 235 571 261 599 q 193 506 208 543 q 175 428 178 469 l 588 428 m 154 947 l 628 947 l 628 871 l 154 871 l 154 947 z "},"Ĕ":{"ha":849,"x_min":108,"x_max":797,"o":"m 108 992 l 793 992 l 793 881 l 240 881 l 240 565 l 756 565 l 756 454 l 240 454 l 240 111 l 797 111 l 797 0 l 108 0 l 108 992 m 296 1276 q 451 1161 329 1161 q 540 1192 511 1161 q 589 1276 568 1224 l 660 1276 q 588 1136 644 1188 q 440 1085 532 1085 q 292 1134 344 1085 q 226 1276 240 1183 l 296 1276 z "},"ĕ":{"ha":746,"x_min":50,"x_max":713,"o":"m 701 228 q 597 45 678 107 q 394 -17 517 -17 q 245 12 308 -17 q 139 90 182 40 q 74 210 96 140 q 50 361 53 279 q 75 510 50 442 q 145 629 100 579 q 252 707 190 679 q 388 735 314 735 q 547 695 483 735 q 648 594 610 656 q 701 461 686 533 q 713 324 715 389 l 175 324 q 186 234 174 276 q 226 159 199 192 q 297 107 254 126 q 399 88 340 88 q 522 122 474 88 q 585 228 569 157 l 701 228 m 588 428 q 569 507 585 469 q 526 572 553 544 q 462 615 499 599 q 381 631 425 631 q 298 615 335 631 q 235 571 261 599 q 193 506 208 543 q 175 428 178 469 l 588 428 m 243 1013 q 399 897 276 897 q 487 928 458 897 q 536 1013 515 960 l 607 1013 q 535 872 592 924 q 388 821 479 821 q 240 870 292 821 q 174 1013 188 919 l 243 1013 z "},"Ė":{"ha":849,"x_min":108,"x_max":797,"o":"m 108 992 l 793 992 l 793 881 l 240 881 l 240 565 l 756 565 l 756 454 l 240 454 l 240 111 l 797 111 l 797 0 l 108 0 l 108 992 m 506 1101 l 381 1101 l 381 1246 l 506 1246 l 506 1101 z "},"ė":{"ha":746,"x_min":50,"x_max":713,"o":"m 701 228 q 597 45 678 107 q 394 -17 517 -17 q 245 12 308 -17 q 139 90 182 40 q 74 210 96 140 q 50 361 53 279 q 75 510 50 442 q 145 629 100 579 q 252 707 190 679 q 388 735 314 735 q 547 695 483 735 q 648 594 610 656 q 701 461 686 533 q 713 324 715 389 l 175 324 q 186 234 174 276 q 226 159 199 192 q 297 107 254 126 q 399 88 340 88 q 522 122 474 88 q 585 228 569 157 l 701 228 m 588 428 q 569 507 585 469 q 526 572 553 544 q 462 615 499 599 q 381 631 425 631 q 298 615 335 631 q 235 571 261 599 q 193 506 208 543 q 175 428 178 469 l 588 428 m 453 839 l 328 839 l 328 983 l 453 983 l 453 839 z "},"Ę":{"ha":849,"x_min":108,"x_max":797,"o":"m 768 0 q 733 -15 756 0 q 686 -52 710 -29 q 645 -104 663 -75 q 628 -162 628 -133 q 641 -203 628 -185 q 686 -222 654 -222 q 733 -217 707 -222 q 774 -203 758 -211 l 776 -256 q 725 -282 757 -274 q 661 -290 693 -290 q 567 -262 601 -290 q 533 -186 533 -235 q 572 -90 533 -135 q 685 0 610 -46 l 108 0 l 108 992 l 793 992 l 793 881 l 240 881 l 240 565 l 756 565 l 756 454 l 240 454 l 240 111 l 797 111 l 797 0 l 768 0 z "},"ę":{"ha":746,"x_min":50,"x_max":713,"o":"m 701 228 q 655 108 686 157 q 568 26 624 58 q 488 -29 518 -3 q 442 -80 458 -56 q 419 -125 425 -104 q 414 -162 414 -146 q 427 -203 414 -185 q 472 -222 440 -222 q 519 -217 493 -222 q 560 -203 544 -211 l 563 -256 q 511 -282 543 -274 q 447 -290 479 -290 q 353 -262 388 -290 q 319 -186 319 -235 q 353 -96 319 -137 q 453 -11 386 -54 q 394 -15 424 -15 q 245 13 308 -15 q 139 90 182 40 q 74 210 96 140 q 50 361 53 279 q 75 510 50 442 q 145 629 100 579 q 252 707 190 679 q 388 735 314 735 q 547 695 483 735 q 648 594 610 656 q 701 461 686 533 q 713 324 715 389 l 175 324 q 186 234 174 276 q 226 159 199 192 q 297 107 254 126 q 399 88 340 88 q 522 122 474 88 q 585 228 569 157 l 701 228 m 588 428 q 569 507 585 469 q 526 572 553 544 q 462 615 499 599 q 381 631 425 631 q 298 615 335 631 q 235 571 261 599 q 193 506 208 543 q 175 428 178 469 l 588 428 z "},"Ě":{"ha":849,"x_min":108,"x_max":797,"o":"m 108 992 l 793 992 l 793 881 l 240 881 l 240 565 l 756 565 l 756 454 l 240 454 l 240 111 l 797 111 l 797 0 l 108 0 l 108 992 m 508 1082 l 379 1082 l 235 1281 l 351 1281 l 447 1147 l 544 1281 l 651 1281 l 508 1082 z "},"ě":{"ha":746,"x_min":50,"x_max":713,"o":"m 588 428 l 175 428 q 193 506 178 469 q 235 571 208 543 q 298 615 261 599 q 381 631 335 631 q 462 615 425 631 q 526 572 499 599 q 569 507 553 544 q 588 428 585 469 m 701 228 l 585 228 q 522 122 569 157 q 399 88 474 88 q 297 107 340 88 q 226 159 254 126 q 186 234 199 192 q 175 324 174 276 l 713 324 q 701 461 715 389 q 648 594 686 533 q 547 695 610 656 q 388 735 483 735 q 252 707 314 735 q 145 629 190 679 q 75 511 100 579 q 50 361 50 443 q 74 210 53 279 q 139 90 96 140 q 245 13 182 40 q 394 -15 308 -15 q 597 46 517 -15 q 701 228 678 107 m 322 844 l 179 1043 l 294 1043 l 390 906 l 488 1043 l 594 1043 l 451 844 l 322 844 z "},"Ĝ":{"ha":1054,"x_min":60,"x_max":968,"o":"m 60 476 q 90 683 60 585 q 178 854 119 781 q 326 972 238 928 q 532 1015 414 1015 q 684 997 613 1015 q 812 938 756 978 q 906 835 868 897 q 958 686 944 774 l 826 686 q 790 783 817 742 q 725 851 764 825 q 637 891 686 878 q 532 904 588 904 q 377 868 442 904 q 272 773 313 832 q 211 638 231 714 q 192 483 192 563 q 214 334 192 406 q 279 208 236 263 q 385 120 322 153 q 532 88 449 88 q 669 113 608 88 q 770 181 729 138 q 832 284 811 225 q 850 411 853 343 l 533 411 l 533 522 l 968 522 l 968 0 l 885 0 l 850 124 q 784 57 821 85 q 706 11 747 29 q 619 -15 664 -7 q 532 -24 575 -24 q 333 18 421 -24 q 185 129 246 60 q 92 289 124 199 q 60 476 60 379 m 472 1281 l 601 1281 l 746 1082 l 629 1082 l 533 1215 l 436 1082 l 329 1082 l 472 1281 z "},"ĝ":{"ha":797,"x_min":50,"x_max":708,"o":"m 708 61 q 628 -204 708 -117 q 375 -292 547 -292 q 273 -281 325 -292 q 178 -244 221 -269 q 108 -179 136 -219 q 78 -81 81 -139 l 196 -81 q 216 -135 197 -112 q 262 -171 235 -157 q 321 -191 289 -185 q 382 -197 353 -197 q 481 -177 440 -197 q 547 -122 521 -157 q 585 -36 574 -86 q 597 75 597 14 l 597 122 l 594 122 q 502 24 564 56 q 371 -8 440 -8 q 231 21 290 -8 q 131 100 171 50 q 70 216 90 150 q 50 356 50 282 q 67 486 50 419 q 122 608 83 553 q 224 699 161 664 q 382 735 288 735 q 507 705 450 735 q 596 615 564 675 l 597 615 l 597 718 l 708 718 l 708 61 m 378 96 q 477 120 436 96 q 543 184 518 144 q 580 274 568 224 q 592 374 592 324 q 581 467 592 421 q 545 549 569 513 q 482 608 521 586 q 388 631 443 631 q 290 609 331 631 q 224 551 250 588 q 187 468 199 515 q 175 369 175 421 q 185 272 175 321 q 218 184 194 224 q 281 120 242 144 q 378 96 319 96 m 333 1017 l 463 1017 l 607 818 l 490 818 l 394 951 l 297 818 l 190 818 l 333 1017 z "},"Ğ":{"ha":1054,"x_min":60,"x_max":968,"o":"m 60 476 q 90 683 60 585 q 178 854 119 781 q 326 972 238 928 q 532 1015 414 1015 q 684 997 613 1015 q 812 938 756 978 q 906 835 868 897 q 958 686 944 774 l 826 686 q 790 783 817 742 q 725 851 764 825 q 637 891 686 878 q 532 904 588 904 q 377 868 442 904 q 272 773 313 832 q 211 638 231 714 q 192 483 192 563 q 214 334 192 406 q 279 208 236 263 q 385 120 322 153 q 532 88 449 88 q 669 113 608 88 q 770 181 729 138 q 832 284 811 225 q 850 411 853 343 l 533 411 l 533 522 l 968 522 l 968 0 l 885 0 l 850 124 q 784 57 821 85 q 706 11 747 29 q 619 -15 664 -7 q 532 -24 575 -24 q 333 18 421 -24 q 185 129 246 60 q 92 289 124 199 q 60 476 60 379 m 389 1276 q 544 1161 422 1161 q 633 1192 604 1161 q 682 1276 661 1224 l 753 1276 q 681 1136 738 1188 q 533 1085 625 1085 q 385 1134 438 1085 q 319 1276 333 1183 l 389 1276 z "},"ğ":{"ha":797,"x_min":50,"x_max":708,"o":"m 708 61 q 628 -204 708 -117 q 375 -292 547 -292 q 273 -281 325 -292 q 178 -244 221 -269 q 108 -179 136 -219 q 78 -81 81 -139 l 196 -81 q 216 -135 197 -112 q 262 -171 235 -157 q 321 -191 289 -185 q 382 -197 353 -197 q 481 -177 440 -197 q 547 -122 521 -157 q 585 -36 574 -86 q 597 75 597 14 l 597 122 l 594 122 q 502 24 564 56 q 371 -8 440 -8 q 231 21 290 -8 q 131 100 171 50 q 70 216 90 150 q 50 356 50 282 q 67 486 50 419 q 122 608 83 553 q 224 699 161 664 q 382 735 288 735 q 507 705 450 735 q 596 615 564 675 l 597 615 l 597 718 l 708 718 l 708 61 m 378 96 q 477 120 436 96 q 543 184 518 144 q 580 274 568 224 q 592 374 592 324 q 581 467 592 421 q 545 549 569 513 q 482 608 521 586 q 388 631 443 631 q 290 609 331 631 q 224 551 250 588 q 187 468 199 515 q 175 369 175 421 q 185 272 175 321 q 218 184 194 224 q 281 120 242 144 q 378 96 319 96 m 250 1013 q 406 897 283 897 q 494 928 465 897 q 543 1013 522 960 l 614 1013 q 542 872 599 924 q 394 821 486 821 q 247 870 299 821 q 181 1013 194 919 l 250 1013 z "},"Ġ":{"ha":1054,"x_min":60,"x_max":968,"o":"m 60 476 q 90 683 60 585 q 178 854 119 781 q 326 972 238 928 q 532 1015 414 1015 q 684 997 613 1015 q 812 938 756 978 q 906 835 868 897 q 958 686 944 774 l 826 686 q 790 783 817 742 q 725 851 764 825 q 637 891 686 878 q 532 904 588 904 q 377 868 442 904 q 272 773 313 832 q 211 638 231 714 q 192 483 192 563 q 214 334 192 406 q 279 208 236 263 q 385 120 322 153 q 532 88 449 88 q 669 113 608 88 q 770 181 729 138 q 832 284 811 225 q 850 411 853 343 l 533 411 l 533 522 l 968 522 l 968 0 l 885 0 l 850 124 q 784 57 821 85 q 706 11 747 29 q 619 -15 664 -7 q 532 -24 575 -24 q 333 18 421 -24 q 185 129 246 60 q 92 289 124 199 q 60 476 60 379 m 597 1101 l 472 1101 l 472 1246 l 597 1246 l 597 1101 z "},"ġ":{"ha":797,"x_min":50,"x_max":708,"o":"m 708 61 q 628 -204 708 -117 q 375 -292 547 -292 q 273 -281 325 -292 q 178 -244 221 -269 q 108 -179 136 -219 q 78 -81 81 -139 l 196 -81 q 216 -135 197 -112 q 262 -171 235 -157 q 321 -191 289 -185 q 382 -197 353 -197 q 481 -177 440 -197 q 547 -122 521 -157 q 585 -36 574 -86 q 597 75 597 14 l 597 122 l 594 122 q 502 24 564 56 q 371 -8 440 -8 q 231 21 290 -8 q 131 100 171 50 q 70 216 90 150 q 50 356 50 282 q 67 486 50 419 q 122 608 83 553 q 224 699 161 664 q 382 735 288 735 q 507 705 450 735 q 596 615 564 675 l 597 615 l 597 718 l 708 718 l 708 61 m 378 96 q 477 120 436 96 q 543 184 518 144 q 580 274 568 224 q 592 374 592 324 q 581 467 592 421 q 545 549 569 513 q 482 608 521 586 q 388 631 443 631 q 290 609 331 631 q 224 551 250 588 q 187 468 199 515 q 175 369 175 421 q 185 272 175 321 q 218 184 194 224 q 281 120 242 144 q 378 96 319 96 m 460 839 l 335 839 l 335 983 l 460 983 l 460 839 z "},"Ģ":{"ha":1054,"x_min":60,"x_max":968,"o":"m 60 476 q 90 683 60 585 q 178 854 119 781 q 326 972 238 928 q 532 1015 414 1015 q 684 997 613 1015 q 812 938 756 978 q 906 835 868 897 q 958 686 944 774 l 826 686 q 790 783 817 742 q 725 851 764 825 q 637 891 686 878 q 532 904 588 904 q 377 868 442 904 q 272 773 313 832 q 211 638 231 714 q 192 483 192 563 q 214 334 192 406 q 279 208 236 263 q 385 120 322 153 q 532 88 449 88 q 669 113 608 88 q 770 181 729 138 q 832 284 811 225 q 850 411 853 343 l 533 411 l 533 522 l 968 522 l 968 0 l 885 0 l 850 124 q 784 57 821 85 q 706 11 747 29 q 619 -15 664 -7 q 532 -24 575 -24 q 333 18 421 -24 q 185 129 246 60 q 92 289 124 199 q 60 476 60 379 m 446 -69 l 600 -69 l 600 -176 q 563 -264 600 -236 q 463 -292 525 -292 l 463 -243 q 495 -231 483 -237 q 512 -218 507 -225 q 517 -205 517 -211 q 518 -192 518 -199 l 446 -192 l 446 -69 z "},"ģ":{"ha":797,"x_min":50,"x_max":708,"o":"m 708 61 q 628 -204 708 -117 q 375 -292 547 -292 q 273 -281 325 -292 q 178 -244 221 -269 q 108 -179 136 -219 q 78 -81 81 -139 l 196 -81 q 216 -135 197 -112 q 262 -171 235 -157 q 321 -191 289 -185 q 382 -197 353 -197 q 481 -177 440 -197 q 547 -122 521 -157 q 585 -36 574 -86 q 597 75 597 14 l 597 122 l 594 122 q 502 24 564 56 q 371 -8 440 -8 q 231 21 290 -8 q 131 100 171 50 q 70 216 90 150 q 50 356 50 282 q 67 486 50 419 q 122 608 83 553 q 224 699 161 664 q 382 735 288 735 q 507 705 450 735 q 596 615 564 675 l 597 615 l 597 718 l 708 718 l 708 61 m 378 96 q 477 120 436 96 q 543 184 518 144 q 580 274 568 224 q 592 374 592 324 q 581 467 592 421 q 545 549 569 513 q 482 608 521 586 q 388 631 443 631 q 290 609 331 631 q 224 551 250 588 q 187 468 199 515 q 175 369 175 421 q 185 272 175 321 q 218 184 194 224 q 281 120 242 144 q 378 96 319 96 m 474 869 l 319 869 l 319 976 q 357 1064 319 1036 q 457 1092 394 1092 l 457 1043 q 424 1031 436 1038 q 408 1018 413 1025 q 402 1004 403 1011 q 401 992 401 997 l 474 992 l 474 869 z "},"Ĥ":{"ha":1003,"x_min":108,"x_max":894,"o":"m 108 992 l 240 992 l 240 565 l 763 565 l 763 992 l 894 992 l 894 0 l 763 0 l 763 454 l 240 454 l 240 0 l 108 0 l 108 992 m 433 1281 l 563 1281 l 707 1082 l 590 1082 l 494 1215 l 397 1082 l 290 1082 l 433 1281 z "},"ĥ":{"ha":772,"x_min":89,"x_max":683,"o":"m 89 992 l 207 992 l 207 613 l 210 613 q 249 669 224 646 q 305 706 274 692 q 370 728 336 721 q 436 735 404 735 q 554 715 507 735 q 631 661 601 696 q 672 578 660 626 q 683 472 683 531 l 683 0 l 565 0 l 565 486 q 526 592 565 553 q 419 631 488 631 q 326 614 365 631 q 260 567 286 597 q 220 495 233 536 q 207 406 207 454 l 207 0 l 89 0 l 89 992 m 310 1281 l 439 1281 l 583 1082 l 467 1082 l 371 1215 l 274 1082 l 167 1082 l 310 1281 z "},"Ħ":{"ha":1003,"x_min":108,"x_max":894,"o":"m 108 992 l 240 992 l 240 792 l 763 792 l 763 992 l 894 992 l 894 0 l 763 0 l 763 425 l 240 425 l 240 0 l 108 0 l 108 992 m 763 533 l 763 711 l 240 711 l 240 533 l 763 533 z "},"ħ":{"ha":779,"x_min":-24,"x_max":690,"o":"m -24 810 l -24 883 l 96 883 l 96 992 l 214 992 l 214 883 l 450 883 l 450 810 l 214 810 l 214 613 l 217 613 q 256 669 231 646 q 312 706 281 692 q 377 728 343 721 q 443 735 411 735 q 561 715 514 735 q 638 661 608 696 q 678 578 667 626 q 690 472 690 531 l 690 0 l 572 0 l 572 486 q 533 592 572 553 q 426 631 494 631 q 333 614 372 631 q 267 567 293 597 q 227 495 240 536 q 214 406 214 454 l 214 0 l 96 0 l 96 810 l -24 810 z "},"Ĩ":{"ha":360,"x_min":-87,"x_max":400,"o":"m 114 992 l 114 0 l 246 0 l 246 992 l 114 992 m 263 1165 q 310 1185 293 1165 q 332 1242 328 1206 l 400 1242 q 348 1109 386 1144 q 256 1074 310 1074 q 203 1085 228 1074 q 153 1110 178 1096 q 103 1135 128 1124 q 54 1146 79 1146 q -22 1075 -10 1146 l -87 1075 q -38 1199 -74 1160 q 56 1238 -3 1238 q 110 1226 83 1238 q 161 1201 136 1215 q 212 1176 186 1188 q 263 1165 238 1165 z "},"ĩ":{"ha":308,"x_min":-86,"x_max":401,"o":"m 96 0 l 214 0 l 214 718 l 96 718 l 96 0 m 264 949 q 312 969 294 949 q 333 1025 329 989 l 401 1025 q 349 892 388 928 q 257 857 311 857 q 204 868 229 857 q 154 893 179 879 q 105 918 129 907 q 56 929 81 929 q -21 858 -8 929 l -86 858 q -37 982 -72 943 q 57 1021 -1 1021 q 111 1010 85 1021 q 163 985 138 999 q 213 960 188 971 q 264 949 239 949 z "},"Ī":{"ha":360,"x_min":-56,"x_max":418,"o":"m 114 992 l 246 992 l 246 0 l 114 0 l 114 992 m -56 1211 l 418 1211 l 418 1135 l -56 1135 l -56 1211 z "},"ī":{"ha":308,"x_min":-81,"x_max":393,"o":"m 96 0 l 96 718 l 214 718 l 214 0 l 96 0 m -81 947 l 393 947 l 393 871 l -81 871 l -81 947 z "},"Ĭ":{"ha":360,"x_min":-36,"x_max":397,"o":"m 114 992 l 246 992 l 246 0 l 114 0 l 114 992 m 33 1276 q 189 1161 67 1161 q 277 1192 249 1161 q 326 1276 306 1224 l 397 1276 q 326 1136 382 1188 q 178 1085 269 1085 q 30 1134 82 1085 q -36 1276 -22 1183 l 33 1276 z "},"ĭ":{"ha":308,"x_min":-61,"x_max":372,"o":"m 96 0 l 96 718 l 214 718 l 214 0 l 96 0 m 8 1013 q 164 897 42 897 q 252 928 224 897 q 301 1013 281 960 l 372 1013 q 301 872 357 924 q 153 821 244 821 q 5 870 57 821 q -61 1013 -47 919 l 8 1013 z "},"Į":{"ha":360,"x_min":56,"x_max":306,"o":"m 114 992 l 246 992 l 246 0 q 194 -53 214 -31 q 163 -96 174 -76 q 147 -131 151 -115 q 142 -164 142 -147 q 154 -206 142 -190 q 189 -222 167 -222 q 233 -211 215 -222 q 267 -181 251 -200 l 306 -206 q 248 -272 279 -253 q 179 -292 217 -292 q 92 -267 129 -292 q 56 -183 56 -242 q 61 -148 56 -168 q 82 -104 67 -128 q 124 -54 97 -81 q 196 0 151 -28 l 114 0 l 114 992 z "},"į":{"ha":308,"x_min":24,"x_max":274,"o":"m 214 847 l 96 847 l 96 992 l 214 992 l 214 847 m 96 0 l 96 718 l 214 718 l 214 0 q 162 -53 182 -31 q 131 -96 142 -76 q 115 -131 119 -115 q 110 -164 110 -147 q 122 -206 110 -190 q 157 -222 135 -222 q 201 -211 183 -222 q 235 -181 219 -200 l 274 -206 q 216 -272 247 -253 q 147 -292 185 -292 q 60 -267 97 -292 q 24 -183 24 -242 q 29 -148 24 -168 q 50 -104 35 -128 q 92 -54 65 -81 q 164 0 119 -28 l 96 0 z "},"İ":{"ha":360,"x_min":114,"x_max":246,"o":"m 114 992 l 246 992 l 246 0 l 114 0 l 114 992 m 243 1101 l 118 1101 l 118 1246 l 243 1246 l 243 1101 z "},"ı":{"ha":308,"x_min":96,"x_max":214,"o":"m 96 0 l 214 0 l 214 718 l 96 718 l 96 0 z "},"Ĳ":{"ha":1069,"x_min":114,"x_max":961,"o":"m 114 992 l 246 992 l 246 0 l 114 0 l 114 992 m 379 326 l 511 326 l 511 285 q 518 206 511 242 q 542 143 525 169 q 591 102 560 117 q 671 88 622 88 q 795 136 761 88 q 829 267 829 185 l 829 992 l 961 992 l 961 247 q 947 149 961 197 q 898 62 932 100 q 808 0 864 24 q 668 -24 751 -24 q 454 50 529 -24 q 379 265 379 124 l 379 326 z "},"ĳ":{"ha":608,"x_min":96,"x_max":514,"o":"m 214 847 l 96 847 l 96 992 l 214 992 l 214 847 m 96 718 l 214 718 l 214 0 l 96 0 l 96 718 m 514 847 l 396 847 l 396 992 l 514 992 l 514 847 m 514 -92 q 467 -231 514 -187 q 342 -275 421 -275 q 281 -269 308 -275 l 281 -168 q 293 -170 288 -169 q 304 -171 299 -171 l 329 -171 q 382 -149 368 -171 q 396 -72 396 -128 l 396 718 l 514 718 l 514 -92 z "},"Ĵ":{"ha":721,"x_min":31,"x_max":751,"o":"m 31 326 l 163 326 l 163 285 q 169 206 163 242 q 194 143 176 169 q 242 102 211 117 q 322 88 274 88 q 447 136 413 88 q 481 267 481 185 l 481 992 l 613 992 l 613 247 q 598 149 613 197 q 549 62 583 100 q 459 0 515 24 q 319 -24 403 -24 q 106 50 181 -24 q 31 265 31 124 l 31 326 m 478 1281 l 607 1281 l 751 1082 l 635 1082 l 539 1215 l 442 1082 l 335 1082 l 478 1281 z "},"ĵ":{"ha":308,"x_min":-54,"x_max":363,"o":"m 214 -92 q 167 -231 214 -187 q 42 -275 121 -275 q -19 -269 8 -275 l -19 -168 q -7 -170 -12 -169 q 4 -171 -1 -171 l 29 -171 q 82 -149 68 -171 q 96 -72 96 -128 l 96 718 l 214 718 l 214 -92 m 89 1017 l 218 1017 l 363 818 l 246 818 l 150 951 l 53 818 l -54 818 l 89 1017 z "},"Ķ":{"ha":926,"x_min":108,"x_max":931,"o":"m 108 992 l 240 992 l 240 497 l 743 992 l 914 992 l 496 592 l 931 0 l 764 0 l 406 501 l 240 347 l 240 0 l 108 0 l 108 992 m 403 -69 l 557 -69 l 557 -176 q 519 -264 557 -236 q 419 -292 482 -292 l 419 -243 q 452 -231 440 -237 q 469 -218 464 -225 q 474 -205 474 -211 q 475 -192 475 -199 l 403 -192 l 403 -69 z "},"ķ":{"ha":721,"x_min":96,"x_max":721,"o":"m 96 992 l 214 992 l 214 404 l 542 718 l 700 718 l 415 457 l 721 0 l 571 0 l 325 375 l 214 272 l 214 0 l 96 0 l 96 992 m 306 -69 l 460 -69 l 460 -176 q 422 -264 460 -236 q 322 -292 385 -292 l 322 -243 q 355 -231 343 -237 q 372 -218 367 -225 q 377 -205 376 -211 q 378 -192 378 -199 l 306 -192 l 306 -69 z "},"ĸ":{"ha":714,"x_min":89,"x_max":714,"o":"m 89 718 l 207 718 l 207 404 l 535 718 l 693 718 l 408 457 l 714 0 l 564 0 l 318 375 l 207 272 l 207 0 l 89 0 l 89 718 z "},"Ĺ":{"ha":772,"x_min":108,"x_max":765,"o":"m 108 992 l 240 992 l 240 111 l 765 111 l 765 0 l 108 0 l 108 992 m 249 1281 l 400 1281 l 218 1082 l 129 1082 l 249 1281 z "},"ĺ":{"ha":308,"x_min":90,"x_max":361,"o":"m 96 992 l 214 992 l 214 0 l 96 0 l 96 992 m 210 1281 l 361 1281 l 179 1082 l 90 1082 l 210 1281 z "},"Ļ":{"ha":772,"x_min":108,"x_max":765,"o":"m 108 992 l 240 992 l 240 111 l 765 111 l 765 0 l 108 0 l 108 992 m 351 -69 l 506 -69 l 506 -176 q 468 -264 506 -236 q 368 -292 431 -292 l 368 -243 q 401 -231 389 -237 q 417 -218 413 -225 q 423 -205 422 -211 q 424 -192 424 -199 l 351 -192 l 351 -69 z "},"ļ":{"ha":308,"x_min":78,"x_max":232,"o":"m 96 992 l 214 992 l 214 0 l 96 0 l 96 992 m 78 -69 l 232 -69 l 232 -176 q 194 -264 232 -236 q 94 -292 157 -292 l 94 -243 q 127 -231 115 -237 q 144 -218 139 -225 q 149 -205 149 -211 q 150 -192 150 -199 l 78 -192 l 78 -69 z "},"Ľ":{"ha":772,"x_min":108,"x_max":765,"o":"m 108 992 l 240 992 l 240 111 l 765 111 l 765 0 l 108 0 l 108 992 m 419 992 l 571 992 l 467 793 l 383 793 l 419 992 z "},"ľ":{"ha":419,"x_min":96,"x_max":413,"o":"m 96 992 l 214 992 l 214 0 l 96 0 l 96 992 m 307 992 l 413 992 l 413 625 l 307 625 l 307 992 z "},"Ŀ":{"ha":772,"x_min":108,"x_max":765,"o":"m 108 992 l 240 992 l 240 111 l 765 111 l 765 0 l 108 0 l 108 992 m 563 468 l 438 468 l 438 613 l 563 613 l 563 468 z "},"ŀ":{"ha":475,"x_min":96,"x_max":438,"o":"m 96 992 l 214 992 l 214 0 l 96 0 l 96 992 m 438 468 l 313 468 l 313 613 l 438 613 l 438 468 z "},"Ł":{"ha":772,"x_min":0,"x_max":765,"o":"m 108 333 l 108 0 l 765 0 l 765 111 l 240 111 l 240 428 l 557 650 l 557 756 l 240 533 l 240 992 l 108 992 l 108 439 l 0 361 l 0 256 l 108 333 z "},"ł":{"ha":308,"x_min":0,"x_max":311,"o":"m 96 446 l 96 0 l 214 0 l 214 540 l 311 618 l 311 717 l 214 639 l 214 992 l 96 992 l 96 546 l 0 468 l 0 369 l 96 446 z "},"Ń":{"ha":1003,"x_min":107,"x_max":897,"o":"m 107 992 l 107 0 l 232 0 l 232 796 l 235 796 l 753 0 l 897 0 l 897 992 l 772 992 l 772 188 l 769 188 l 247 992 l 107 992 m 719 1288 l 524 1063 l 435 1063 l 568 1288 l 719 1288 z "},"ń":{"ha":772,"x_min":89,"x_max":683,"o":"m 89 718 l 89 0 l 207 0 l 207 406 q 220 495 207 454 q 260 567 233 536 q 326 614 286 597 q 419 631 365 631 q 526 592 488 631 q 565 486 565 553 l 565 0 l 683 0 l 683 472 q 672 578 683 531 q 631 661 660 626 q 554 715 601 696 q 436 735 507 735 q 203 604 276 735 l 200 604 l 200 718 l 89 718 m 599 1069 l 403 844 l 314 844 l 447 1069 l 599 1069 z "},"Ņ":{"ha":1003,"x_min":107,"x_max":897,"o":"m 107 992 l 247 992 l 769 188 l 772 188 l 772 992 l 897 992 l 897 0 l 753 0 l 235 796 l 232 796 l 232 0 l 107 0 l 107 992 m 421 -69 l 575 -69 l 575 -176 q 538 -264 575 -236 q 438 -292 500 -292 l 438 -243 q 470 -231 458 -237 q 487 -218 482 -225 q 492 -205 492 -211 q 493 -192 493 -199 l 421 -192 l 421 -69 z "},"ņ":{"ha":772,"x_min":89,"x_max":683,"o":"m 89 718 l 200 718 l 200 604 l 203 604 q 436 735 276 735 q 554 715 507 735 q 631 661 601 696 q 672 578 660 626 q 683 472 683 531 l 683 0 l 565 0 l 565 486 q 526 592 565 553 q 419 631 488 631 q 326 614 365 631 q 260 567 286 597 q 220 495 233 536 q 207 406 207 454 l 207 0 l 89 0 l 89 718 m 307 -69 l 461 -69 l 461 -176 q 424 -264 461 -236 q 324 -292 386 -292 l 324 -243 q 356 -231 344 -237 q 373 -218 368 -225 q 378 -205 378 -211 q 379 -192 379 -199 l 307 -192 l 307 -69 z "},"Ň":{"ha":1003,"x_min":107,"x_max":897,"o":"m 107 992 l 247 992 l 769 188 l 772 188 l 772 992 l 897 992 l 897 0 l 753 0 l 235 796 l 232 796 l 232 0 l 107 0 l 107 992 m 564 1082 l 435 1082 l 290 1281 l 407 1281 l 503 1147 l 600 1281 l 707 1281 l 564 1082 z "},"ň":{"ha":772,"x_min":89,"x_max":683,"o":"m 89 718 l 200 718 l 200 604 l 203 604 q 436 735 276 735 q 554 715 507 735 q 631 661 601 696 q 672 578 660 626 q 683 472 683 531 l 683 0 l 565 0 l 565 486 q 526 592 565 553 q 419 631 488 631 q 326 614 365 631 q 260 567 286 597 q 220 495 233 536 q 207 406 207 454 l 207 0 l 89 0 l 89 718 m 453 818 l 324 818 l 179 1017 l 296 1017 l 392 883 l 489 1017 l 596 1017 l 453 818 z "},"ŉ":{"ha":921,"x_min":25,"x_max":832,"o":"m 238 718 l 349 718 l 349 604 l 351 604 q 585 735 425 735 q 703 715 656 735 q 779 661 750 696 q 820 578 808 626 q 832 472 832 531 l 832 0 l 714 0 l 714 486 q 675 592 714 553 q 568 631 636 631 q 474 614 514 631 q 408 567 435 597 q 369 495 382 536 q 356 406 356 454 l 356 0 l 238 0 l 238 718 m 25 992 l 179 992 l 179 838 q 170 759 179 796 q 142 694 161 722 q 94 650 124 667 q 26 633 65 633 l 26 703 q 65 715 50 703 q 90 746 81 726 q 103 790 100 765 q 107 838 107 814 l 25 838 l 25 992 z "},"Ŋ":{"ha":1003,"x_min":107,"x_max":897,"o":"m 772 -24 l 235 796 l 232 796 l 232 0 l 107 0 l 107 992 l 247 992 l 769 188 l 772 188 l 772 992 l 897 992 l 897 -56 q 882 -158 897 -117 q 838 -226 867 -200 q 768 -264 810 -253 q 674 -275 726 -275 q 622 -272 651 -275 q 568 -262 592 -269 l 568 -154 q 615 -161 590 -158 q 660 -164 639 -164 q 712 -158 690 -164 q 747 -139 733 -153 q 766 -100 760 -125 q 772 -35 772 -75 l 772 -24 z "},"ŋ":{"ha":772,"x_min":89,"x_max":683,"o":"m 89 718 l 200 718 l 200 604 l 203 604 q 436 735 276 735 q 554 715 507 735 q 631 661 601 696 q 672 578 660 626 q 683 472 683 531 l 683 -69 q 630 -228 683 -181 q 483 -275 576 -275 q 438 -273 463 -275 q 393 -265 413 -271 l 393 -164 q 432 -169 413 -167 q 471 -171 451 -171 q 544 -146 524 -171 q 565 -50 565 -121 l 565 486 q 526 592 565 553 q 419 631 488 631 q 326 614 365 631 q 260 567 286 597 q 220 495 233 536 q 207 406 207 454 l 207 0 l 89 0 l 89 718 z "},"Ō":{"ha":1056,"x_min":53,"x_max":1003,"o":"m 53 496 q 83 691 53 597 q 172 857 113 785 q 321 972 232 929 q 528 1015 410 1015 q 735 972 646 1015 q 883 857 824 929 q 973 691 943 785 q 1003 496 1003 597 q 973 301 1003 394 q 883 135 943 207 q 735 19 824 63 q 528 -24 646 -24 q 321 19 410 -24 q 172 135 232 63 q 83 301 113 207 q 53 496 53 394 m 185 496 q 204 348 185 421 q 265 217 224 275 q 372 123 307 158 q 528 88 438 88 q 683 123 618 88 q 790 217 749 158 q 851 348 832 275 q 871 496 871 421 q 851 644 871 571 q 790 775 832 717 q 683 869 749 833 q 528 904 618 904 q 372 869 438 904 q 265 775 307 833 q 204 644 224 717 q 185 496 185 571 m 293 1211 l 767 1211 l 767 1135 l 293 1135 l 293 1211 z "},"ō":{"ha":797,"x_min":50,"x_max":747,"o":"m 50 358 q 72 506 50 438 q 139 626 94 575 q 248 706 183 676 q 399 735 313 735 q 549 706 483 735 q 658 626 614 676 q 725 506 703 575 q 747 358 747 438 q 725 211 747 279 q 658 92 703 143 q 549 13 614 42 q 399 -17 483 -17 q 248 13 313 -17 q 139 92 183 42 q 72 211 94 143 q 50 358 50 279 m 175 358 q 192 242 175 293 q 240 158 210 192 q 312 106 271 124 q 399 88 353 88 q 485 106 444 88 q 557 158 526 124 q 605 242 588 192 q 622 358 622 293 q 605 474 622 424 q 557 560 588 525 q 485 613 526 594 q 399 631 444 631 q 312 613 353 631 q 240 560 271 594 q 192 474 210 525 q 175 358 175 424 m 164 947 l 638 947 l 638 871 l 164 871 l 164 947 z "},"Ŏ":{"ha":1056,"x_min":53,"x_max":1003,"o":"m 53 496 q 83 691 53 597 q 172 857 113 785 q 321 972 232 929 q 528 1015 410 1015 q 735 972 646 1015 q 883 857 824 929 q 973 691 943 785 q 1003 496 1003 597 q 973 301 1003 394 q 883 135 943 207 q 735 19 824 63 q 528 -24 646 -24 q 321 19 410 -24 q 172 135 232 63 q 83 301 113 207 q 53 496 53 394 m 185 496 q 204 348 185 421 q 265 217 224 275 q 372 123 307 158 q 528 88 438 88 q 683 123 618 88 q 790 217 749 158 q 851 348 832 275 q 871 496 871 421 q 851 644 871 571 q 790 775 832 717 q 683 869 749 833 q 528 904 618 904 q 372 869 438 904 q 265 775 307 833 q 204 644 224 717 q 185 496 185 571 m 382 1276 q 538 1161 415 1161 q 626 1192 597 1161 q 675 1276 654 1224 l 746 1276 q 674 1136 731 1188 q 526 1085 618 1085 q 378 1134 431 1085 q 313 1276 326 1183 l 382 1276 z "},"ŏ":{"ha":797,"x_min":50,"x_max":747,"o":"m 50 358 q 72 506 50 438 q 139 626 94 575 q 248 706 183 676 q 399 735 313 735 q 549 706 483 735 q 658 626 614 676 q 725 506 703 575 q 747 358 747 438 q 725 211 747 279 q 658 92 703 143 q 549 13 614 42 q 399 -17 483 -17 q 248 13 313 -17 q 139 92 183 42 q 72 211 94 143 q 50 358 50 279 m 175 358 q 192 242 175 293 q 240 158 210 192 q 312 106 271 124 q 399 88 353 88 q 485 106 444 88 q 557 158 526 124 q 605 242 588 192 q 622 358 622 293 q 605 474 622 424 q 557 560 588 525 q 485 613 526 594 q 399 631 444 631 q 312 613 353 631 q 240 560 271 594 q 192 474 210 525 q 175 358 175 424 m 253 1013 q 408 897 286 897 q 497 928 468 897 q 546 1013 525 960 l 617 1013 q 545 872 601 924 q 397 821 489 821 q 249 870 301 821 q 183 1013 197 919 l 253 1013 z "},"Ő":{"ha":1056,"x_min":53,"x_max":1003,"o":"m 53 496 q 83 691 53 597 q 172 857 113 785 q 321 972 232 929 q 528 1015 410 1015 q 735 972 646 1015 q 883 857 824 929 q 973 691 943 785 q 1003 496 1003 597 q 973 301 1003 394 q 883 135 943 207 q 735 19 824 63 q 528 -24 646 -24 q 321 19 410 -24 q 172 135 232 63 q 83 301 113 207 q 53 496 53 394 m 185 496 q 204 348 185 421 q 265 217 224 275 q 372 123 307 158 q 528 88 438 88 q 683 123 618 88 q 790 217 749 158 q 851 348 832 275 q 871 496 871 421 q 851 644 871 571 q 790 775 832 717 q 683 869 749 833 q 528 904 618 904 q 372 869 438 904 q 265 775 307 833 q 204 644 224 717 q 185 496 185 571 m 697 1281 l 843 1281 l 676 1082 l 585 1082 l 697 1281 m 481 1281 l 626 1281 l 460 1082 l 368 1082 l 481 1281 z "},"ő":{"ha":797,"x_min":50,"x_max":747,"o":"m 50 358 q 72 506 50 438 q 139 626 94 575 q 248 706 183 676 q 399 735 313 735 q 549 706 483 735 q 658 626 614 676 q 725 506 703 575 q 747 358 747 438 q 725 211 747 279 q 658 92 703 143 q 549 13 614 42 q 399 -17 483 -17 q 248 13 313 -17 q 139 92 183 42 q 72 211 94 143 q 50 358 50 279 m 175 358 q 192 242 175 293 q 240 158 210 192 q 312 106 271 124 q 399 88 353 88 q 485 106 444 88 q 557 158 526 124 q 605 242 588 192 q 622 358 622 293 q 605 474 622 424 q 557 560 588 525 q 485 613 526 594 q 399 631 444 631 q 312 613 353 631 q 240 560 271 594 q 192 474 210 525 q 175 358 175 424 m 568 1017 l 714 1017 l 547 818 l 456 818 l 568 1017 m 351 1017 l 497 1017 l 331 818 l 239 818 l 351 1017 z "},"Œ":{"ha":1492,"x_min":53,"x_max":1436,"o":"m 765 96 l 765 0 l 1436 0 l 1436 111 l 897 111 l 897 454 l 1383 454 l 1383 565 l 897 565 l 897 881 l 1428 881 l 1428 992 l 765 992 l 765 910 l 763 910 q 720 957 747 938 q 660 990 693 976 q 590 1009 626 1003 q 518 1015 553 1015 q 322 976 408 1015 q 175 866 235 936 q 84 701 115 796 q 53 493 53 606 q 83 290 53 383 q 170 126 113 196 q 313 17 228 57 q 507 -22 397 -22 q 583 -15 544 -22 q 655 8 621 -7 q 717 44 689 22 q 763 96 744 67 l 765 96 m 517 88 q 374 119 436 88 q 269 204 311 150 q 206 331 228 258 q 185 488 185 404 q 206 647 185 571 q 268 780 226 722 q 372 871 310 838 q 519 904 435 904 q 658 872 599 904 q 744 797 717 840 q 763 749 760 774 q 765 701 765 724 l 765 283 q 746 204 765 240 q 693 142 726 168 q 615 102 660 117 q 517 88 569 88 z "},"œ":{"ha":1238,"x_min":50,"x_max":1200,"o":"m 576 361 q 567 264 576 313 q 535 176 558 215 q 474 112 513 136 q 376 88 436 88 q 283 110 322 88 q 221 170 244 133 q 186 253 197 207 q 175 344 175 299 q 185 449 175 397 q 219 540 196 500 q 282 606 243 581 q 376 631 321 631 q 476 607 438 631 q 538 545 515 583 q 568 459 560 507 q 576 361 576 411 m 1075 428 l 679 428 q 732 574 678 517 q 879 631 786 631 q 1024 575 972 631 q 1075 428 1075 519 m 679 324 l 1200 324 q 1188 483 1204 408 q 1133 614 1172 558 q 1032 702 1094 669 q 879 735 969 735 q 733 703 803 735 q 625 608 663 672 q 524 709 589 683 q 376 735 460 735 q 232 706 293 735 q 130 626 171 676 q 69 507 89 575 q 50 360 50 439 q 69 214 50 282 q 128 94 89 146 q 230 14 168 43 q 376 -15 292 -15 q 524 16 457 -15 q 625 125 592 47 q 727 16 658 47 q 886 -15 796 -15 q 1193 228 1122 -15 l 1081 228 q 1008 124 1060 161 q 886 88 957 88 q 794 107 833 88 q 728 159 754 126 q 690 234 703 192 q 679 324 678 276 z "},"Ŕ":{"ha":951,"x_min":108,"x_max":911,"o":"m 108 992 l 575 992 q 797 922 717 992 q 876 732 876 853 q 835 574 876 642 q 704 481 794 506 l 704 478 q 774 450 747 469 q 817 403 801 431 q 841 343 833 376 q 853 274 849 310 q 857 200 856 238 q 864 126 858 163 q 880 58 869 90 q 911 0 890 25 l 764 0 q 745 42 750 15 q 739 101 740 68 q 736 171 738 133 q 728 244 735 208 q 714 313 722 281 q 688 370 706 346 q 640 409 669 394 q 563 424 610 424 l 240 424 l 240 0 l 108 0 l 108 992 m 515 535 q 603 542 561 535 q 676 569 644 549 q 726 623 707 589 q 744 711 744 657 q 703 833 744 786 q 568 881 661 881 l 240 881 l 240 535 l 515 535 m 506 1281 l 657 1281 l 475 1082 l 386 1082 l 506 1281 z "},"ŕ":{"ha":463,"x_min":85,"x_max":468,"o":"m 85 718 l 196 718 l 196 567 l 199 567 q 304 696 242 654 q 463 735 367 738 l 463 610 q 342 590 392 610 q 261 533 292 571 q 217 442 231 496 q 203 319 203 388 l 203 0 l 85 0 l 85 718 m 317 1017 l 468 1017 l 286 818 l 197 818 l 317 1017 z "},"Ŗ":{"ha":951,"x_min":108,"x_max":911,"o":"m 108 992 l 575 992 q 797 922 717 992 q 876 732 876 853 q 835 574 876 642 q 704 481 794 506 l 704 478 q 774 450 747 469 q 817 403 801 431 q 841 343 833 376 q 853 274 849 310 q 857 200 856 238 q 864 126 858 163 q 880 58 869 90 q 911 0 890 25 l 764 0 q 745 42 750 15 q 739 101 740 68 q 736 171 738 133 q 728 244 735 208 q 714 313 722 281 q 688 370 706 346 q 640 409 669 394 q 563 424 610 424 l 240 424 l 240 0 l 108 0 l 108 992 m 515 535 q 603 542 561 535 q 676 569 644 549 q 726 623 707 589 q 744 711 744 657 q 703 833 744 786 q 568 881 661 881 l 240 881 l 240 535 l 515 535 m 410 -69 l 564 -69 l 564 -176 q 526 -264 564 -236 q 426 -292 489 -292 l 426 -243 q 459 -231 447 -237 q 476 -218 471 -225 q 481 -205 481 -211 q 482 -192 482 -199 l 410 -192 l 410 -69 z "},"ŗ":{"ha":463,"x_min":67,"x_max":463,"o":"m 85 718 l 196 718 l 196 567 l 199 567 q 304 696 242 654 q 463 735 367 738 l 463 610 q 342 590 392 610 q 261 533 292 571 q 217 442 231 496 q 203 319 203 388 l 203 0 l 85 0 l 85 718 m 67 -69 l 221 -69 l 221 -176 q 183 -264 221 -236 q 83 -292 146 -292 l 83 -243 q 116 -231 104 -237 q 133 -218 128 -225 q 138 -205 138 -211 q 139 -192 139 -199 l 67 -192 l 67 -69 z "},"Ř":{"ha":951,"x_min":108,"x_max":911,"o":"m 108 992 l 575 992 q 797 922 717 992 q 876 732 876 853 q 835 574 876 642 q 704 481 794 506 l 704 478 q 774 450 747 469 q 817 403 801 431 q 841 343 833 376 q 853 274 849 310 q 857 200 856 238 q 864 126 858 163 q 880 58 869 90 q 911 0 890 25 l 764 0 q 745 42 750 15 q 739 101 740 68 q 736 171 738 133 q 728 244 735 208 q 714 313 722 281 q 688 370 706 346 q 640 409 669 394 q 563 424 610 424 l 240 424 l 240 0 l 108 0 l 108 992 m 515 535 q 603 542 561 535 q 676 569 644 549 q 726 623 707 589 q 744 711 744 657 q 703 833 744 786 q 568 881 661 881 l 240 881 l 240 535 l 515 535 m 514 1082 l 385 1082 l 240 1281 l 357 1281 l 453 1147 l 550 1281 l 657 1281 l 514 1082 z "},"ř":{"ha":463,"x_min":63,"x_max":479,"o":"m 85 718 l 196 718 l 196 567 l 199 567 q 304 696 242 654 q 463 735 367 738 l 463 610 q 342 590 392 610 q 261 533 292 571 q 217 442 231 496 q 203 319 203 388 l 203 0 l 85 0 l 85 718 m 336 818 l 207 818 l 63 1017 l 179 1017 l 275 883 l 372 1017 l 479 1017 l 336 818 z "},"Ś":{"ha":900,"x_min":51,"x_max":849,"o":"m 682 701 l 807 701 q 776 842 804 783 q 698 940 747 901 q 583 997 649 979 q 442 1015 518 1015 q 309 998 374 1015 q 194 945 244 981 q 113 855 143 910 q 82 725 82 800 q 109 612 82 657 q 181 538 136 567 q 283 492 226 510 q 399 462 340 475 q 515 436 458 449 q 617 403 572 424 q 690 351 663 383 q 717 268 717 319 q 694 179 717 214 q 636 124 672 144 q 555 96 600 104 q 465 88 510 88 q 357 101 410 88 q 265 144 304 115 q 201 219 225 174 q 176 326 176 264 l 51 326 q 84 170 51 236 q 173 62 117 104 q 303 -1 229 19 q 461 -22 378 -22 q 598 -6 529 -22 q 722 45 667 10 q 813 137 778 81 q 849 272 849 193 q 822 394 849 346 q 749 475 794 443 q 647 526 704 507 q 531 558 590 544 q 415 584 472 572 q 313 614 358 596 q 241 660 268 632 q 214 735 214 689 q 233 816 214 783 q 283 868 251 849 q 354 896 314 888 q 436 904 394 904 q 605 856 539 904 q 682 701 671 808 m 668 1288 l 472 1063 l 383 1063 l 517 1288 l 668 1288 z "},"ś":{"ha":694,"x_min":43,"x_max":653,"o":"m 161 226 l 43 226 q 71 113 46 160 q 138 38 96 67 q 233 -3 179 10 q 347 -15 288 -15 q 456 -5 401 -15 q 555 32 511 6 q 626 101 599 58 q 653 210 653 144 q 633 296 653 261 q 580 353 613 331 q 505 390 547 376 q 418 414 463 404 q 335 433 376 424 q 260 455 293 442 q 205 488 226 468 q 183 539 183 508 q 197 584 183 567 q 233 612 211 601 q 283 626 256 622 q 336 631 310 631 q 394 624 365 631 q 446 604 422 618 q 485 567 469 590 q 503 510 500 544 l 621 510 q 593 619 617 575 q 530 688 569 663 q 439 724 490 714 q 326 735 388 735 q 231 723 279 735 q 145 687 183 711 q 83 624 107 663 q 58 531 58 585 q 93 422 58 461 q 180 362 128 383 q 293 328 232 340 q 406 302 354 317 q 493 264 458 288 q 528 194 528 240 q 511 140 528 161 q 469 107 494 118 q 413 92 443 96 q 354 88 382 88 q 284 94 318 88 q 223 117 250 101 q 179 160 196 133 q 161 226 163 188 m 558 1069 l 363 844 l 274 844 l 407 1069 l 558 1069 z "},"Ŝ":{"ha":900,"x_min":51,"x_max":849,"o":"m 682 701 q 605 856 671 808 q 436 904 539 904 q 354 896 394 904 q 283 868 314 888 q 233 816 251 849 q 214 735 214 783 q 241 660 214 689 q 313 614 268 632 q 415 584 358 596 q 531 558 472 572 q 647 526 590 544 q 749 475 704 507 q 822 394 794 443 q 849 272 849 346 q 813 137 849 193 q 722 45 778 81 q 598 -7 667 10 q 461 -24 529 -24 q 303 -3 378 -24 q 173 61 229 18 q 84 170 117 104 q 51 326 51 236 l 176 326 q 201 219 176 264 q 265 144 225 174 q 356 101 304 115 q 465 88 408 88 q 555 96 510 88 q 636 124 600 104 q 694 179 672 144 q 717 268 717 214 q 690 351 717 319 q 617 403 663 383 q 515 436 572 424 q 399 462 458 449 q 283 492 340 475 q 181 538 226 510 q 109 612 136 567 q 82 725 82 657 q 113 855 82 800 q 194 945 143 910 q 309 998 244 981 q 442 1015 374 1015 q 583 997 518 1015 q 698 940 649 979 q 776 842 747 901 q 807 701 804 783 l 682 701 m 386 1281 l 515 1281 l 660 1082 l 543 1082 l 447 1215 l 350 1082 l 243 1082 l 386 1281 z "},"ŝ":{"ha":694,"x_min":43,"x_max":653,"o":"m 161 226 q 179 160 163 186 q 223 117 196 133 q 284 94 250 101 q 354 88 318 88 q 413 92 382 88 q 469 107 443 96 q 511 140 494 118 q 528 194 528 161 q 493 264 528 240 q 406 302 458 288 q 293 328 354 317 q 180 362 232 340 q 93 422 128 383 q 58 531 58 461 q 83 624 58 585 q 145 687 107 663 q 231 723 183 711 q 326 735 279 735 q 438 724 386 735 q 530 688 490 714 q 593 619 569 663 q 621 510 617 575 l 503 510 q 485 567 500 544 q 446 604 469 590 q 394 624 422 618 q 336 631 365 631 q 283 626 310 631 q 233 612 256 622 q 197 583 211 601 q 183 539 183 565 q 205 488 183 507 q 260 455 226 468 q 335 433 293 442 q 418 414 376 424 q 505 390 463 404 q 580 353 547 376 q 633 296 613 331 q 653 210 653 261 q 626 101 653 144 q 555 32 599 58 q 456 -6 511 6 q 347 -17 401 -17 q 233 -3 286 -17 q 138 38 179 10 q 71 113 96 67 q 43 226 46 160 l 161 226 m 283 1017 l 413 1017 l 557 818 l 440 818 l 344 951 l 247 818 l 140 818 l 283 1017 z "},"Ş":{"ha":900,"x_min":51,"x_max":849,"o":"m 304 -204 q 394 -222 350 -222 q 449 -212 422 -222 q 475 -179 475 -203 q 456 -148 475 -160 q 410 -136 438 -136 q 381 -139 393 -136 q 353 -147 368 -142 l 329 -108 l 397 -19 q 262 12 325 -12 q 152 79 199 36 q 78 183 106 122 q 51 326 51 244 l 176 326 q 201 219 176 264 q 265 144 225 174 q 356 101 304 115 q 465 88 408 88 q 555 96 510 88 q 636 124 600 104 q 694 179 672 144 q 717 268 717 214 q 690 351 717 319 q 617 403 663 383 q 515 436 572 424 q 399 462 458 449 q 283 492 340 475 q 181 538 226 510 q 109 612 136 567 q 82 725 82 657 q 113 855 82 800 q 194 945 143 910 q 309 998 244 981 q 442 1015 374 1015 q 583 997 518 1015 q 698 940 649 979 q 776 842 747 901 q 807 701 804 783 l 682 701 q 605 856 671 808 q 436 904 539 904 q 354 896 394 904 q 283 868 314 888 q 233 816 251 849 q 214 735 214 783 q 241 660 214 689 q 313 614 268 632 q 415 584 358 596 q 531 558 472 572 q 647 526 590 544 q 749 475 704 507 q 822 394 794 443 q 849 272 849 346 q 813 137 849 193 q 722 45 778 81 q 598 -7 667 10 q 461 -24 529 -24 l 453 -24 l 414 -74 l 417 -76 q 463 -67 436 -67 q 543 -92 507 -67 q 579 -168 579 -117 q 563 -226 579 -203 q 522 -265 547 -250 q 467 -285 497 -279 q 407 -292 436 -292 q 279 -265 344 -292 l 304 -204 z "},"ş":{"ha":694,"x_min":43,"x_max":653,"o":"m 203 -204 q 293 -222 249 -222 q 347 -212 321 -222 q 374 -179 374 -203 q 355 -148 374 -160 q 308 -136 336 -136 q 279 -139 292 -136 q 251 -147 267 -142 l 228 -108 l 301 -14 q 203 6 249 -10 q 122 50 157 21 q 66 122 88 79 q 43 226 44 165 l 161 226 q 179 160 163 186 q 223 117 196 133 q 284 94 250 101 q 354 88 318 88 q 413 92 382 88 q 469 107 443 96 q 511 140 494 118 q 528 194 528 161 q 493 264 528 240 q 406 302 458 288 q 293 328 354 317 q 180 362 232 340 q 93 422 128 383 q 58 531 58 461 q 83 624 58 585 q 145 687 107 663 q 231 723 183 711 q 326 735 279 735 q 438 724 386 735 q 530 688 490 714 q 593 619 569 663 q 621 510 617 575 l 503 510 q 485 567 500 544 q 446 604 469 590 q 394 624 422 618 q 336 631 365 631 q 283 626 310 631 q 233 612 256 622 q 197 583 211 601 q 183 539 183 565 q 205 488 183 507 q 260 455 226 468 q 335 433 293 442 q 418 414 376 424 q 505 390 463 404 q 580 353 547 376 q 633 296 613 331 q 653 210 653 261 q 626 104 653 147 q 558 35 600 61 q 464 -3 517 8 q 357 -17 411 -15 l 313 -74 l 315 -76 q 361 -67 335 -67 q 442 -92 406 -67 q 478 -168 478 -117 q 462 -226 478 -203 q 421 -265 446 -250 q 365 -285 396 -279 q 306 -292 335 -292 q 178 -265 243 -292 l 203 -204 z "},"Š":{"ha":900,"x_min":51,"x_max":849,"o":"m 515 1063 l 658 1261 l 551 1261 l 454 1128 l 358 1261 l 242 1261 l 386 1063 l 515 1063 m 682 701 l 807 701 q 776 842 804 783 q 698 940 747 901 q 583 997 649 979 q 442 1015 518 1015 q 309 998 374 1015 q 194 945 244 981 q 113 855 143 910 q 82 725 82 800 q 109 612 82 657 q 181 538 136 567 q 283 492 226 510 q 399 462 340 475 q 515 436 458 449 q 617 403 572 424 q 690 351 663 383 q 717 268 717 319 q 694 179 717 214 q 636 124 672 144 q 555 96 600 104 q 465 88 510 88 q 357 101 410 88 q 265 144 304 115 q 201 219 225 174 q 176 326 176 264 l 51 326 q 84 170 51 236 q 173 62 117 104 q 303 -1 229 19 q 461 -22 378 -22 q 598 -6 529 -22 q 722 45 667 10 q 813 137 778 81 q 849 272 849 193 q 822 394 849 346 q 749 475 794 443 q 647 526 704 507 q 531 558 590 544 q 415 584 472 572 q 313 614 358 596 q 241 660 268 632 q 214 735 214 689 q 233 816 214 783 q 283 868 251 849 q 354 896 314 888 q 436 904 394 904 q 605 856 539 904 q 682 701 671 808 z "},"š":{"ha":694,"x_min":43,"x_max":653,"o":"m 413 817 l 556 1015 l 449 1015 l 351 882 l 256 1015 l 139 1015 l 283 817 l 413 817 m 161 226 l 43 226 q 71 113 46 160 q 138 38 96 67 q 233 -3 179 10 q 347 -15 288 -15 q 456 -5 401 -15 q 555 32 511 6 q 626 101 599 58 q 653 210 653 144 q 633 296 653 261 q 580 353 613 331 q 505 390 547 376 q 418 414 463 404 q 335 433 376 424 q 260 455 293 442 q 205 488 226 468 q 183 539 183 508 q 197 584 183 567 q 233 612 211 601 q 283 626 256 622 q 336 631 310 631 q 394 624 365 631 q 446 604 422 618 q 485 567 469 590 q 503 510 500 544 l 621 510 q 593 619 617 575 q 530 688 569 663 q 439 724 490 714 q 326 735 388 735 q 231 723 279 735 q 145 687 183 711 q 83 624 107 663 q 58 531 58 585 q 93 422 58 461 q 180 362 128 383 q 293 328 232 340 q 406 302 354 317 q 493 264 458 288 q 528 194 528 240 q 511 140 528 161 q 469 107 494 118 q 413 92 443 96 q 354 88 382 88 q 284 94 318 88 q 223 117 250 101 q 179 160 196 133 q 161 226 163 188 z "},"Ţ":{"ha":797,"x_min":3,"x_max":796,"o":"m 333 881 l 3 881 l 3 992 l 796 992 l 796 881 l 465 881 l 465 0 l 333 0 l 333 881 m 321 -69 l 475 -69 l 475 -176 q 438 -264 475 -236 q 338 -292 400 -292 l 338 -243 q 370 -231 358 -237 q 387 -218 382 -225 q 392 -205 392 -211 q 393 -192 393 -199 l 321 -192 l 321 -69 z "},"ţ":{"ha":438,"x_min":13,"x_max":418,"o":"m 253 718 l 396 718 l 396 614 l 253 614 l 253 168 q 256 135 253 147 q 269 115 260 122 q 297 106 279 108 q 342 104 314 104 l 396 104 l 396 0 l 306 0 q 227 6 260 0 q 174 29 194 13 q 144 76 154 46 q 135 157 135 107 l 135 614 l 13 614 l 13 718 l 135 718 l 135 933 l 253 933 l 253 718 m 143 -200 q 183 -212 160 -207 q 228 -218 206 -218 q 257 -216 242 -218 q 285 -208 272 -214 q 306 -195 297 -203 q 314 -175 314 -187 q 295 -144 314 -156 q 249 -132 276 -132 q 219 -135 232 -132 q 192 -143 207 -137 l 168 -104 l 253 3 l 311 3 l 253 -69 l 256 -72 q 301 -62 269 -62 q 382 -87 346 -62 q 418 -164 418 -112 q 402 -222 418 -199 q 361 -260 386 -246 q 306 -281 336 -275 q 246 -287 275 -287 q 181 -280 213 -287 q 118 -261 150 -272 l 143 -200 z "},"Ť":{"ha":797,"x_min":3,"x_max":796,"o":"m 333 881 l 3 881 l 3 992 l 796 992 l 796 881 l 465 881 l 465 0 l 333 0 l 333 881 m 463 1082 l 333 1082 l 189 1281 l 306 1281 l 401 1147 l 499 1281 l 606 1281 l 463 1082 z "},"ť":{"ha":438,"x_min":13,"x_max":531,"o":"m 379 992 l 531 992 l 426 793 l 343 793 l 379 992 m 253 718 l 396 718 l 396 614 l 253 614 l 253 168 q 256 135 253 147 q 269 115 260 122 q 297 106 279 108 q 342 104 314 104 l 396 104 l 396 0 l 306 0 q 227 6 260 0 q 174 29 194 13 q 144 76 154 46 q 135 157 135 107 l 135 614 l 13 614 l 13 718 l 135 718 l 135 933 l 253 933 l 253 718 z "},"Ŧ":{"ha":797,"x_min":3,"x_max":796,"o":"m 136 676 l 333 676 l 333 881 l 3 881 l 3 992 l 796 992 l 796 881 l 465 881 l 465 676 l 665 676 l 665 592 l 465 592 l 465 0 l 333 0 l 333 592 l 136 592 l 136 676 z "},"ŧ":{"ha":438,"x_min":13,"x_max":396,"o":"m 19 481 l 135 481 l 135 614 l 13 614 l 13 718 l 135 718 l 135 933 l 253 933 l 253 718 l 396 718 l 396 614 l 253 614 l 253 481 l 385 481 l 385 404 l 253 404 l 253 168 q 256 135 253 147 q 269 115 260 122 q 297 106 279 108 q 342 104 314 104 l 396 104 l 396 0 l 306 0 q 227 6 260 0 q 174 29 194 13 q 144 76 154 46 q 135 157 135 107 l 135 404 l 19 404 l 19 481 z "},"Ũ":{"ha":1003,"x_min":103,"x_max":900,"o":"m 900 358 l 900 992 l 768 992 l 768 358 q 702 156 768 225 q 510 88 636 88 q 306 156 376 88 q 235 358 235 225 l 235 992 l 103 992 l 103 358 q 210 69 103 160 q 510 -22 318 -22 q 799 73 697 -22 q 900 358 900 168 m 608 1165 q 656 1185 639 1165 q 678 1242 674 1206 l 746 1242 q 694 1109 732 1144 q 601 1074 656 1074 q 549 1085 574 1074 q 499 1110 524 1096 q 449 1135 474 1124 q 400 1146 425 1146 q 324 1075 336 1146 l 258 1075 q 308 1199 272 1160 q 401 1238 343 1238 q 456 1226 429 1238 q 507 1201 482 1215 q 558 1176 532 1188 q 608 1165 583 1165 z "},"ũ":{"ha":772,"x_min":89,"x_max":683,"o":"m 683 0 l 683 718 l 565 718 l 565 313 q 552 223 565 264 q 513 151 539 182 q 447 104 486 121 q 353 88 407 88 q 246 126 285 88 q 207 232 207 165 l 207 718 l 89 718 l 89 246 q 101 140 89 188 q 142 57 113 92 q 218 3 171 22 q 336 -15 265 -15 q 474 16 415 -15 q 569 114 532 47 l 572 114 l 572 0 l 683 0 m 493 949 q 541 969 524 949 q 563 1025 558 989 l 631 1025 q 578 892 617 928 q 486 857 540 857 q 433 868 458 857 q 383 893 408 879 q 334 918 358 907 q 285 929 310 929 q 208 858 221 929 l 143 858 q 192 982 157 943 q 286 1021 228 1021 q 340 1010 314 1021 q 392 985 367 999 q 442 960 417 971 q 493 949 468 949 z "},"Ū":{"ha":1003,"x_min":103,"x_max":900,"o":"m 900 358 q 799 72 900 168 q 510 -24 697 -24 q 338 -1 414 -24 q 210 68 263 21 q 131 188 158 115 q 103 358 103 260 l 103 992 l 235 992 l 235 358 q 306 156 235 225 q 510 88 376 88 q 702 156 636 88 q 768 358 768 225 l 768 992 l 900 992 l 900 358 m 268 1211 l 742 1211 l 742 1135 l 268 1135 l 268 1211 z "},"ū":{"ha":772,"x_min":89,"x_max":683,"o":"m 683 0 l 572 0 l 572 114 l 569 114 q 336 -17 496 -17 q 218 3 265 -17 q 142 57 171 22 q 101 140 113 92 q 89 246 89 188 l 89 718 l 207 718 l 207 232 q 246 126 207 165 q 353 88 285 88 q 447 104 407 88 q 513 151 486 121 q 552 223 539 182 q 565 313 565 264 l 565 718 l 683 718 l 683 0 m 150 947 l 624 947 l 624 871 l 150 871 l 150 947 z "},"Ŭ":{"ha":1003,"x_min":103,"x_max":900,"o":"m 900 358 q 799 72 900 168 q 510 -24 697 -24 q 338 -1 414 -24 q 210 68 263 21 q 131 188 158 115 q 103 358 103 260 l 103 992 l 235 992 l 235 358 q 306 156 235 225 q 510 88 376 88 q 702 156 636 88 q 768 358 768 225 l 768 992 l 900 992 l 900 358 m 357 1276 q 513 1161 390 1161 q 601 1192 572 1161 q 650 1276 629 1224 l 721 1276 q 649 1136 706 1188 q 501 1085 593 1085 q 353 1134 406 1085 q 288 1276 301 1183 l 357 1276 z "},"ŭ":{"ha":772,"x_min":89,"x_max":683,"o":"m 683 0 l 572 0 l 572 114 l 569 114 q 336 -17 496 -17 q 218 3 265 -17 q 142 57 171 22 q 101 140 113 92 q 89 246 89 188 l 89 718 l 207 718 l 207 232 q 246 126 207 165 q 353 88 285 88 q 447 104 407 88 q 513 151 486 121 q 552 223 539 182 q 565 313 565 264 l 565 718 l 683 718 l 683 0 m 239 1013 q 394 897 272 897 q 483 928 454 897 q 532 1013 511 960 l 603 1013 q 531 872 588 924 q 383 821 475 821 q 235 870 288 821 q 169 1013 183 919 l 239 1013 z "},"Ů":{"ha":1003,"x_min":103,"x_max":900,"o":"m 900 358 q 799 72 900 168 q 510 -24 697 -24 q 338 -1 414 -24 q 210 68 263 21 q 131 188 158 115 q 103 358 103 260 l 103 992 l 235 992 l 235 358 q 306 156 235 225 q 510 88 376 88 q 702 156 636 88 q 768 358 768 225 l 768 992 l 900 992 l 900 358 m 346 1154 q 358 1215 346 1186 q 392 1264 371 1243 q 442 1297 414 1285 q 503 1310 471 1310 q 563 1297 535 1310 q 613 1264 592 1285 q 647 1215 635 1243 q 660 1154 660 1186 q 647 1094 660 1122 q 613 1044 635 1065 q 563 1011 592 1024 q 503 999 535 999 q 442 1011 471 999 q 392 1044 414 1024 q 358 1094 371 1065 q 346 1154 346 1122 m 410 1153 q 436 1085 410 1113 q 503 1058 463 1058 q 569 1085 543 1058 q 596 1153 596 1113 q 569 1220 596 1193 q 503 1247 543 1247 q 436 1220 463 1247 q 410 1153 410 1193 z "},"ů":{"ha":772,"x_min":89,"x_max":683,"o":"m 683 0 l 572 0 l 572 114 l 569 114 q 336 -17 496 -17 q 218 3 265 -17 q 142 57 171 22 q 101 140 113 92 q 89 246 89 188 l 89 718 l 207 718 l 207 232 q 246 126 207 165 q 353 88 285 88 q 447 104 407 88 q 513 151 486 121 q 552 223 539 182 q 565 313 565 264 l 565 718 l 683 718 l 683 0 m 229 946 q 242 1006 229 978 q 276 1056 254 1035 q 326 1089 297 1076 q 386 1101 354 1101 q 447 1089 418 1101 q 497 1056 475 1076 q 531 1006 518 1035 q 543 946 543 978 q 531 885 543 914 q 497 836 518 857 q 447 803 475 815 q 386 790 418 790 q 326 803 354 790 q 276 836 297 815 q 242 885 254 857 q 229 946 229 914 m 293 944 q 319 877 293 904 q 386 850 346 850 q 453 877 426 850 q 479 944 479 904 q 453 1012 479 985 q 386 1039 426 1039 q 319 1012 346 1039 q 293 944 293 985 z "},"Ű":{"ha":1003,"x_min":103,"x_max":900,"o":"m 900 358 q 799 72 900 168 q 510 -24 697 -24 q 338 -1 414 -24 q 210 68 263 21 q 131 188 158 115 q 103 358 103 260 l 103 992 l 235 992 l 235 358 q 306 156 235 225 q 510 88 376 88 q 702 156 636 88 q 768 358 768 225 l 768 992 l 900 992 l 900 358 m 672 1281 l 818 1281 l 651 1082 l 560 1082 l 672 1281 m 456 1281 l 601 1281 l 435 1082 l 343 1082 l 456 1281 z "},"ű":{"ha":772,"x_min":89,"x_max":700,"o":"m 683 0 l 572 0 l 572 114 l 569 114 q 336 -17 496 -17 q 218 3 265 -17 q 142 57 171 22 q 101 140 113 92 q 89 246 89 188 l 89 718 l 207 718 l 207 232 q 246 126 207 165 q 353 88 285 88 q 447 104 407 88 q 513 151 486 121 q 552 223 539 182 q 565 313 565 264 l 565 718 l 683 718 l 683 0 m 554 1017 l 700 1017 l 533 818 l 442 818 l 554 1017 m 338 1017 l 483 1017 l 317 818 l 225 818 l 338 1017 z "},"Ų":{"ha":1003,"x_min":103,"x_max":900,"o":"m 900 358 q 813 87 900 182 q 561 -21 725 -8 q 488 -103 506 -69 q 469 -164 469 -136 q 484 -206 469 -190 q 526 -222 499 -222 q 608 -181 575 -222 l 653 -206 q 585 -273 625 -254 q 503 -292 546 -292 q 413 -267 450 -292 q 375 -186 375 -242 q 403 -106 375 -147 q 493 -24 431 -64 q 328 1 401 -22 q 206 72 256 25 q 129 190 156 119 q 103 358 103 261 l 103 992 l 235 992 l 235 358 q 306 156 235 225 q 510 88 376 88 q 702 156 636 88 q 768 358 768 225 l 768 992 l 900 992 l 900 358 z "},"ų":{"ha":772,"x_min":89,"x_max":694,"o":"m 683 0 l 628 0 q 569 -53 592 -29 q 534 -96 547 -76 q 516 -132 521 -115 q 511 -164 511 -149 q 526 -206 511 -190 q 568 -222 540 -222 q 650 -181 617 -222 l 694 -206 q 627 -273 667 -254 q 544 -292 588 -292 q 454 -267 492 -292 q 417 -186 417 -242 q 453 -94 417 -142 q 572 0 490 -47 l 572 114 l 569 114 q 336 -17 496 -17 q 218 3 265 -17 q 142 57 171 22 q 101 140 113 92 q 89 246 89 188 l 89 718 l 207 718 l 207 232 q 246 126 207 165 q 353 88 285 88 q 447 104 407 88 q 513 151 486 121 q 552 223 539 182 q 565 313 565 264 l 565 718 l 683 718 l 683 0 z "},"Ŵ":{"ha":1286,"x_min":17,"x_max":1269,"o":"m 1004 0 l 867 0 l 640 833 l 638 833 l 408 0 l 271 0 l 17 992 l 151 992 l 346 167 l 349 167 l 571 992 l 714 992 l 933 167 l 936 167 l 1138 992 l 1269 992 l 1004 0 m 579 1281 l 708 1281 l 853 1082 l 736 1082 l 640 1215 l 543 1082 l 436 1082 l 579 1281 z "},"ŵ":{"ha":1053,"x_min":24,"x_max":1029,"o":"m 800 0 l 675 0 l 529 571 l 526 571 l 382 0 l 254 0 l 24 718 l 154 718 l 317 131 l 319 131 l 464 718 l 593 718 l 743 131 l 746 131 l 907 718 l 1029 718 l 800 0 m 467 1017 l 596 1017 l 740 818 l 624 818 l 528 951 l 431 818 l 324 818 l 467 1017 z "},"Ŷ":{"ha":900,"x_min":3,"x_max":897,"o":"m 518 406 l 518 0 l 386 0 l 386 406 l 3 992 l 160 992 l 457 519 l 747 992 l 897 992 l 518 406 m 392 1281 l 521 1281 l 665 1082 l 549 1082 l 453 1215 l 356 1082 l 249 1082 l 392 1281 z "},"ŷ":{"ha":694,"x_min":11,"x_max":683,"o":"m 371 -96 q 330 -185 350 -149 q 285 -244 310 -221 q 231 -277 261 -267 q 163 -287 201 -287 q 121 -285 142 -287 q 81 -275 100 -282 l 81 -167 q 115 -178 97 -172 q 150 -183 132 -183 q 208 -167 186 -183 q 247 -118 231 -150 l 296 4 l 11 718 l 144 718 l 354 131 l 357 131 l 558 718 l 683 718 l 371 -96 m 290 1017 l 419 1017 l 564 818 l 447 818 l 351 951 l 254 818 l 147 818 l 290 1017 z "},"Ÿ":{"ha":900,"x_min":3,"x_max":897,"o":"m 257 1213 l 257 1068 l 382 1068 l 382 1213 l 257 1213 m 518 1213 l 518 1068 l 643 1068 l 643 1213 l 518 1213 m 518 406 l 897 992 l 747 992 l 457 519 l 160 992 l 3 992 l 386 406 l 386 0 l 518 0 l 518 406 z "},"Ź":{"ha":849,"x_min":31,"x_max":819,"o":"m 31 111 l 31 0 l 819 0 l 819 111 l 188 111 l 803 881 l 803 992 l 78 992 l 78 881 l 647 881 l 31 111 m 643 1288 l 447 1063 l 358 1063 l 492 1288 l 643 1288 z "},"ź":{"ha":667,"x_min":31,"x_max":636,"o":"m 31 90 l 31 0 l 636 0 l 636 104 l 178 104 l 617 638 l 617 718 l 58 718 l 58 614 l 464 614 l 31 90 m 546 1069 l 350 844 l 261 844 l 394 1069 l 546 1069 z "},"Ż":{"ha":849,"x_min":31,"x_max":819,"o":"m 31 111 l 31 0 l 819 0 l 819 111 l 188 111 l 803 881 l 803 992 l 78 992 l 78 881 l 647 881 l 31 111 m 363 1122 l 363 1267 l 488 1267 l 488 1122 l 363 1122 z "},"ż":{"ha":667,"x_min":31,"x_max":636,"o":"m 31 90 l 31 0 l 636 0 l 636 104 l 178 104 l 617 638 l 617 718 l 58 718 l 58 614 l 464 614 l 31 90 m 271 883 l 271 1028 l 396 1028 l 396 883 l 271 883 z "},"Ž":{"ha":849,"x_min":31,"x_max":819,"o":"m 490 1063 l 633 1261 l 526 1261 l 429 1128 l 333 1261 l 217 1261 l 361 1063 l 490 1063 m 31 111 l 31 0 l 819 0 l 819 111 l 188 111 l 803 881 l 803 992 l 78 992 l 78 881 l 647 881 l 31 111 z "},"ž":{"ha":667,"x_min":31,"x_max":636,"o":"m 399 817 l 542 1015 l 435 1015 l 338 882 l 242 1015 l 125 1015 l 269 817 l 399 817 m 31 90 l 31 0 l 636 0 l 636 104 l 178 104 l 617 638 l 617 718 l 58 718 l 58 614 l 464 614 l 31 90 z "},"ſ":{"ha":386,"x_min":19,"x_max":363,"o":"m 240 626 l 240 0 l 119 0 l 119 626 l 19 626 l 19 724 l 119 724 l 119 838 q 146 949 122 913 q 311 1011 189 1011 q 335 1010 322 1011 q 363 1008 347 1010 l 363 897 q 335 898 344 897 q 319 899 326 899 q 253 869 264 899 q 240 626 242 840 z "},"ƀ":{"ha":772,"x_min":38,"x_max":772,"o":"m 435 81 q 594 159 544 81 q 643 354 643 238 q 585 563 643 492 q 436 633 528 633 q 297 567 353 633 q 240 363 240 500 q 295 153 240 226 q 435 81 350 81 m 319 704 q 460 739 376 739 q 691 623 610 739 q 772 347 772 507 q 683 76 772 178 q 472 -26 594 -26 q 339 3 397 -26 q 238 101 281 33 l 238 0 l 128 0 l 128 821 l 38 821 l 38 901 l 128 901 l 128 1000 l 246 1000 l 246 901 l 472 901 l 472 821 l 246 821 l 246 633 q 319 704 288 683 z "},"Ƃ":{"ha":926,"x_min":118,"x_max":863,"o":"m 118 996 l 847 996 l 847 874 l 254 874 l 254 575 l 567 575 q 790 489 718 575 q 863 286 863 403 q 781 75 863 150 q 567 0 700 0 l 118 0 l 118 996 m 644 138 q 726 286 726 176 q 669 422 726 383 q 522 461 613 461 l 254 461 l 254 115 l 522 115 q 644 138 600 115 z "},"ƃ":{"ha":772,"x_min":81,"x_max":719,"o":"m 81 1000 l 100 1000 l 100 1000 l 631 1000 l 631 878 l 199 878 l 199 638 q 294 718 239 690 q 415 746 350 746 q 635 652 550 746 q 719 376 719 558 q 636 90 719 204 q 406 -24 553 -24 q 265 17 322 -24 q 193 93 232 40 l 193 0 l 81 0 l 81 1000 m 594 371 q 545 561 594 486 q 401 636 496 636 q 255 574 318 636 q 192 371 192 513 q 218 204 192 268 q 397 85 265 85 q 545 163 496 85 q 594 371 594 242 z "},"Ɔ":{"ha":1003,"x_min":60,"x_max":944,"o":"m 69 300 l 201 300 q 290 147 224 203 q 478 90 357 90 q 716 194 625 90 q 807 511 807 297 q 725 795 807 686 q 481 904 643 904 q 254 789 332 904 q 192 631 213 729 l 60 631 q 176 894 78 788 q 497 1022 296 1022 q 789 918 671 1022 q 944 489 944 779 q 828 126 944 268 q 479 -26 701 -26 q 186 74 290 -26 q 69 300 82 174 z "},"Ɖ":{"ha":1003,"x_min":22,"x_max":935,"o":"m 22 586 l 113 586 l 113 996 l 493 996 q 853 826 740 996 q 935 515 935 701 q 872 219 935 349 q 514 0 767 0 l 113 0 l 113 465 l 22 465 l 22 586 m 247 586 l 532 586 l 532 465 l 247 465 l 247 115 l 489 115 q 601 129 557 115 q 729 232 679 156 q 788 386 769 292 q 797 490 797 442 q 724 778 797 675 q 488 881 650 881 l 247 881 l 247 586 z "},"Ƌ":{"ha":926,"x_min":118,"x_max":863,"o":"m 863 0 l 414 0 q 200 75 282 0 q 118 286 118 150 q 191 489 118 403 q 414 575 264 575 l 728 575 l 728 874 l 135 874 l 135 996 l 863 996 l 863 0 m 336 138 q 460 115 381 115 l 728 115 l 728 461 l 460 461 q 312 422 368 461 q 256 286 256 383 q 336 138 256 176 z "},"ƌ":{"ha":772,"x_min":81,"x_max":719,"o":"m 719 0 l 607 0 l 607 93 q 535 17 568 40 q 394 -24 478 -24 q 164 90 247 -24 q 81 376 81 204 q 165 652 81 558 q 385 746 249 746 q 506 718 450 746 q 601 638 561 690 l 601 878 l 169 878 l 169 1000 l 699 1000 l 699 1000 l 719 1000 l 719 0 m 204 371 q 253 163 204 242 q 403 85 303 85 q 582 204 533 85 q 607 371 607 268 q 544 574 607 513 q 399 636 482 636 q 253 561 303 636 q 204 371 204 486 z "},"ƍ":{"ha":788,"x_min":50,"x_max":724,"o":"m 50 661 q 143 898 50 803 q 389 993 236 993 q 630 902 536 993 q 724 674 724 811 q 643 396 724 503 q 392 289 563 289 l 651 97 l 651 -14 l 119 -14 l 119 86 l 508 86 l 221 300 q 90 456 131 367 q 50 661 50 546 m 386 882 q 222 809 283 882 q 161 625 161 736 q 228 429 161 483 q 385 375 294 375 q 406 375 396 375 q 467 385 421 378 q 562 466 513 392 q 611 638 611 540 q 549 813 611 743 q 386 882 488 882 z "},"Ǝ":{"ha":926,"x_min":118,"x_max":856,"o":"m 856 0 l 118 0 l 118 118 l 724 118 l 724 456 l 174 456 l 174 571 l 724 571 l 724 874 l 129 874 l 129 996 l 856 996 l 856 0 z "},"Ə":{"ha":1032,"x_min":53,"x_max":979,"o":"m 514 -22 q 304 20 392 -22 q 161 135 217 63 q 79 300 106 207 q 53 496 53 393 q 53 523 53 513 q 56 550 53 533 l 844 550 q 810 686 836 621 q 742 800 785 751 q 640 878 700 849 q 504 907 581 907 q 401 892 450 907 q 313 851 353 878 q 244 787 274 824 q 200 706 215 750 l 69 706 q 126 838 83 781 q 227 935 168 896 q 358 995 286 975 q 501 1015 429 1015 q 708 974 618 1015 q 858 861 797 932 q 949 695 918 790 q 979 494 979 600 q 943 276 979 372 q 844 114 907 181 q 697 13 782 47 q 514 -22 613 -22 m 508 85 q 646 112 585 85 q 751 186 707 139 q 821 299 796 233 q 850 440 846 364 l 186 440 q 209 315 190 378 q 267 200 228 251 q 365 117 306 149 q 508 85 424 85 z "},"Ɛ":{"ha":743,"x_min":63,"x_max":686,"o":"m 374 69 q 522 142 463 69 q 585 300 575 207 l 686 300 q 600 74 678 165 q 360 -33 510 -33 q 144 63 231 -33 q 63 286 63 156 q 88 431 63 376 q 190 533 117 493 q 88 739 88 619 q 160 951 88 871 q 365 1033 235 1033 q 589 936 507 1033 q 667 700 667 843 l 567 699 q 514 856 567 785 q 372 932 456 932 q 245 885 292 932 q 199 757 199 839 q 260 610 199 650 q 418 578 306 579 l 418 478 q 369 481 385 481 q 171 293 171 481 q 222 135 171 194 q 374 69 278 69 z "},"Ƒ":{"ha":849,"x_min":1,"x_max":810,"o":"m 1 -183 q 100 -169 83 -181 q 117 -94 117 -157 l 117 724 l 118 724 l 118 996 l 810 996 l 810 874 l 254 874 l 254 572 l 743 572 l 743 453 l 254 453 l 254 -108 q 228 -226 254 -187 q 51 -293 171 -293 q 32 -292 42 -293 q 1 -289 22 -292 l 1 -183 z "},"ƒ":{"ha":772,"x_min":4,"x_max":683,"o":"m 664 888 l 683 992 l 581 992 q 437 942 492 992 q 367 813 382 892 l 331 624 l 204 624 l 186 529 l 314 529 l 217 17 q 197 -58 208 -31 q 166 -101 186 -86 q 112 -119 146 -115 q 24 -124 78 -124 l 4 -228 l 96 -228 q 196 -212 154 -228 q 269 -160 238 -197 q 322 -60 300 -122 q 360 97 343 3 l 436 529 l 575 529 l 594 624 l 453 624 l 496 815 q 524 869 504 851 q 582 888 544 888 l 664 888 z "},"Ɩ":{"ha":308,"x_min":42,"x_max":279,"o":"m 279 -17 q 249 -19 258 -18 q 231 -19 239 -19 q 68 47 111 -19 q 42 165 42 86 l 42 996 l 164 996 l 164 178 q 181 103 164 115 q 279 89 197 92 l 279 -17 z "},"Ɨ":{"ha":474,"x_min":24,"x_max":458,"o":"m 24 624 l 181 624 l 181 996 l 303 996 l 303 624 l 458 624 l 458 544 l 303 544 l 303 0 l 181 0 l 181 544 l 24 544 l 24 624 z "},"ƚ":{"ha":474,"x_min":24,"x_max":458,"o":"m 24 624 l 181 624 l 181 996 l 303 996 l 303 624 l 458 624 l 458 544 l 303 544 l 303 0 l 181 0 l 181 544 l 24 544 l 24 624 z "},"ƛ":{"ha":772,"x_min":25,"x_max":747,"o":"m 89 774 l 263 822 l 260 832 q 176 897 233 900 l 132 897 l 132 999 q 201 1006 160 1006 q 307 969 272 1006 q 371 853 340 932 l 567 908 l 567 829 l 400 781 l 653 157 q 676 118 663 136 q 713 100 690 100 l 747 100 l 747 0 l 676 0 q 539 103 576 0 l 369 550 l 160 0 l 25 0 l 310 699 l 290 750 l 89 693 l 89 774 z "},"Ɲ":{"ha":1003,"x_min":-10,"x_max":897,"o":"m -10 -183 q 89 -169 72 -181 q 106 -94 106 -157 l 106 996 l 265 996 l 768 189 l 768 996 l 897 996 l 897 0 l 746 0 l 235 807 l 235 0 l 228 0 l 228 -108 q 203 -226 228 -187 q 40 -293 160 -293 q 21 -292 31 -293 q -10 -289 11 -292 l -10 -183 z "},"ƞ":{"ha":772,"x_min":89,"x_max":682,"o":"m 89 726 l 206 726 l 206 624 q 315 715 257 688 q 443 743 372 743 q 651 635 597 743 q 682 465 682 576 l 682 -269 l 557 -269 l 557 458 q 538 565 557 524 q 419 633 506 633 q 349 624 376 633 q 260 564 299 608 q 221 490 231 528 q 211 381 211 451 l 211 0 l 89 0 l 89 726 z "},"Ɵ":{"ha":1081,"x_min":54,"x_max":1025,"o":"m 926 854 q 1025 515 1025 722 q 913 144 1025 292 q 533 -29 779 -29 q 172 122 303 -29 q 54 493 54 269 q 154 839 54 694 q 536 1024 283 1024 q 926 854 800 1024 m 278 204 q 550 92 361 92 q 807 219 728 92 q 883 450 871 322 l 194 450 q 278 204 203 307 m 794 796 q 544 903 703 903 q 292 797 389 903 q 197 550 210 708 l 886 550 q 794 796 878 700 z "},"Ơ":{"ha":1235,"x_min":53,"x_max":1193,"o":"m 53 496 q 83 691 53 597 q 175 857 114 785 q 328 972 236 929 q 542 1015 419 1015 q 747 976 660 1015 q 897 869 835 936 q 977 878 943 869 q 1029 897 1011 888 l 1001 964 l 1138 1021 l 1193 888 l 1067 835 q 1010 817 1046 825 q 946 806 975 808 q 1009 660 988 739 q 1031 496 1031 581 q 1000 300 1031 393 q 908 135 969 207 q 756 20 847 63 q 542 -22 664 -22 q 328 20 419 -22 q 175 135 236 63 q 83 300 114 207 q 53 496 53 393 m 185 496 q 205 348 185 421 q 269 217 225 275 q 380 123 313 158 q 542 88 447 88 q 703 123 636 88 q 815 217 771 158 q 878 348 858 275 q 899 496 899 421 q 878 644 899 571 q 815 775 858 717 q 703 869 771 833 q 542 904 636 904 q 380 869 447 904 q 269 775 313 833 q 205 644 225 717 q 185 496 185 571 z "},"ơ":{"ha":939,"x_min":50,"x_max":908,"o":"m 50 358 q 72 506 50 438 q 139 626 94 575 q 249 706 183 676 q 399 735 314 735 q 549 706 485 735 q 663 621 614 676 q 744 646 711 625 l 717 714 l 853 771 l 908 636 l 781 583 q 703 558 740 567 q 725 506 715 533 q 747 358 747 438 q 725 211 747 279 q 658 92 703 143 q 549 13 614 42 q 399 -15 485 -15 q 249 13 314 -15 q 139 92 183 42 q 72 211 94 143 q 50 358 50 279 m 175 358 q 192 242 175 293 q 240 158 210 192 q 312 106 271 124 q 399 88 353 88 q 485 106 444 88 q 557 158 526 124 q 605 242 588 192 q 622 358 622 293 q 605 474 622 424 q 557 560 588 525 q 485 613 526 594 q 399 631 444 631 q 312 613 353 631 q 240 560 271 594 q 192 474 210 525 q 175 358 175 424 z "},"Ƣ":{"ha":1115,"x_min":53,"x_max":1007,"o":"m 875 881 l 771 881 l 771 39 q 667 -3 729 15 q 528 -22 604 -22 q 321 20 410 -22 q 172 135 232 63 q 83 300 113 207 q 53 496 53 393 q 83 691 53 597 q 172 857 113 785 q 321 972 232 929 q 528 1015 410 1015 q 688 992 618 1015 l 1007 992 l 1007 -274 l 875 -274 l 875 881 m 528 88 q 554 89 539 88 q 585 92 569 90 q 615 98 600 94 q 639 104 629 101 l 639 888 q 593 899 618 893 q 528 904 568 904 q 372 869 438 904 q 265 775 307 833 q 204 644 224 717 q 185 496 185 571 q 204 348 185 421 q 265 217 224 275 q 372 123 307 158 q 528 88 438 88 z "},"ƣ":{"ha":892,"x_min":50,"x_max":803,"o":"m 685 614 l 593 614 l 593 36 q 505 -2 553 11 q 399 -15 457 -15 q 248 13 313 -15 q 139 92 183 42 q 72 211 94 143 q 50 358 50 279 q 72 506 50 438 q 139 626 94 575 q 248 706 183 676 q 399 735 313 735 q 515 718 463 735 l 803 718 l 803 -274 l 685 -274 l 685 614 m 399 88 q 475 101 436 88 l 475 617 q 399 631 436 631 q 312 613 353 631 q 240 560 271 594 q 192 474 210 525 q 175 358 175 424 q 192 242 175 293 q 240 158 210 192 q 312 106 271 124 q 399 88 353 88 z "},"Ʀ":{"ha":886,"x_min":35,"x_max":863,"o":"m 35 996 l 171 996 l 171 861 l 496 861 q 685 828 610 861 q 825 592 825 764 q 788 446 825 503 q 685 354 751 389 q 772 292 743 331 q 806 167 801 253 l 810 32 q 819 -53 811 -25 q 863 -114 832 -100 l 863 -136 l 697 -136 q 686 -102 690 -122 q 679 -24 682 -82 l 671 143 q 599 274 667 240 q 478 292 560 292 l 171 292 l 171 0 l 35 0 l 35 996 m 482 404 q 633 442 578 404 q 688 579 688 481 q 610 724 688 686 q 500 744 569 744 l 171 744 l 171 404 l 482 404 z "},"Ƨ":{"ha":926,"x_min":65,"x_max":860,"o":"m 860 321 q 756 65 861 160 q 465 -29 651 -29 q 185 42 306 -29 q 65 279 65 114 q 160 482 65 411 q 317 544 215 521 l 456 576 q 636 631 597 608 q 697 738 697 665 q 645 854 697 804 q 474 904 593 904 q 264 826 326 904 q 221 704 232 783 l 94 704 q 204 945 94 869 q 469 1021 314 1021 q 733 935 640 1021 q 826 715 826 849 q 731 528 826 590 q 544 463 676 492 l 408 432 q 247 374 299 407 q 197 257 197 339 q 318 107 197 149 q 456 85 379 85 q 693 183 625 85 q 732 321 728 236 l 860 321 z "},"ƨ":{"ha":694,"x_min":44,"x_max":644,"o":"m 644 228 q 572 46 639 119 q 343 -28 504 -28 q 118 43 192 -28 q 44 210 44 114 q 115 357 44 311 q 292 419 161 388 l 374 439 q 453 468 426 451 q 500 544 500 497 q 465 614 500 588 q 360 640 429 640 q 214 593 256 640 q 185 518 188 558 l 69 518 q 114 649 68 588 q 350 746 186 746 q 549 682 475 746 q 624 515 624 618 q 546 378 624 428 q 408 326 501 349 l 311 301 q 207 267 233 282 q 165 196 165 243 q 217 105 165 135 q 336 75 268 75 q 496 135 450 75 q 526 228 521 167 l 644 228 z "},"Ʃ":{"ha":797,"x_min":39,"x_max":758,"o":"m 39 111 l 443 496 l 69 882 l 69 993 l 742 993 l 742 882 l 226 882 l 600 496 l 196 111 l 758 111 l 758 0 l 39 0 l 39 111 z "},"Ʈ":{"ha":849,"x_min":22,"x_max":831,"o":"m 243 -183 q 342 -169 325 -181 q 358 -94 358 -157 l 358 878 l 22 878 l 22 996 l 831 996 l 831 878 l 494 878 l 494 -108 q 469 -226 494 -187 q 292 -293 411 -293 q 274 -292 283 -293 q 243 -289 264 -292 l 243 -183 z "},"Ư":{"ha":1197,"x_min":103,"x_max":1161,"o":"m 900 358 q 799 73 900 168 q 510 -22 697 -22 q 210 69 318 -22 q 103 358 103 160 l 103 992 l 235 992 l 235 358 q 306 156 235 225 q 510 88 376 88 q 702 156 636 88 q 768 358 768 225 l 768 992 l 900 992 l 900 910 q 997 935 958 910 l 969 1003 l 1106 1060 l 1161 925 l 1035 872 q 900 844 965 843 l 900 358 l 900 358 z "},"ư":{"ha":969,"x_min":86,"x_max":939,"o":"m 569 0 l 569 114 l 567 114 q 471 16 529 47 q 333 -15 413 -15 q 215 3 263 -15 q 139 57 168 22 q 98 140 110 92 q 86 246 86 188 l 86 718 l 204 718 l 204 232 q 243 126 204 165 q 350 88 282 88 q 444 104 404 88 q 510 151 483 121 q 549 223 536 182 q 563 313 563 264 l 563 718 l 681 718 l 681 621 q 775 646 739 624 l 747 714 l 883 771 l 939 636 l 811 583 q 681 556 743 554 l 681 0 l 569 0 z "},"Ʊ":{"ha":1049,"x_min":56,"x_max":989,"o":"m 864 469 q 794 722 864 600 q 608 894 725 844 l 608 1007 l 989 1007 l 989 896 l 736 896 q 904 749 819 863 q 989 469 989 636 q 869 132 989 264 q 522 0 749 0 q 176 131 296 0 q 56 469 56 263 q 140 749 56 636 q 308 896 224 863 l 56 896 l 56 1007 l 436 1007 l 436 894 q 250 724 319 844 q 181 469 181 603 q 272 222 181 318 q 519 125 363 125 q 772 221 681 125 q 864 469 864 317 z "},"Ƶ":{"ha":849,"x_min":31,"x_max":819,"o":"m 31 111 l 306 454 l 122 454 l 122 565 l 394 565 l 647 881 l 78 881 l 78 992 l 803 992 l 803 881 l 550 565 l 753 565 l 753 454 l 461 454 l 188 111 l 819 111 l 819 0 l 31 0 l 31 111 z "},"ƶ":{"ha":667,"x_min":31,"x_max":636,"o":"m 31 90 l 225 326 l 111 326 l 111 431 l 311 431 l 464 614 l 58 614 l 58 718 l 617 718 l 617 638 l 446 431 l 558 431 l 558 326 l 360 326 l 178 104 l 636 104 l 636 0 l 31 0 l 31 90 z "},"Ʒ":{"ha":763,"x_min":24,"x_max":726,"o":"m 174 564 l 547 885 l 31 885 l 31 996 l 704 996 l 704 885 l 460 674 q 633 574 563 656 q 726 275 726 467 q 622 56 726 119 q 374 -7 517 -7 q 145 60 247 -7 q 24 271 43 126 l 142 271 q 224 144 158 190 q 364 97 289 97 q 529 131 463 97 q 596 274 596 165 q 555 476 596 382 q 397 571 514 571 l 331 564 l 174 564 z "},"Ƹ":{"ha":763,"x_min":36,"x_max":740,"o":"m 433 564 l 367 571 q 208 476 250 571 q 167 274 167 382 q 233 131 167 165 q 399 97 300 97 q 540 144 475 97 q 621 271 604 190 l 740 271 q 618 60 719 126 q 389 -7 517 -7 q 142 56 247 -7 q 36 275 36 119 q 129 574 36 467 q 303 674 201 656 l 58 885 l 58 996 l 732 996 l 732 885 l 217 885 l 590 564 l 433 564 z "},"ƹ":{"ha":694,"x_min":35,"x_max":671,"o":"m 432 290 l 365 297 q 207 203 249 297 q 165 0 165 110 q 228 -149 165 -108 q 390 -190 292 -190 q 501 -137 467 -190 q 551 -3 535 -83 l 671 -3 q 579 -221 650 -147 q 381 -294 508 -294 q 137 -224 239 -294 q 35 1 35 -154 q 128 300 35 193 q 301 400 200 382 l 58 611 l 58 724 l 663 724 l 663 611 l 215 611 l 589 290 l 432 290 z "},"ƻ":{"ha":786,"x_min":47,"x_max":750,"o":"m 275 388 l 406 463 q 528 550 492 514 q 583 678 583 606 q 533 813 583 763 q 397 863 482 863 q 224 768 271 863 q 194 626 197 717 l 71 626 q 117 833 72 753 q 397 975 197 975 q 641 885 564 975 q 718 683 718 794 q 636 485 718 567 q 465 368 589 436 l 374 317 q 268 246 307 279 q 183 115 201 188 l 714 115 l 714 0 l 47 0 q 99 218 54 125 q 275 388 144 311 m 86 431 l 86 526 l 750 526 l 750 431 l 86 431 z "},"ǀ":{"ha":361,"x_min":124,"x_max":239,"o":"m 239 0 l 124 0 l 124 1011 l 239 1011 l 239 0 z "},"ǁ":{"ha":599,"x_min":124,"x_max":476,"o":"m 239 0 l 124 0 l 124 1011 l 239 1011 l 239 0 m 476 0 l 361 0 l 361 1011 l 476 1011 l 476 0 z "},"ǂ":{"ha":789,"x_min":29,"x_max":736,"o":"m 736 679 l 736 565 l 433 565 l 433 389 l 736 389 l 736 272 l 433 272 l 433 0 l 318 0 l 318 272 l 29 272 l 29 389 l 318 389 l 318 565 l 29 565 l 29 679 l 318 679 l 318 1011 l 433 1011 l 433 679 l 736 679 z "},"ǃ":{"ha":386,"x_min":132,"x_max":269,"o":"m 132 996 l 269 996 l 269 668 l 236 238 l 168 238 l 132 668 l 132 996 m 132 142 l 267 142 l 267 0 l 132 0 l 132 142 z "},"Ǆ":{"ha":1715,"x_min":79,"x_max":1671,"o":"m 456 115 q 568 129 524 115 q 696 232 646 156 q 754 386 736 292 q 764 490 764 442 q 690 778 764 675 q 454 881 617 881 l 214 881 l 214 115 l 456 115 m 79 996 l 482 996 q 801 850 688 996 q 901 514 901 719 q 842 226 901 354 q 481 0 738 0 l 79 0 l 79 996 m 886 115 l 1497 881 l 931 881 l 931 1000 l 1671 1000 l 1671 883 l 1057 122 l 1671 122 l 1671 3 l 886 3 l 886 115 m 1338 1079 l 1210 1079 l 1071 1275 l 1182 1275 l 1274 1144 l 1365 1275 l 1476 1275 l 1338 1079 z "},"ǅ":{"ha":1519,"x_min":54,"x_max":1497,"o":"m 431 115 q 543 129 499 115 q 671 232 621 156 q 729 386 711 292 q 739 490 739 442 q 665 778 739 675 q 429 881 592 881 l 189 881 l 189 115 l 431 115 m 54 996 l 457 996 q 776 850 663 996 q 876 514 876 719 q 817 226 876 354 q 456 0 713 0 l 54 0 l 54 996 m 890 96 l 1321 617 l 922 617 l 922 726 l 1485 726 l 1485 626 l 1057 110 l 1497 110 l 1497 0 l 890 0 l 890 96 m 1272 811 l 1143 811 l 1006 1008 l 1115 1008 l 1207 878 l 1299 1008 l 1410 1008 l 1272 811 z "},"ǆ":{"ha":1364,"x_min":38,"x_max":1343,"o":"m 375 81 q 515 153 460 81 q 569 363 569 226 q 513 567 569 500 q 374 633 457 633 q 224 563 282 633 q 167 354 167 492 q 216 159 167 238 q 375 81 265 81 m 490 704 q 564 633 522 683 l 564 1000 l 682 1000 l 682 0 l 572 0 l 572 101 q 471 3 529 33 q 338 -26 413 -26 q 126 76 215 -26 q 38 347 38 178 q 119 623 38 507 q 350 739 200 739 q 490 704 433 739 m 735 96 l 1165 617 l 767 617 l 767 726 l 1331 726 l 1331 626 l 901 110 l 1343 110 l 1343 0 l 735 0 l 735 96 m 1131 808 l 1003 808 l 865 1004 l 975 1004 l 1067 874 l 1158 1004 l 1269 1004 l 1131 808 z "},"Ǉ":{"ha":1363,"x_min":72,"x_max":1328,"o":"m 72 996 l 207 996 l 207 118 l 713 118 l 713 0 l 72 0 l 72 996 m 1328 297 q 1290 101 1328 171 q 1026 -26 1221 -26 q 835 34 915 -26 q 756 250 756 94 l 756 321 l 883 321 l 883 250 q 919 128 883 169 q 1032 86 956 86 q 1174 161 1140 86 q 1193 332 1193 206 l 1193 996 l 1328 996 l 1328 297 z "},"ǈ":{"ha":982,"x_min":76,"x_max":949,"o":"m 76 996 l 211 996 l 211 118 l 717 118 l 717 0 l 76 0 l 76 996 m 949 856 l 826 856 l 826 996 l 949 996 l 949 856 m 711 -183 q 810 -169 793 -181 q 826 -94 826 -157 l 826 724 l 949 724 l 949 -108 q 922 -226 949 -187 q 760 -293 879 -293 q 742 -292 751 -293 q 711 -289 732 -292 l 711 -183 z "},"ǉ":{"ha":515,"x_min":60,"x_max":481,"o":"m 60 996 l 182 996 l 182 0 l 60 0 l 60 996 m 481 856 l 358 856 l 358 996 l 481 996 l 481 856 m 243 -183 q 342 -169 325 -181 q 358 -94 358 -157 l 358 724 l 481 724 l 481 -108 q 454 -226 481 -187 q 292 -293 411 -293 q 274 -292 283 -293 q 243 -289 264 -292 l 243 -183 z "},"Ǌ":{"ha":1546,"x_min":76,"x_max":1485,"o":"m 76 996 l 236 996 l 739 189 l 739 996 l 868 996 l 868 0 l 717 0 l 206 807 l 206 0 l 76 0 l 76 996 m 1485 315 q 1447 119 1485 189 q 1185 -8 1379 -8 q 993 53 1072 -8 q 914 268 914 114 l 914 340 l 1042 340 l 1042 268 q 1078 147 1042 188 q 1190 106 1114 106 q 1331 179 1299 106 q 1351 350 1351 225 l 1351 1014 l 1485 1014 l 1485 315 z "},"ǋ":{"ha":1204,"x_min":72,"x_max":1175,"o":"m 72 996 l 232 996 l 735 189 l 735 996 l 864 996 l 864 0 l 713 0 l 201 807 l 201 0 l 72 0 l 72 996 m 1175 856 l 1053 856 l 1053 996 l 1175 996 l 1175 856 m 938 -183 q 1036 -169 1019 -181 q 1053 -94 1053 -157 l 1053 724 l 1175 724 l 1175 -108 q 1149 -226 1175 -187 q 986 -293 1106 -293 q 968 -292 978 -293 q 938 -289 958 -292 l 938 -183 z "},"ǌ":{"ha":978,"x_min":57,"x_max":944,"o":"m 57 726 l 172 726 l 172 624 q 281 715 224 688 q 410 743 339 743 q 618 635 564 743 q 649 465 649 576 l 649 0 l 524 0 l 524 458 q 504 565 524 524 q 386 633 472 633 q 315 624 343 633 q 228 564 265 608 q 188 490 197 528 q 178 381 178 451 l 178 0 l 57 0 l 57 726 m 944 856 l 822 856 l 822 996 l 944 996 l 944 856 m 707 -183 q 806 -169 789 -181 q 822 -94 822 -157 l 822 724 l 944 724 l 944 -108 q 918 -226 944 -187 q 756 -293 875 -293 q 738 -292 747 -293 q 707 -289 728 -292 l 707 -183 z "},"Ǎ":{"ha":926,"x_min":21,"x_max":910,"o":"m 617 408 l 465 849 l 306 408 l 617 408 m 396 996 l 549 996 l 910 0 l 761 0 l 661 299 l 267 299 l 158 0 l 21 0 l 396 996 m 557 1071 l 428 1071 l 290 1268 l 401 1268 l 492 1138 l 583 1268 l 694 1268 l 557 1071 z "},"ǎ":{"ha":772,"x_min":50,"x_max":725,"o":"m 725 3 q 640 -15 694 -15 q 567 10 594 -15 q 540 94 540 36 q 427 10 492 36 q 288 -15 363 -15 q 195 -4 239 -15 q 119 31 151 7 q 69 92 88 54 q 50 185 50 131 q 71 285 50 246 q 126 348 92 324 q 203 385 160 372 q 293 406 247 397 q 385 420 342 415 q 463 434 429 425 q 515 460 496 443 q 535 511 535 478 q 520 574 535 550 q 483 610 506 597 q 431 626 460 622 q 375 631 403 631 q 250 602 300 631 q 196 494 200 574 l 78 494 q 106 607 81 561 q 172 681 131 653 q 267 722 214 710 q 382 735 321 735 q 478 728 431 735 q 565 699 526 721 q 628 639 604 678 q 651 538 651 600 l 651 168 q 656 107 651 126 q 689 88 661 88 q 725 94 704 88 l 725 3 m 533 371 q 475 347 511 354 q 399 334 439 339 q 319 323 360 329 q 247 303 279 317 q 195 263 215 289 q 175 193 175 238 q 187 144 175 164 q 217 111 199 124 q 261 93 236 99 q 314 88 286 88 q 414 103 372 88 q 482 144 456 119 q 521 197 508 168 q 533 250 533 225 l 533 371 m 322 844 l 179 1043 l 294 1043 l 390 906 l 488 1043 l 594 1043 l 451 844 l 322 844 z "},"Ǐ":{"ha":386,"x_min":4,"x_max":408,"o":"m 136 996 l 272 996 l 272 0 l 136 0 l 136 996 m 271 1075 l 142 1075 l 4 1272 l 115 1272 l 206 1142 l 297 1272 l 408 1272 l 271 1075 z "},"ǐ":{"ha":386,"x_min":-14,"x_max":401,"o":"m 135 0 l 253 0 l 253 718 l 135 718 l 135 0 m 129 844 l -14 1043 l 101 1043 l 197 906 l 294 1043 l 401 1043 l 258 844 l 129 844 z "},"Ǒ":{"ha":1081,"x_min":54,"x_max":1025,"o":"m 926 854 q 1025 515 1025 722 q 913 144 1025 292 q 533 -29 779 -29 q 172 122 303 -29 q 54 493 54 269 q 154 839 54 694 q 536 1024 283 1024 q 926 854 800 1024 m 888 514 q 795 796 888 689 q 544 903 703 903 q 292 797 389 903 q 194 485 194 692 q 278 205 194 318 q 550 92 361 92 q 808 219 728 92 q 888 514 888 347 m 621 1094 l 492 1094 l 354 1290 l 465 1290 l 557 1160 l 649 1290 l 760 1290 l 621 1094 z "},"ǒ":{"ha":772,"x_min":38,"x_max":735,"o":"m 163 358 q 180 474 163 424 q 228 560 197 525 q 299 613 258 594 q 386 631 340 631 q 473 613 432 631 q 544 560 514 594 q 592 474 575 525 q 610 358 610 424 q 592 242 610 293 q 544 158 575 192 q 473 106 514 124 q 386 88 432 88 q 299 106 340 88 q 228 158 258 124 q 180 242 197 192 q 163 358 163 293 m 38 358 q 60 211 38 279 q 126 92 82 143 q 236 13 171 42 q 386 -15 301 -15 q 537 13 472 -15 q 646 92 601 42 q 713 211 690 143 q 735 358 735 279 q 713 506 735 438 q 646 626 690 575 q 537 706 601 676 q 386 735 472 735 q 236 706 301 735 q 126 626 171 676 q 60 506 82 575 q 38 358 38 438 m 321 844 l 178 1043 l 293 1043 l 389 906 l 486 1043 l 593 1043 l 450 844 l 321 844 z "},"Ǔ":{"ha":1003,"x_min":115,"x_max":900,"o":"m 253 996 l 253 381 q 293 200 253 272 q 496 92 353 92 q 729 208 668 92 q 763 381 763 272 l 763 996 l 900 996 l 900 436 q 850 154 900 253 q 507 -26 760 -26 q 165 154 256 -26 q 115 436 115 253 l 115 996 l 253 996 m 596 1050 l 467 1050 l 329 1246 l 440 1246 l 532 1117 l 624 1246 l 735 1246 l 596 1050 z "},"ǔ":{"ha":772,"x_min":89,"x_max":683,"o":"m 683 0 l 683 718 l 565 718 l 565 313 q 552 223 565 264 q 513 151 539 182 q 447 104 486 121 q 353 88 407 88 q 246 126 285 88 q 207 232 207 165 l 207 718 l 89 718 l 89 246 q 101 140 89 188 q 142 57 113 92 q 218 3 171 22 q 336 -15 265 -15 q 474 16 415 -15 q 569 114 532 47 l 572 114 l 572 0 l 683 0 m 321 844 l 178 1043 l 293 1043 l 389 906 l 486 1043 l 593 1043 l 450 844 l 321 844 z "},"Ǖ":{"ha":1003,"x_min":115,"x_max":900,"o":"m 253 996 l 253 381 q 293 200 253 272 q 496 92 353 92 q 729 208 668 92 q 763 381 763 272 l 763 996 l 900 996 l 900 436 q 850 154 900 253 q 507 -26 760 -26 q 165 154 256 -26 q 115 436 115 253 l 115 996 l 253 996 m 572 1200 l 699 1200 l 699 1058 l 572 1058 l 572 1200 m 349 1200 l 475 1200 l 475 1058 l 349 1058 l 349 1200 m 301 1360 l 735 1360 l 735 1279 l 301 1279 l 301 1360 z "},"ǖ":{"ha":772,"x_min":89,"x_max":683,"o":"m 683 0 l 683 718 l 565 718 l 565 313 q 552 223 565 264 q 513 151 539 182 q 447 104 486 121 q 353 88 407 88 q 246 126 285 88 q 207 232 207 165 l 207 718 l 89 718 l 89 246 q 101 140 89 188 q 142 57 113 92 q 218 3 171 22 q 336 -15 265 -15 q 474 16 415 -15 q 569 114 532 47 l 572 114 l 572 0 l 683 0 m 194 967 l 194 822 l 318 822 l 318 967 l 194 967 m 454 967 l 454 822 l 579 822 l 579 967 l 454 967 m 147 1150 l 625 1150 l 625 1069 l 147 1069 l 147 1150 z "},"Ǘ":{"ha":1003,"x_min":115,"x_max":900,"o":"m 253 996 l 253 381 q 293 200 253 272 q 496 92 353 92 q 729 208 668 92 q 763 381 763 272 l 763 996 l 900 996 l 900 436 q 850 154 900 253 q 507 -26 760 -26 q 165 154 256 -26 q 115 436 115 253 l 115 996 l 253 996 m 572 1185 l 699 1185 l 699 1043 l 572 1043 l 572 1185 m 349 1185 l 475 1185 l 475 1043 l 349 1043 l 349 1185 m 718 1438 l 536 1242 l 443 1242 l 567 1438 l 718 1438 z "},"ǘ":{"ha":772,"x_min":89,"x_max":683,"o":"m 683 0 l 683 718 l 565 718 l 565 313 q 552 223 565 264 q 513 151 539 182 q 447 104 486 121 q 353 88 407 88 q 246 126 285 88 q 207 232 207 165 l 207 718 l 89 718 l 89 246 q 101 140 89 188 q 142 57 113 92 q 218 3 171 22 q 336 -15 265 -15 q 474 16 415 -15 q 569 114 532 47 l 572 114 l 572 0 l 683 0 m 194 967 l 194 822 l 318 822 l 318 967 l 194 967 m 454 967 l 454 822 l 579 822 l 579 967 l 454 967 m 572 1289 l 376 1064 l 288 1064 l 421 1289 l 572 1289 z "},"Ǚ":{"ha":1003,"x_min":115,"x_max":900,"o":"m 253 996 l 253 381 q 293 200 253 272 q 496 92 353 92 q 729 208 668 92 q 763 381 763 272 l 763 996 l 900 996 l 900 436 q 850 154 900 253 q 507 -26 760 -26 q 165 154 256 -26 q 115 436 115 253 l 115 996 l 253 996 m 556 1182 l 683 1182 l 683 1040 l 556 1040 l 556 1182 m 332 1182 l 460 1182 l 460 1040 l 332 1040 l 332 1182 m 576 1231 l 447 1231 l 310 1426 l 421 1426 l 513 1296 l 604 1426 l 715 1426 l 576 1231 z "},"ǚ":{"ha":772,"x_min":89,"x_max":683,"o":"m 683 0 l 683 718 l 565 718 l 565 313 q 552 223 565 264 q 513 151 539 182 q 447 104 486 121 q 353 88 407 88 q 246 126 285 88 q 207 232 207 165 l 207 718 l 89 718 l 89 246 q 101 140 89 188 q 142 57 113 92 q 218 3 171 22 q 336 -15 265 -15 q 474 16 415 -15 q 569 114 532 47 l 572 114 l 572 0 l 683 0 m 194 967 l 194 822 l 318 822 l 318 967 l 194 967 m 454 967 l 454 822 l 579 822 l 579 967 l 454 967 m 322 1063 l 179 1261 l 294 1261 l 390 1124 l 488 1261 l 594 1261 l 451 1063 l 322 1063 z "},"Ǜ":{"ha":1003,"x_min":115,"x_max":900,"o":"m 253 996 l 253 381 q 293 200 253 272 q 496 92 353 92 q 729 208 668 92 q 763 381 763 272 l 763 996 l 900 996 l 900 436 q 850 154 900 253 q 507 -26 760 -26 q 165 154 256 -26 q 115 436 115 253 l 115 996 l 253 996 m 549 1167 l 675 1167 l 675 1026 l 549 1026 l 549 1167 m 325 1167 l 451 1167 l 451 1026 l 325 1026 l 325 1167 m 563 1207 l 469 1207 l 289 1403 l 439 1403 l 563 1207 z "},"ǜ":{"ha":772,"x_min":89,"x_max":683,"o":"m 683 0 l 683 718 l 565 718 l 565 313 q 552 223 565 264 q 513 151 539 182 q 447 104 486 121 q 353 88 407 88 q 246 126 285 88 q 207 232 207 165 l 207 718 l 89 718 l 89 246 q 101 140 89 188 q 142 57 113 92 q 218 3 171 22 q 336 -15 265 -15 q 474 16 415 -15 q 569 114 532 47 l 572 114 l 572 0 l 683 0 m 194 967 l 194 822 l 318 822 l 318 967 l 194 967 m 454 967 l 454 822 l 579 822 l 579 967 l 454 967 m 310 1289 l 443 1064 l 354 1064 l 160 1289 l 310 1289 z "},"ǝ":{"ha":772,"x_min":49,"x_max":713,"o":"m 108 104 q 60 232 72 158 q 49 392 49 282 l 581 392 q 529 569 578 503 q 378 636 481 636 q 225 574 282 636 q 179 489 193 536 l 58 489 q 90 577 64 528 q 150 658 117 626 q 289 731 206 713 q 388 742 332 742 q 618 643 524 742 q 713 367 713 544 q 617 83 713 192 q 369 -26 522 -26 q 219 10 292 -26 q 108 104 146 46 m 174 294 q 208 168 182 215 q 376 81 260 81 q 518 141 461 81 q 578 294 575 201 l 174 294 z "},"Ǟ":{"ha":926,"x_min":21,"x_max":910,"o":"m 617 408 l 465 849 l 306 408 l 617 408 m 396 996 l 549 996 l 910 0 l 761 0 l 661 299 l 267 299 l 158 0 l 21 0 l 396 996 m 524 1194 l 650 1194 l 650 1054 l 524 1054 l 524 1194 m 300 1194 l 426 1194 l 426 1054 l 300 1054 l 300 1194 m 250 1324 l 685 1324 l 685 1244 l 250 1244 l 250 1324 z "},"ǟ":{"ha":772,"x_min":56,"x_max":743,"o":"m 314 79 q 438 110 378 79 q 540 271 540 158 l 540 369 q 483 346 518 356 q 413 332 447 336 l 339 322 q 239 294 272 314 q 183 193 183 263 q 222 110 183 140 q 314 79 260 79 m 479 440 q 535 475 521 446 q 543 522 543 492 q 499 613 543 585 q 372 640 454 640 q 236 589 276 640 q 207 504 214 561 l 93 504 q 180 692 96 639 q 375 744 264 744 q 582 694 503 744 q 663 543 663 646 l 663 125 q 670 94 663 106 q 703 83 678 83 q 721 84 711 83 q 743 86 731 85 l 743 -3 q 699 -13 714 -11 q 658 -15 685 -15 q 567 29 596 -15 q 546 96 551 53 q 439 11 508 47 q 285 -25 369 -25 q 119 37 183 -25 q 56 190 56 99 q 119 347 56 292 q 285 415 182 403 l 479 440 m 414 964 l 540 964 l 540 824 l 414 824 l 414 964 m 190 964 l 317 964 l 317 824 l 190 824 l 190 964 m 142 1118 l 575 1118 l 575 1039 l 142 1039 l 142 1118 z "},"Ǡ":{"ha":926,"x_min":21,"x_max":910,"o":"m 617 408 l 465 849 l 306 408 l 617 408 m 396 996 l 549 996 l 910 0 l 761 0 l 661 299 l 267 299 l 158 0 l 21 0 l 396 996 m 406 1193 l 532 1193 l 532 1051 l 406 1051 l 406 1193 m 246 1324 l 679 1324 l 679 1244 l 246 1244 l 246 1324 z "},"ǡ":{"ha":772,"x_min":56,"x_max":743,"o":"m 314 79 q 438 110 378 79 q 540 271 540 158 l 540 369 q 483 346 518 356 q 413 332 447 336 l 339 322 q 239 294 272 314 q 183 193 183 263 q 222 110 183 140 q 314 79 260 79 m 479 440 q 535 475 521 446 q 543 522 543 492 q 499 613 543 585 q 372 640 454 640 q 236 589 276 640 q 207 504 214 561 l 93 504 q 180 692 96 639 q 375 744 264 744 q 582 694 503 744 q 663 543 663 646 l 663 125 q 670 94 663 106 q 703 83 678 83 q 721 84 711 83 q 743 86 731 85 l 743 -3 q 699 -13 714 -11 q 658 -15 685 -15 q 567 29 596 -15 q 546 96 551 53 q 439 11 508 47 q 285 -25 369 -25 q 119 37 183 -25 q 56 190 56 99 q 119 347 56 292 q 285 415 182 403 l 479 440 m 306 979 l 432 979 l 432 839 l 306 839 l 306 979 m 149 1122 l 583 1122 l 583 1042 l 149 1042 l 149 1122 z "},"Ǣ":{"ha":1389,"x_min":11,"x_max":1321,"o":"m 500 881 l 315 410 l 635 410 l 635 881 l 500 881 m 415 996 l 1308 996 l 1308 878 l 768 878 l 768 572 l 1264 572 l 1264 460 l 768 460 l 768 118 l 1321 118 l 1321 0 l 635 0 l 635 296 l 268 296 l 157 0 l 11 0 l 415 996 m 607 1163 l 1040 1163 l 1040 1082 l 607 1082 l 607 1163 z "},"ǣ":{"ha":1235,"x_min":50,"x_max":1176,"o":"m 1046 421 q 988 582 1044 528 q 850 636 931 636 q 709 582 768 636 q 644 421 650 528 l 1046 421 m 531 369 q 497 352 514 358 q 439 339 481 346 l 336 322 q 228 292 260 311 q 174 194 174 261 q 217 107 174 138 q 318 76 260 76 q 396 94 351 76 q 478 146 440 111 q 521 210 511 176 q 531 278 526 231 l 531 369 m 464 440 q 516 465 499 444 q 533 521 533 485 q 495 609 533 579 q 374 639 457 639 q 265 618 306 639 q 197 503 197 578 l 81 503 q 200 713 86 656 q 379 744 265 744 q 533 711 469 744 q 617 635 588 682 q 717 716 657 688 q 851 744 776 744 q 998 716 931 744 q 1110 622 1065 688 q 1163 497 1150 568 q 1176 324 1176 426 l 643 324 q 699 146 646 211 q 844 81 751 81 q 979 119 933 81 q 1043 228 1025 157 l 1167 228 q 1121 116 1160 174 q 1039 31 1082 58 q 942 -12 990 0 q 840 -25 893 -25 q 664 28 740 -25 q 574 131 593 79 q 447 12 518 49 q 293 -25 376 -25 q 113 33 176 -25 q 50 185 50 92 q 132 365 50 306 q 271 414 183 403 l 464 440 m 400 914 l 835 914 l 835 833 l 400 833 l 400 914 z "},"Ǥ":{"ha":1099,"x_min":33,"x_max":1075,"o":"m 664 254 l 664 350 l 813 350 q 818 421 818 383 l 507 421 l 507 533 l 944 533 l 944 350 l 1075 350 l 1075 254 l 944 254 l 944 0 l 857 0 l 825 128 q 703 24 756 53 q 478 -26 614 -26 q 174 88 300 -26 q 33 483 33 232 q 169 881 33 733 q 503 1022 299 1022 q 746 968 643 1022 q 928 694 894 890 l 794 694 q 693 853 769 804 q 500 903 617 903 q 267 799 361 903 q 172 490 172 696 q 250 201 172 313 q 504 89 328 89 q 728 168 639 89 q 788 254 767 201 l 664 254 z "},"ǥ":{"ha":831,"x_min":35,"x_max":810,"o":"m 489 697 q 558 628 522 674 l 558 719 l 671 719 l 671 418 l 810 418 l 810 321 l 671 321 l 671 58 q 631 -160 671 -79 q 344 -307 554 -307 q 147 -255 226 -307 q 57 -90 67 -203 l 181 -90 q 217 -165 190 -139 q 347 -206 258 -206 q 531 -107 488 -206 q 554 101 556 -49 q 466 19 518 46 q 329 -8 414 -8 q 123 75 211 -8 q 35 351 35 158 q 124 637 35 535 q 339 739 213 739 q 489 697 425 739 m 399 321 l 399 418 l 556 418 q 503 567 547 514 q 361 632 447 632 q 185 511 232 632 q 160 342 160 446 q 210 155 160 219 q 344 90 260 90 q 529 210 475 90 q 557 321 550 260 l 399 321 z "},"Ǧ":{"ha":1081,"x_min":67,"x_max":978,"o":"m 779 968 q 961 694 928 890 l 828 694 q 726 853 803 804 q 533 903 650 903 q 300 799 394 903 q 206 490 206 696 q 283 201 206 313 q 538 89 361 89 q 761 167 672 89 q 851 421 850 246 l 540 421 l 540 533 l 978 533 l 978 0 l 890 0 l 858 128 q 736 24 789 53 q 511 -26 647 -26 q 206 88 333 -26 q 67 483 67 232 q 203 881 67 733 q 536 1022 332 1022 q 779 968 676 1022 m 603 1085 l 474 1085 l 336 1281 l 446 1281 l 538 1150 l 629 1281 l 740 1281 l 603 1085 z "},"ǧ":{"ha":772,"x_min":42,"x_max":678,"o":"m 494 697 q 565 628 529 674 l 565 719 l 678 719 l 678 58 q 638 -160 678 -79 q 350 -307 561 -307 q 153 -255 233 -307 q 64 -90 74 -203 l 188 -90 q 224 -165 197 -139 q 353 -206 264 -206 q 538 -107 493 -206 q 561 101 563 -49 q 472 19 524 46 q 336 -8 421 -8 q 130 75 218 -8 q 42 351 42 158 q 131 637 42 535 q 346 739 219 739 q 494 697 432 739 m 368 632 q 192 511 239 632 q 167 342 167 446 q 217 155 167 219 q 350 90 267 90 q 536 210 482 90 q 565 367 565 276 q 510 567 565 501 q 368 632 454 632 m 414 835 l 285 835 l 147 1031 l 258 1031 l 349 900 l 440 1031 l 551 1031 l 414 835 z "},"Ǩ":{"ha":926,"x_min":106,"x_max":921,"o":"m 106 996 l 238 996 l 238 511 l 724 996 l 910 996 l 494 594 l 921 0 l 746 0 l 397 500 l 238 347 l 238 0 l 106 0 l 106 996 m 543 1056 l 414 1056 l 276 1251 l 386 1251 l 478 1122 l 569 1251 l 681 1251 l 543 1056 z "},"ǩ":{"ha":694,"x_min":86,"x_max":689,"o":"m 86 996 l 204 996 l 204 418 l 518 726 l 674 726 l 396 454 l 689 0 l 533 0 l 307 367 l 204 272 l 204 0 l 86 0 l 86 996 m 439 1039 l 310 1039 l 172 1235 l 283 1235 l 375 1104 l 465 1235 l 578 1235 l 439 1039 z "},"Ǫ":{"ha":1081,"x_min":54,"x_max":1025,"o":"m 926 854 q 1025 515 1025 722 q 913 144 1025 292 q 533 -29 779 -29 q 172 122 303 -29 q 54 493 54 269 q 154 839 54 694 q 536 1024 283 1024 q 926 854 800 1024 m 888 514 q 795 796 888 689 q 544 903 703 903 q 292 797 389 903 q 194 485 194 692 q 278 205 194 318 q 550 92 361 92 q 808 219 728 92 q 888 514 888 347 m 596 -22 l 556 -54 q 492 -116 506 -94 q 478 -164 478 -137 q 496 -208 478 -189 q 549 -226 514 -226 q 578 -223 567 -226 q 604 -211 590 -219 l 604 -300 q 564 -315 581 -310 q 494 -324 529 -324 q 394 -285 429 -324 q 360 -200 360 -247 q 399 -101 360 -144 q 496 -22 431 -65 l 596 -22 z "},"ǫ":{"ha":772,"x_min":40,"x_max":717,"o":"m 589 375 q 557 540 589 476 q 379 640 506 640 q 216 555 267 640 q 165 349 165 469 q 216 156 165 233 q 378 79 267 79 q 544 171 499 79 q 589 375 589 263 m 717 378 q 631 88 717 203 q 367 -26 546 -26 q 128 75 217 -26 q 40 347 40 176 q 133 639 40 531 q 382 747 226 747 q 619 653 522 747 q 717 378 717 560 m 433 -19 l 394 -51 q 331 -113 344 -92 q 317 -161 317 -135 q 335 -205 317 -186 q 388 -224 353 -224 q 417 -220 406 -224 q 442 -208 429 -217 l 442 -297 q 403 -312 419 -307 q 333 -321 368 -321 q 233 -283 268 -321 q 199 -197 199 -244 q 238 -99 199 -143 q 335 -19 268 -62 l 433 -19 z "},"Ǭ":{"ha":1081,"x_min":54,"x_max":1025,"o":"m 926 854 q 1025 515 1025 722 q 913 144 1025 292 q 533 -29 779 -29 q 172 122 303 -29 q 54 493 54 269 q 154 839 54 694 q 536 1024 283 1024 q 926 854 800 1024 m 888 514 q 795 796 888 689 q 544 903 703 903 q 292 797 389 903 q 194 485 194 692 q 278 205 194 318 q 550 92 361 92 q 808 219 728 92 q 888 514 888 347 m 596 -22 l 556 -54 q 492 -116 506 -94 q 478 -164 478 -137 q 496 -208 478 -189 q 549 -226 514 -226 q 578 -223 567 -226 q 604 -211 590 -219 l 604 -300 q 564 -315 581 -310 q 494 -324 529 -324 q 394 -285 429 -324 q 360 -200 360 -247 q 399 -101 360 -144 q 496 -22 431 -65 l 596 -22 m 304 1189 l 739 1189 l 739 1108 l 304 1108 l 304 1189 z "},"ǭ":{"ha":772,"x_min":40,"x_max":717,"o":"m 589 375 q 557 540 589 476 q 379 640 506 640 q 216 555 267 640 q 165 349 165 469 q 216 156 165 233 q 378 79 267 79 q 544 171 499 79 q 589 375 589 263 m 717 378 q 631 88 717 203 q 367 -26 546 -26 q 128 75 217 -26 q 40 347 40 176 q 133 639 40 531 q 382 747 226 747 q 619 653 522 747 q 717 378 717 560 m 433 -19 l 394 -51 q 331 -113 344 -92 q 317 -161 317 -135 q 335 -205 317 -186 q 388 -224 353 -224 q 417 -220 406 -224 q 442 -208 429 -217 l 442 -297 q 403 -312 419 -307 q 333 -321 368 -321 q 233 -283 268 -321 q 199 -197 199 -244 q 238 -99 199 -143 q 335 -19 268 -62 l 433 -19 m 149 921 l 583 921 l 583 840 l 149 840 l 149 921 z "},"Ǯ":{"ha":746,"x_min":18,"x_max":722,"o":"m 325 564 l 392 571 q 550 476 508 571 q 592 274 592 382 q 525 131 592 165 q 360 97 458 97 q 219 144 283 97 q 138 271 154 190 l 18 271 q 140 60 39 126 q 369 -7 242 -7 q 617 56 511 -7 q 722 275 722 119 q 629 574 722 467 q 456 674 557 656 l 699 885 l 699 996 l 26 996 l 26 885 l 542 885 l 168 564 l 325 564 m 421 1094 l 292 1094 l 154 1290 l 265 1290 l 357 1160 l 449 1290 l 560 1290 l 421 1094 z "},"ǯ":{"ha":679,"x_min":19,"x_max":656,"o":"m 260 290 l 325 297 q 483 203 442 297 q 525 0 525 110 q 462 -149 525 -108 q 300 -190 399 -190 q 190 -137 224 -190 q 139 -3 156 -83 l 19 -3 q 111 -221 40 -147 q 310 -294 182 -294 q 553 -224 451 -294 q 656 1 656 -154 q 563 300 656 193 q 389 400 492 382 l 633 611 l 633 724 l 28 724 l 28 611 l 475 611 l 101 290 l 260 290 m 396 822 l 267 822 l 129 1018 l 239 1018 l 331 889 l 422 1018 l 533 1018 l 396 822 z "},"ǰ":{"ha":308,"x_min":-44,"x_max":360,"o":"m -26 -183 q 73 -169 57 -181 q 89 -94 89 -157 l 89 724 l 211 724 l 211 -108 q 186 -226 211 -187 q 24 -293 143 -293 q 6 -292 15 -293 q -26 -289 -4 -292 l -26 -183 m 222 815 l 93 815 l -44 1013 l 65 1013 l 157 882 l 249 1013 l 360 1013 l 222 815 z "},"Ǳ":{"ha":1701,"x_min":57,"x_max":1660,"o":"m 433 115 q 546 129 501 115 q 675 232 625 156 q 732 386 715 292 q 743 490 743 442 q 669 778 743 675 q 432 881 596 881 l 193 881 l 193 115 l 433 115 m 57 996 l 461 996 q 779 850 665 996 q 881 514 881 719 q 821 226 881 354 q 460 0 715 0 l 57 0 l 57 996 m 875 115 l 1486 881 l 921 881 l 921 1000 l 1660 1000 l 1660 883 l 1046 122 l 1660 122 l 1660 3 l 875 3 l 875 115 z "},"ǲ":{"ha":1560,"x_min":75,"x_max":1519,"o":"m 451 115 q 564 129 521 115 q 693 232 643 156 q 751 386 733 292 q 761 490 761 442 q 688 778 761 675 q 450 881 614 881 l 211 881 l 211 115 l 451 115 m 75 996 l 479 996 q 797 850 685 996 q 899 514 899 719 q 839 226 899 354 q 478 0 733 0 l 75 0 l 75 996 m 911 96 l 1342 617 l 943 617 l 943 726 l 1506 726 l 1506 626 l 1078 110 l 1519 110 l 1519 0 l 911 0 l 911 96 z "},"ǳ":{"ha":1386,"x_min":38,"x_max":1339,"o":"m 375 81 q 515 153 460 81 q 569 363 569 226 q 513 567 569 500 q 374 633 457 633 q 224 563 282 633 q 167 354 167 492 q 216 159 167 238 q 375 81 265 81 m 490 704 q 564 633 522 683 l 564 1000 l 682 1000 l 682 0 l 572 0 l 572 101 q 471 3 529 33 q 338 -26 413 -26 q 126 76 215 -26 q 38 347 38 178 q 119 623 38 507 q 350 739 200 739 q 490 704 433 739 m 732 96 l 1163 617 l 764 617 l 764 726 l 1326 726 l 1326 626 l 899 110 l 1339 110 l 1339 0 l 732 0 l 732 96 z "},"Ǵ":{"ha":1081,"x_min":67,"x_max":978,"o":"m 779 968 q 961 694 928 890 l 828 694 q 726 853 803 804 q 533 903 650 903 q 300 799 394 903 q 206 490 206 696 q 283 201 206 313 q 538 89 361 89 q 761 167 672 89 q 851 421 850 246 l 540 421 l 540 533 l 978 533 l 978 0 l 890 0 l 858 128 q 736 24 789 53 q 511 -26 647 -26 q 206 88 333 -26 q 67 483 67 232 q 203 881 67 733 q 536 1022 332 1022 q 779 968 676 1022 m 685 1279 l 504 1083 l 410 1083 l 535 1279 l 685 1279 z "},"ǵ":{"ha":772,"x_min":42,"x_max":678,"o":"m 494 697 q 565 628 529 674 l 565 719 l 678 719 l 678 58 q 638 -160 678 -79 q 350 -307 561 -307 q 153 -255 233 -307 q 64 -90 74 -203 l 188 -90 q 224 -165 197 -139 q 353 -206 264 -206 q 538 -107 493 -206 q 561 101 563 -49 q 472 19 524 46 q 336 -8 421 -8 q 130 75 218 -8 q 42 351 42 158 q 131 637 42 535 q 346 739 219 739 q 494 697 432 739 m 368 632 q 192 511 239 632 q 167 342 167 446 q 217 155 167 219 q 350 90 267 90 q 536 210 482 90 q 565 367 565 276 q 510 567 565 501 q 368 632 454 632 m 542 1014 l 360 818 l 267 818 l 390 1014 l 542 1014 z "},"Ƿ":{"ha":926,"x_min":118,"x_max":863,"o":"m 118 996 l 567 996 q 781 921 700 996 q 863 711 863 846 q 790 488 863 594 q 567 319 718 381 l 254 218 l 254 0 l 118 0 l 118 996 m 644 860 q 522 881 600 881 l 254 881 l 254 332 l 522 433 q 669 519 613 467 q 726 710 726 572 q 644 860 726 819 z "},"Ǹ":{"ha":1003,"x_min":106,"x_max":897,"o":"m 106 996 l 265 996 l 768 189 l 768 996 l 897 996 l 897 0 l 746 0 l 235 807 l 235 0 l 106 0 l 106 996 m 590 1039 l 497 1039 l 317 1235 l 467 1235 l 590 1039 z "},"ǹ":{"ha":772,"x_min":89,"x_max":682,"o":"m 89 726 l 206 726 l 206 624 q 315 715 257 688 q 443 743 372 743 q 651 635 597 743 q 682 465 682 576 l 682 0 l 557 0 l 557 458 q 538 565 557 524 q 419 633 506 633 q 349 624 376 633 q 260 564 299 608 q 221 490 231 528 q 211 381 211 451 l 211 0 l 89 0 l 89 726 m 492 821 l 400 821 l 218 1017 l 369 1017 l 492 821 z "},"Ǻ":{"ha":900,"x_min":-10,"x_max":911,"o":"m 476 1351 l 618 1351 l 474 1204 l 385 1204 l 476 1351 m 365 947 q 331 991 343 965 q 318 1047 318 1017 q 328 1100 318 1076 q 358 1142 339 1124 q 400 1169 376 1160 q 451 1179 424 1179 q 502 1169 478 1179 q 544 1142 526 1160 q 573 1101 563 1125 q 583 1047 583 1076 q 570 991 583 1017 q 536 947 557 965 l 911 0 l 765 0 l 657 299 l 238 299 l 126 0 l -10 0 l 365 947 m 375 1047 q 397 992 375 1015 q 451 969 418 969 q 505 992 483 969 q 526 1047 526 1015 q 505 1102 526 1081 q 451 1124 483 1124 q 397 1102 418 1124 q 375 1047 375 1081 m 279 410 l 615 410 l 450 872 l 447 872 l 279 410 z "},"ǻ":{"ha":746,"x_min":50,"x_max":725,"o":"m 429 1281 l 581 1281 l 401 1106 l 314 1106 l 429 1281 m 378 785 q 273 825 315 785 q 231 928 231 865 q 274 1031 231 990 q 378 1071 317 1071 q 483 1031 440 1071 q 525 928 525 990 q 482 825 525 865 q 378 785 439 785 m 463 928 q 440 990 463 965 q 378 1014 417 1014 q 316 990 339 1014 q 293 928 293 965 q 316 867 293 892 q 378 842 339 842 q 440 867 417 842 q 463 928 463 892 m 725 3 q 640 -17 693 -17 q 567 10 594 -17 q 540 94 540 36 q 427 10 492 36 q 288 -17 363 -17 q 195 -6 239 -17 q 119 30 151 6 q 69 92 88 54 q 50 185 50 131 q 71 285 50 246 q 126 347 92 324 q 203 384 160 371 q 293 406 247 397 q 385 420 342 415 q 463 434 429 425 q 515 460 496 443 q 535 511 535 478 q 520 574 535 550 q 483 610 506 597 q 431 626 460 622 q 375 631 403 631 q 250 602 300 631 q 196 494 200 574 l 78 494 q 106 607 81 561 q 172 681 131 653 q 267 722 214 710 q 382 735 321 735 q 478 728 431 735 q 565 699 526 721 q 628 639 604 678 q 651 538 651 600 l 651 168 q 656 107 651 126 q 689 88 661 88 q 725 94 704 88 l 725 3 m 533 371 q 475 347 511 354 q 399 334 439 339 q 319 323 360 329 q 247 303 279 317 q 195 263 215 289 q 175 193 175 238 q 187 144 175 164 q 217 111 199 124 q 261 93 236 99 q 314 88 286 88 q 414 103 372 88 q 482 144 456 119 q 521 197 508 168 q 533 250 533 225 l 533 371 z "},"Ǽ":{"ha":1286,"x_min":-10,"x_max":1243,"o":"m 492 992 l 1235 992 l 1235 881 l 747 881 l 747 565 l 1206 565 l 1206 454 l 747 454 l 747 111 l 1243 111 l 1243 0 l 622 0 l 622 289 l 281 289 l 139 0 l -10 0 l 492 992 m 565 881 l 332 400 l 622 400 l 622 881 l 565 881 m 853 1281 l 1004 1281 l 822 1082 l 733 1082 l 853 1281 z "},"ǽ":{"ha":1208,"x_min":50,"x_max":1175,"o":"m 649 324 q 662 233 649 275 q 701 158 675 190 q 769 106 728 125 q 864 88 810 88 q 980 122 931 88 q 1046 226 1029 156 l 1167 226 q 1059 46 1140 108 q 856 -17 978 -17 q 775 -10 814 -17 q 702 13 736 -3 q 641 56 668 29 q 596 124 614 83 q 474 17 556 50 q 293 -17 393 -17 q 197 -6 242 -17 q 120 30 153 6 q 69 92 88 54 q 50 185 50 131 q 71 285 50 246 q 126 348 92 324 q 203 385 160 372 q 293 406 247 397 q 405 425 358 418 q 481 442 451 432 q 524 470 510 453 q 538 519 538 488 q 523 578 538 556 q 485 612 508 600 q 433 627 463 624 q 375 631 404 631 q 250 602 300 631 q 196 494 200 574 l 78 494 q 106 607 81 561 q 172 681 131 653 q 267 722 214 710 q 382 735 321 735 q 448 731 413 735 q 517 717 483 728 q 578 685 550 706 q 622 631 606 664 q 722 710 658 686 q 851 735 786 735 q 1007 702 944 735 q 1107 613 1069 669 q 1160 482 1144 557 q 1175 324 1175 407 l 649 324 m 1050 428 q 1035 507 1049 469 q 996 572 1021 544 q 935 615 971 599 q 851 631 899 631 q 767 615 804 631 q 703 573 729 600 q 663 508 676 546 q 649 428 649 471 l 1050 428 m 175 193 q 187 144 175 164 q 217 111 199 124 q 261 93 236 99 q 314 88 286 88 q 415 103 372 88 q 484 144 457 119 q 524 197 511 168 q 538 250 538 225 l 538 371 q 494 353 519 360 q 439 341 468 346 q 378 332 410 336 q 319 322 347 328 q 264 308 290 317 q 218 285 238 300 q 187 249 199 271 q 175 193 175 226 m 697 1017 l 849 1017 l 667 818 l 578 818 l 697 1017 z "},"Ǿ":{"ha":1056,"x_min":51,"x_max":1004,"o":"m 571 1281 l 722 1281 l 540 1082 l 451 1082 l 571 1281 m 1004 972 l 890 847 q 976 685 949 775 q 1003 496 1003 596 q 973 301 1003 394 q 883 135 943 207 q 735 19 824 63 q 528 -24 646 -24 q 347 8 426 -24 q 210 96 268 40 l 97 -28 l 51 14 l 168 142 q 81 304 110 213 q 53 496 53 396 q 83 691 53 597 q 172 857 113 785 q 321 972 232 929 q 528 1015 410 1015 q 712 983 632 1015 q 850 893 792 951 l 960 1014 l 1004 972 m 767 801 q 667 876 726 849 q 528 904 607 904 q 372 869 438 904 q 265 775 307 833 q 204 644 224 717 q 185 496 185 571 q 201 358 185 425 q 254 236 218 292 l 767 801 m 292 186 q 390 114 332 140 q 528 88 449 88 q 683 123 618 88 q 790 217 749 158 q 851 348 832 275 q 871 496 871 421 q 855 631 871 564 q 804 751 839 697 l 292 186 z "},"ǿ":{"ha":797,"x_min":47,"x_max":750,"o":"m 453 1017 l 604 1017 l 422 818 l 333 818 l 453 1017 m 667 615 q 727 501 707 567 q 747 358 747 435 q 725 211 747 279 q 658 92 703 143 q 549 13 614 42 q 399 -17 483 -17 q 269 4 326 -17 q 169 63 213 25 l 86 -31 l 47 3 l 133 99 q 71 216 92 150 q 50 358 50 282 q 72 506 50 438 q 139 626 94 575 q 248 706 183 676 q 399 735 313 735 q 531 714 474 735 q 632 653 588 693 l 713 743 l 750 707 l 667 615 m 553 565 q 399 631 492 631 q 312 613 353 631 q 240 560 271 594 q 192 474 210 525 q 175 358 175 424 q 186 267 175 308 q 217 190 197 225 l 553 565 m 247 150 q 399 88 310 88 q 485 106 444 88 q 557 158 526 124 q 605 242 588 192 q 622 358 622 293 q 612 451 622 410 q 583 524 601 492 l 247 150 z "},"Ȁ":{"ha":926,"x_min":21,"x_max":910,"o":"m 617 408 l 465 849 l 306 408 l 617 408 m 396 996 l 549 996 l 910 0 l 761 0 l 661 299 l 267 299 l 158 0 l 21 0 l 396 996 m 401 1065 l 315 1065 l 164 1263 l 308 1263 l 401 1065 m 628 1065 l 542 1065 l 388 1263 l 535 1263 l 628 1065 z "},"ȁ":{"ha":772,"x_min":56,"x_max":743,"o":"m 314 79 q 438 110 378 79 q 540 271 540 158 l 540 369 q 483 346 518 356 q 413 332 447 336 l 339 322 q 239 294 272 314 q 183 193 183 263 q 222 110 183 140 q 314 79 260 79 m 479 440 q 535 475 521 446 q 543 522 543 492 q 499 613 543 585 q 372 640 454 640 q 236 589 276 640 q 207 504 214 561 l 93 504 q 180 692 96 639 q 375 744 264 744 q 582 694 503 744 q 663 543 663 646 l 663 125 q 670 94 663 106 q 703 83 678 83 q 721 84 711 83 q 743 86 731 85 l 743 -3 q 699 -13 714 -11 q 658 -15 685 -15 q 567 29 596 -15 q 546 96 551 53 q 439 11 508 47 q 285 -25 369 -25 q 119 37 183 -25 q 56 190 56 99 q 119 347 56 292 q 285 415 182 403 l 479 440 m 329 821 l 243 821 l 92 1018 l 236 1018 l 329 821 m 556 821 l 469 821 l 317 1018 l 463 1018 l 556 821 z "},"Ȃ":{"ha":926,"x_min":21,"x_max":910,"o":"m 617 408 l 465 849 l 306 408 l 617 408 m 396 996 l 549 996 l 910 0 l 761 0 l 661 299 l 267 299 l 158 0 l 21 0 l 396 996 m 611 1025 q 579 1092 601 1069 q 463 1132 542 1132 q 351 1092 388 1132 q 319 1025 331 1069 l 253 1025 q 322 1169 265 1125 q 475 1214 379 1214 q 647 1132 596 1214 q 681 1025 675 1090 l 611 1025 z "}}}
